Katibeh-Regular.ufo
<glyph name="parenleft" format="1">
  <advance width="238"/>
  <unicode hex="0028"/>
  <outline>
    <contour>
      <point x="129" y="338"/>
      <point x="163" y="437"/>
      <point x="221" y="483" type="curve"/>
      <point x="209" y="498" type="line"/>
      <point x="86" y="448"/>
      <point x="24" y="353"/>
      <point x="24" y="215" type="curve" smooth="yes"/>
      <point x="24" y="77"/>
      <point x="86" y="-17"/>
      <point x="209" y="-68" type="curve"/>
      <point x="221" y="-52" type="line"/>
      <point x="163" y="-6"/>
      <point x="129" y="92"/>
      <point x="129" y="215" type="curve" smooth="yes"/>
    </contour>
  </outline>
</glyph>
<glyph name="period" format="1">
  <advance width="155"/>
  <unicode hex="002E"/>
  <outline>
    <contour>
      <point x="132" y="81"/>
      <point x="98" y="115"/>
      <point x="77" y="115" type="curve" smooth="yes"/>
      <point x="57" y="115"/>
      <point x="22" y="81"/>
      <point x="22" y="58" type="curve" smooth="yes"/>
      <point x="22" y="35"/>
      <point x="57" y="0"/>
      <point x="77" y="0" type="curve" smooth="yes"/>
      <point x="99" y="-1"/>
      <point x="132" y="34"/>
      <point x="132" y="57" type="curve" smooth="yes"/>
    </contour>
  </outline>
</glyph>
<glyph name="braceleft" format="1">
  <advance width="228"/>
  <unicode hex="007B"/>
  <outline>
    <contour>
      <point x="168" y="169"/>
      <point x="144" y="207"/>
      <point x="96" y="217" type="curve"/>
      <point x="144" y="228"/>
      <point x="168" y="265"/>
      <point x="168" y="332" type="curve" smooth="yes"/>
      <point x="168" y="429"/>
      <point x="183" y="473"/>
      <point x="223" y="485" type="curve"/>
      <point x="218" y="503" type="line"/>
      <point x="117" y="493"/>
      <point x="59" y="429"/>
      <point x="59" y="325" type="curve" smooth="yes"/>
      <point x="59" y="252"/>
      <point x="49" y="229"/>
      <point x="10" y="222" type="curve"/>
      <point x="10" y="208" type="line"/>
      <point x="49" y="201"/>
      <point x="59" y="178"/>
      <point x="59" y="105" type="curve" smooth="yes"/>
      <point x="59" y="1"/>
      <point x="117" y="-62"/>
      <point x="218" y="-73" type="curve"/>
      <point x="223" y="-54" type="line"/>
      <point x="183" y="-43"/>
      <point x="168" y="2"/>
      <point x="168" y="102" type="curve" smooth="yes"/>
    </contour>
  </outline>
</glyph>
<glyph name="braceright" format="1">
  <advance width="228"/>
  <unicode hex="007D"/>
  <outline>
    <contour>
      <point x="60" y="2"/>
      <point x="45" y="-43"/>
      <point x="5" y="-54" type="curve"/>
      <point x="10" y="-73" type="line"/>
      <point x="111" y="-62"/>
      <point x="169" y="1"/>
      <point x="169" y="105" type="curve" smooth="yes"/>
      <point x="169" y="178"/>
      <point x="179" y="201"/>
      <point x="218" y="208" type="curve"/>
      <point x="218" y="222" type="line"/>
      <point x="179" y="229"/>
      <point x="169" y="252"/>
      <point x="169" y="325" type="curve" smooth="yes"/>
      <point x="169" y="429"/>
      <point x="111" y="493"/>
      <point x="10" y="503" type="curve"/>
      <point x="5" y="485" type="line"/>
      <point x="45" y="473"/>
      <point x="60" y="429"/>
      <point x="60" y="332" type="curve" smooth="yes"/>
      <point x="60" y="265"/>
      <point x="84" y="228"/>
      <point x="132" y="217" type="curve"/>
      <point x="84" y="207"/>
      <point x="60" y="169"/>
      <point x="60" y="102" type="curve" smooth="yes"/>
    </contour>
  </outline>
</glyph>
<glyph name="uni0600" format="1">
  <advance width="504"/>
  <unicode hex="0600"/>
  <outline>
    <contour>
      <point x="690" y="8"/>
      <point x="671" y="22"/>
      <point x="662" y="29" type="curve" smooth="yes"/>
      <point x="646" y="42"/>
      <point x="625" y="65"/>
      <point x="610" y="88" type="curve"/>
      <point x="618" y="98"/>
      <point x="650" y="131"/>
      <point x="707" y="131" type="curve" smooth="yes"/>
      <point x="743" y="131"/>
      <point x="770" y="118"/>
      <point x="809" y="91" type="curve"/>
      <point x="838" y="129" type="line"/>
      <point x="823" y="158"/>
      <point x="807" y="180"/>
      <point x="782" y="198" type="curve" smooth="yes"/>
      <point x="765" y="210"/>
      <point x="738" y="224"/>
      <point x="702" y="224" type="curve" smooth="yes"/>
      <point x="647" y="224"/>
      <point x="611" y="190"/>
      <point x="589" y="155" type="curve" smooth="yes"/>
      <point x="574" y="131"/>
      <point x="566" y="109"/>
      <point x="558" y="74" type="curve"/>
      <point x="558" y="36"/>
      <point x="573" y="-6"/>
      <point x="585" y="-20" type="curve"/>
      <point x="574" y="-23"/>
      <point x="558" y="-24"/>
      <point x="540" y="-24" type="curve" smooth="yes"/>
      <point x="85" y="-24" type="line"/>
      <point x="12" y="-24"/>
      <point x="-77" y="-22"/>
      <point x="-120" y="-19" type="curve"/>
      <point x="-54" y="-130" type="line"/>
      <point x="547" y="-130" type="line" smooth="yes"/>
      <point x="599" y="-130"/>
      <point x="647" y="-124"/>
      <point x="711" y="-110" type="curve" smooth="yes"/>
      <point x="751" y="-101"/>
      <point x="795" y="-89"/>
      <point x="849" y="-74" type="curve"/>
      <point x="896" y="36" type="line"/>
      <point x="875" y="30"/>
      <point x="831" y="18"/>
      <point x="798" y="11" type="curve" smooth="yes"/>
      <point x="770" y="5"/>
      <point x="735" y="0"/>
      <point x="708" y="-1" type="curve"/>
    </contour>
  </outline>
</glyph>
<glyph name="uni0601" format="1">
  <advance width="613"/>
  <unicode hex="0601"/>
  <outline>
    <contour>
      <point x="1162" y="66"/>
      <point x="1152" y="109"/>
      <point x="1133" y="127" type="curve"/>
      <point x="1080" y="58" type="line"/>
      <point x="1089" y="31"/>
      <point x="1098" y="-1"/>
      <point x="1097" y="-25" type="curve"/>
      <point x="1097" y="-25"/>
      <point x="1053" y="-30"/>
      <point x="1025" y="-15" type="curve" smooth="yes"/>
      <point x="989" y="5"/>
      <point x="984" y="45"/>
      <point x="983" y="67" type="curve"/>
      <point x="968" y="74" type="line"/>
      <point x="966" y="46"/>
      <point x="960" y="21"/>
      <point x="942" y="0" type="curve" smooth="yes"/>
      <point x="928" y="-16"/>
      <point x="906" y="-29"/>
      <point x="872" y="-29" type="curve" smooth="yes"/>
      <point x="835" y="-29"/>
      <point x="810" y="-15"/>
      <point x="795" y="7" type="curve"/>
      <point x="785" y="23"/>
      <point x="780" y="43"/>
      <point x="780" y="67" type="curve"/>
      <point x="765" y="74" type="line"/>
      <point x="765" y="58"/>
      <point x="761" y="26"/>
      <point x="742" y="1" type="curve" smooth="yes"/>
      <point x="726" y="-19"/>
      <point x="702" y="-34"/>
      <point x="661" y="-34" type="curve" smooth="yes"/>
      <point x="-46" y="-34" type="line"/>
      <point x="-72" y="-34"/>
      <point x="-92" y="-29"/>
      <point x="-105" y="-17" type="curve"/>
      <point x="-118" y="-6"/>
      <point x="-124" y="12"/>
      <point x="-122" y="36" type="curve"/>
      <point x="-137" y="44" type="line"/>
      <point x="-139" y="34"/>
      <point x="-143" y="6"/>
      <point x="-164" y="-13" type="curve" smooth="yes"/>
      <point x="-177" y="-25"/>
      <point x="-197" y="-34"/>
      <point x="-228" y="-34" type="curve"/>
      <point x="-312" y="-34" type="line"/>
      <point x="-351" y="-34"/>
      <point x="-390" y="-25"/>
      <point x="-414" y="9" type="curve" smooth="yes"/>
      <point x="-432" y="35"/>
      <point x="-431" y="70"/>
      <point x="-450" y="96" type="curve" smooth="yes"/>
      <point x="-464" y="116"/>
      <point x="-482" y="124"/>
      <point x="-500" y="124" type="curve" smooth="yes"/>
      <point x="-526" y="124"/>
      <point x="-558" y="107"/>
      <point x="-582" y="77" type="curve" smooth="yes"/>
      <point x="-602" y="53"/>
      <point x="-615" y="22"/>
      <point x="-615" y="-15" type="curve" smooth="yes"/>
      <point x="-615" y="-90" type="line"/>
      <point x="-614" y="-103"/>
      <point x="-612" y="-116"/>
      <point x="-607" y="-127" type="curve"/>
      <point x="-598" y="-149"/>
      <point x="-583" y="-167"/>
      <point x="-567" y="-181" type="curve" smooth="yes"/>
      <point x="-551" y="-195"/>
      <point x="-514" y="-220"/>
      <point x="-507" y="-225" type="curve" smooth="yes"/>
      <point x="-478" y="-246"/>
      <point x="-442" y="-268"/>
      <point x="-429" y="-303" type="curve"/>
      <point x="-424" y="-303" type="line"/>
      <point x="-424" y="-303"/>
      <point x="-424" y="-247"/>
      <point x="-424" y="-223" type="curve" smooth="yes"/>
      <point x="-424" y="-180"/>
      <point x="-451" y="-153"/>
      <point x="-482" y="-129" type="curve" smooth="yes"/>
      <point x="-508" y="-110"/>
      <point x="-538" y="-93"/>
      <point x="-559" y="-71" type="curve" smooth="yes"/>
      <point x="-568" y="-61"/>
      <point x="-575" y="-52"/>
      <point x="-582" y="-42" type="curve"/>
      <point x="-578" y="-35"/>
      <point x="-574" y="-28"/>
      <point x="-568" y="-21" type="curve" smooth="yes"/>
      <point x="-549" y="2"/>
      <point x="-524" y="16"/>
      <point x="-500" y="16" type="curve"/>
      <point x="-476" y="17"/>
      <point x="-454" y="4"/>
      <point x="-440" y="-27" type="curve" smooth="yes"/>
      <point x="-429" y="-53"/>
      <point x="-427" y="-82"/>
      <point x="-407" y="-104" type="curve" smooth="yes"/>
      <point x="-382" y="-132"/>
      <point x="-347" y="-140"/>
      <point x="-312" y="-140" type="curve"/>
      <point x="-247" y="-140" type="line"/>
      <point x="-205" y="-140"/>
      <point x="-179" y="-129"/>
      <point x="-164" y="-116" type="curve"/>
      <point x="-149" y="-104"/>
      <point x="-143" y="-90"/>
      <point x="-142" y="-85" type="curve"/>
      <point x="-136" y="-99"/>
      <point x="-127" y="-110"/>
      <point x="-117" y="-119" type="curve"/>
      <point x="-101" y="-132"/>
      <point x="-79" y="-140"/>
      <point x="-50" y="-140" type="curve"/>
      <point x="666" y="-140" type="line" smooth="yes"/>
      <point x="696" y="-140"/>
      <point x="721" y="-129"/>
      <point x="738" y="-113" type="curve"/>
      <point x="755" y="-99"/>
      <point x="766" y="-80"/>
      <point x="769" y="-64" type="curve"/>
      <point x="775" y="-80"/>
      <point x="782" y="-95"/>
      <point x="795" y="-108" type="curve" smooth="yes"/>
      <point x="810" y="-123"/>
      <point x="833" y="-135"/>
      <point x="868" y="-135" type="curve" smooth="yes"/>
      <point x="896" y="-135"/>
      <point x="921" y="-128"/>
      <point x="939" y="-116" type="curve" smooth="yes"/>
      <point x="958" y="-103"/>
      <point x="970" y="-86"/>
      <point x="975" y="-65" type="curve"/>
      <point x="982" y="-80"/>
      <point x="992" y="-99"/>
      <point x="1011" y="-114" type="curve"/>
      <point x="1026" y="-125"/>
      <point x="1048" y="-134"/>
      <point x="1079" y="-134" type="curve" smooth="yes"/>
      <point x="1093" y="-134"/>
      <point x="1110" y="-115"/>
      <point x="1125" y="-93" type="curve" smooth="yes"/>
      <point x="1141" y="-71"/>
      <point x="1154" y="-46"/>
      <point x="1156" y="-39" type="curve" smooth="yes"/>
      <point x="1161" y="-21"/>
      <point x="1164" y="1"/>
      <point x="1163" y="24" type="curve" smooth="yes"/>
    </contour>
  </outline>
</glyph>
<glyph name="uni0603" format="1">
  <advance width="600"/>
  <unicode hex="0603"/>
  <outline>
    <contour>
      <point x="1099" y="131"/>
      <point x="1069" y="143"/>
      <point x="1029" y="143" type="curve" smooth="yes"/>
      <point x="976" y="143"/>
      <point x="921" y="107"/>
      <point x="877" y="64" type="curve" smooth="yes"/>
      <point x="844" y="32"/>
      <point x="817" y="-5"/>
      <point x="799" y="-34" type="curve"/>
      <point x="780" y="-34"/>
      <point x="756" y="-27"/>
      <point x="744" y="-11" type="curve" smooth="yes"/>
      <point x="736" y="0"/>
      <point x="734" y="16"/>
      <point x="734" y="36" type="curve"/>
      <point x="719" y="44" type="line"/>
      <point x="717" y="35"/>
      <point x="713" y="12"/>
      <point x="697" y="-7" type="curve" smooth="yes"/>
      <point x="684" y="-22"/>
      <point x="663" y="-34"/>
      <point x="627" y="-34" type="curve" smooth="yes"/>
      <point x="101" y="-34" type="line" smooth="yes"/>
      <point x="28" y="-34"/>
      <point x="-61" y="-32"/>
      <point x="-104" y="-29" type="curve"/>
      <point x="-38" y="-140" type="line"/>
      <point x="609" y="-140" type="line" smooth="yes"/>
      <point x="692" y="-140"/>
      <point x="710" y="-96"/>
      <point x="714" y="-85" type="curve"/>
      <point x="724" y="-103"/>
      <point x="730" y="-114"/>
      <point x="754" y="-128" type="curve"/>
      <point x="752" y="-132"/>
      <point x="746" y="-145"/>
      <point x="740" y="-157" type="curve"/>
      <point x="761" y="-179" type="line"/>
      <point x="783" y="-140" type="line"/>
      <point x="827" y="-146"/>
      <point x="865" y="-150"/>
      <point x="900" y="-150" type="curve" smooth="yes"/>
      <point x="987" y="-150"/>
      <point x="1051" y="-122"/>
      <point x="1092" y="-87" type="curve" smooth="yes"/>
      <point x="1132" y="-53"/>
      <point x="1148" y="-21"/>
      <point x="1164" y="36" type="curve"/>
      <point x="1153" y="66"/>
      <point x="1140" y="91"/>
      <point x="1122" y="109" type="curve" smooth="yes"/>
    </contour>
    <contour>
      <point x="1009" y="-32"/>
      <point x="974" y="-38"/>
      <point x="925" y="-38" type="curve" smooth="yes"/>
      <point x="841" y="-38" type="line" smooth="yes"/>
      <point x="841" y="-38"/>
      <point x="858" y="-8"/>
      <point x="890" y="16" type="curve"/>
      <point x="917" y="38"/>
      <point x="956" y="59"/>
      <point x="1003" y="59" type="curve" smooth="yes"/>
      <point x="1030" y="59"/>
      <point x="1049" y="50"/>
      <point x="1063" y="39" type="curve" smooth="yes"/>
      <point x="1082" y="25"/>
      <point x="1089" y="7"/>
      <point x="1089" y="7" type="curve"/>
      <point x="1086" y="4"/>
      <point x="1074" y="-13"/>
      <point x="1033" y="-25" type="curve" smooth="yes"/>
    </contour>
  </outline>
</glyph>
<glyph name="uni0604" format="1">
  <advance width="858"/>
  <unicode hex="0604"/>
  <outline>
    <contour>
      <point x="1507" y="159"/>
      <point x="1497" y="202"/>
      <point x="1478" y="220" type="curve"/>
      <point x="1425" y="151" type="line"/>
      <point x="1434" y="124"/>
      <point x="1443" y="92"/>
      <point x="1442" y="68" type="curve"/>
      <point x="1442" y="68"/>
      <point x="1398" y="63"/>
      <point x="1370" y="78" type="curve" smooth="yes"/>
      <point x="1334" y="98"/>
      <point x="1329" y="138"/>
      <point x="1328" y="160" type="curve"/>
      <point x="1313" y="167" type="line"/>
      <point x="1311" y="143"/>
      <point x="1305" y="120"/>
      <point x="1294" y="102" type="curve" smooth="yes"/>
      <point x="1280" y="79"/>
      <point x="1257" y="64"/>
      <point x="1227" y="64" type="curve" smooth="yes"/>
      <point x="1202" y="64"/>
      <point x="1186" y="68"/>
      <point x="1172" y="78" type="curve"/>
      <point x="1158" y="89"/>
      <point x="1147" y="106"/>
      <point x="1131" y="132" type="curve"/>
      <point x="1118" y="155"/>
      <point x="1102" y="174"/>
      <point x="1070" y="174" type="curve" smooth="yes"/>
      <point x="1037" y="174"/>
      <point x="1004" y="148"/>
      <point x="979" y="114" type="curve" smooth="yes"/>
      <point x="963" y="93"/>
      <point x="950" y="69"/>
      <point x="943" y="47" type="curve" smooth="yes"/>
      <point x="938" y="28"/>
      <point x="935" y="10"/>
      <point x="935" y="-11" type="curve"/>
      <point x="930" y="-15"/>
      <point x="909" y="-31"/>
      <point x="876" y="-31" type="curve" smooth="yes"/>
      <point x="64" y="-31" type="line"/>
      <point x="-18" y="-32"/>
      <point x="-107" y="-30"/>
      <point x="-150" y="-27" type="curve"/>
      <point x="-82" y="-137" type="line"/>
      <point x="907" y="-137" type="line" smooth="yes"/>
      <point x="975" y="-137"/>
      <point x="1024" y="-113"/>
      <point x="1086" y="-161" type="curve"/>
      <point x="1104" y="-36" type="line"/>
      <point x="1088" y="-20"/>
      <point x="1067" y="-15"/>
      <point x="1048" y="-9" type="curve" smooth="yes"/>
      <point x="1027" y="-2"/>
      <point x="1007" y="5"/>
      <point x="995" y="30" type="curve"/>
      <point x="1008" y="54"/>
      <point x="1035" y="79"/>
      <point x="1060" y="79" type="curve" smooth="yes"/>
      <point x="1108" y="79"/>
      <point x="1124" y="46"/>
      <point x="1142" y="14" type="curve" smooth="yes"/>
      <point x="1159" y="-15"/>
      <point x="1185" y="-42"/>
      <point x="1235" y="-42" type="curve" smooth="yes"/>
      <point x="1258" y="-42"/>
      <point x="1279" y="-34"/>
      <point x="1294" y="-20" type="curve" smooth="yes"/>
      <point x="1307" y="-7"/>
      <point x="1317" y="9"/>
      <point x="1320" y="28" type="curve"/>
      <point x="1327" y="13"/>
      <point x="1337" y="-6"/>
      <point x="1356" y="-21" type="curve"/>
      <point x="1371" y="-32"/>
      <point x="1393" y="-41"/>
      <point x="1424" y="-41" type="curve" smooth="yes"/>
      <point x="1438" y="-41"/>
      <point x="1455" y="-22"/>
      <point x="1470" y="0" type="curve" smooth="yes"/>
      <point x="1486" y="22"/>
      <point x="1499" y="47"/>
      <point x="1501" y="54" type="curve" smooth="yes"/>
      <point x="1506" y="72"/>
      <point x="1509" y="94"/>
      <point x="1508" y="117" type="curve" smooth="yes"/>
    </contour>
  </outline>
</glyph>
<glyph name="uni060C" format="1">
  <advance width="144"/>
  <unicode hex="060C"/>
  <outline>
    <contour>
      <point x="128" y="13" type="line"/>
      <point x="125" y="32" type="line"/>
      <point x="113" y="40" type="line"/>
      <point x="101" y="50"/>
      <point x="96" y="62"/>
      <point x="96" y="74" type="curve" smooth="yes"/>
      <point x="96" y="86"/>
      <point x="100" y="98"/>
      <point x="105" y="108" type="curve"/>
      <point x="134" y="173" type="line"/>
      <point x="107" y="191" type="line"/>
      <point x="76" y="157" type="line" smooth="yes"/>
      <point x="42" y="117"/>
      <point x="17" y="86"/>
      <point x="17" y="50" type="curve" smooth="yes"/>
      <point x="17" y="12"/>
      <point x="40" y="-2"/>
      <point x="70" y="-2" type="curve" smooth="yes"/>
      <point x="86" y="-2"/>
      <point x="103" y="0"/>
      <point x="120" y="9" type="curve" smooth="yes"/>
    </contour>
  </outline>
</glyph>
<glyph name="uni060F" format="1">
  <advance width="571"/>
  <unicode hex="060F"/>
  <outline>
    <contour>
      <point x="290" y="-34"/>
      <point x="237" y="-145"/>
      <point x="222" y="-240" type="curve"/>
      <point x="150" y="-222"/>
      <point x="129" y="-168"/>
      <point x="129" y="-127" type="curve" smooth="yes"/>
      <point x="129" y="-63"/>
      <point x="170" y="-18"/>
      <point x="221" y="13" type="curve" smooth="yes"/>
      <point x="286" y="53"/>
      <point x="368" y="71"/>
      <point x="403" y="81" type="curve"/>
      <point x="449" y="184" type="line"/>
      <point x="355" y="161"/>
      <point x="273" y="141"/>
      <point x="272" y="141" type="curve"/>
      <point x="254" y="150"/>
      <point x="228" y="167"/>
      <point x="215" y="178" type="curve" smooth="yes"/>
      <point x="196" y="193"/>
      <point x="178" y="212"/>
      <point x="163" y="234" type="curve"/>
      <point x="171" y="243"/>
      <point x="203" y="276"/>
      <point x="260" y="276" type="curve" smooth="yes"/>
      <point x="299" y="276"/>
      <point x="325" y="263"/>
      <point x="362" y="237" type="curve"/>
      <point x="391" y="274" type="line"/>
      <point x="375" y="301"/>
      <point x="360" y="322"/>
      <point x="335" y="340" type="curve" smooth="yes"/>
      <point x="315" y="354"/>
      <point x="288" y="365"/>
      <point x="255" y="365" type="curve" smooth="yes"/>
      <point x="199" y="365"/>
      <point x="164" y="333"/>
      <point x="142" y="299" type="curve" smooth="yes"/>
      <point x="130" y="279"/>
      <point x="120" y="257"/>
      <point x="111" y="221" type="curve"/>
      <point x="111" y="204"/>
      <point x="112" y="179"/>
      <point x="125" y="150" type="curve" smooth="yes"/>
      <point x="134" y="129"/>
      <point x="150" y="105"/>
      <point x="177" y="81" type="curve"/>
      <point x="152" y="60"/>
      <point x="125" y="32"/>
      <point x="104" y="-5" type="curve" smooth="yes"/>
      <point x="83" y="-41"/>
      <point x="69" y="-85"/>
      <point x="69" y="-139" type="curve" smooth="yes"/>
      <point x="69" y="-192"/>
      <point x="86" y="-243"/>
      <point x="115" y="-282" type="curve" smooth="yes"/>
      <point x="140" y="-315"/>
      <point x="174" y="-340"/>
      <point x="214" y="-352" type="curve"/>
      <point x="213" y="-391" type="line"/>
      <point x="259" y="-417" type="line"/>
      <point x="263" y="-365" type="line"/>
      <point x="353" y="-379"/>
      <point x="410" y="-360"/>
      <point x="449" y="-327" type="curve" smooth="yes"/>
      <point x="498" y="-288"/>
      <point x="522" y="-227"/>
      <point x="521" y="-172" type="curve" smooth="yes"/>
      <point x="519" y="-100"/>
      <point x="476" y="-34"/>
      <point x="393" y="-34" type="curve" smooth="yes"/>
    </contour>
    <contour>
      <point x="436" y="-83"/>
      <point x="461" y="-116"/>
      <point x="462" y="-154" type="curve" smooth="yes"/>
      <point x="464" y="-182"/>
      <point x="452" y="-214"/>
      <point x="425" y="-236" type="curve" smooth="yes"/>
      <point x="390" y="-265"/>
      <point x="331" y="-269"/>
      <point x="273" y="-257" type="curve"/>
      <point x="273" y="-257"/>
      <point x="291" y="-83"/>
      <point x="393" y="-83" type="curve" smooth="yes"/>
    </contour>
    <contour>
      <point x="252" y="399" type="move" name="top"/>
    </contour>
    <contour>
      <point x="329" y="-452" type="move" name="bottom"/>
    </contour>
  </outline>
</glyph>
<glyph name="uni0611" format="1">
  <advance width="0"/>
  <unicode hex="0611"/>
  <outline>
    <contour>
      <point x="7" y="799"/>
      <point x="-2" y="805"/>
      <point x="-6" y="809" type="curve" smooth="yes"/>
      <point x="-13" y="814"/>
      <point x="-19" y="820"/>
      <point x="-24" y="828" type="curve"/>
      <point x="-21" y="831"/>
      <point x="-10" y="842"/>
      <point x="9" y="842" type="curve" smooth="yes"/>
      <point x="23" y="842"/>
      <point x="32" y="838"/>
      <point x="44" y="829" type="curve"/>
      <point x="54" y="842" type="line"/>
      <point x="49" y="851"/>
      <point x="44" y="858"/>
      <point x="35" y="864" type="curve" smooth="yes"/>
      <point x="28" y="869"/>
      <point x="19" y="873"/>
      <point x="8" y="873" type="curve" smooth="yes"/>
      <point x="-12" y="873"/>
      <point x="-24" y="862"/>
      <point x="-31" y="850" type="curve" smooth="yes"/>
      <point x="-35" y="843"/>
      <point x="-39" y="836"/>
      <point x="-42" y="823" type="curve"/>
      <point x="-42" y="818"/>
      <point x="-42" y="809"/>
      <point x="-37" y="799" type="curve" smooth="yes"/>
      <point x="-35" y="794"/>
      <point x="-32" y="788"/>
      <point x="-26" y="782" type="curve"/>
      <point x="-36" y="783"/>
      <point x="-44" y="785"/>
      <point x="-50" y="789" type="curve" smooth="yes"/>
      <point x="-56" y="792"/>
      <point x="-60" y="798"/>
      <point x="-63" y="807" type="curve"/>
      <point x="-71" y="799" type="line"/>
      <point x="-71" y="799"/>
      <point x="-75" y="777"/>
      <point x="-62" y="756" type="curve" smooth="yes"/>
      <point x="-57" y="748"/>
      <point x="-44" y="727"/>
      <point x="-37" y="703" type="curve"/>
      <point x="-28" y="708" type="line"/>
      <point x="-26" y="721"/>
      <point x="-27" y="740"/>
      <point x="-32" y="753" type="curve"/>
      <point x="-2" y="746"/>
      <point x="46" y="772"/>
      <point x="58" y="775" type="curve"/>
      <point x="74" y="811" type="line"/>
      <point x="42" y="803"/>
      <point x="14" y="796"/>
      <point x="13" y="796" type="curve"/>
    </contour>
    <contour>
      <point x="1" y="873" type="move" name="top"/>
    </contour>
    <contour>
      <point x="1" y="683" type="move" name="_top"/>
    </contour>
  </outline>
</glyph>
<glyph name="uni0613" format="1">
  <advance width="0"/>
  <unicode hex="0613"/>
  <outline>
    <contour>
      <point x="122" y="830"/>
      <point x="109" y="853"/>
      <point x="86" y="866" type="curve"/>
      <point x="75" y="838" type="line" smooth="yes"/>
      <point x="73" y="834"/>
      <point x="75" y="829"/>
      <point x="79" y="826" type="curve" smooth="yes"/>
      <point x="88" y="819"/>
      <point x="97" y="813"/>
      <point x="105" y="804" type="curve"/>
      <point x="103" y="783"/>
      <point x="93" y="772"/>
      <point x="81" y="765" type="curve" smooth="yes"/>
      <point x="66" y="756"/>
      <point x="41" y="756"/>
      <point x="29" y="755" type="curve"/>
      <point x="29" y="720" type="line"/>
      <point x="69" y="720"/>
      <point x="82" y="724"/>
      <point x="94" y="733" type="curve" smooth="yes"/>
      <point x="103" y="739"/>
      <point x="110" y="747"/>
      <point x="116" y="759" type="curve" smooth="yes"/>
      <point x="122" y="774"/>
      <point x="125" y="789"/>
      <point x="124" y="804" type="curve" smooth="yes"/>
    </contour>
    <contour>
      <point x="-20" y="866"/>
      <point x="-39" y="853"/>
      <point x="-55" y="837" type="curve" smooth="yes"/>
      <point x="-66" y="827"/>
      <point x="-75" y="816"/>
      <point x="-81" y="806" type="curve"/>
      <point x="-91" y="807"/>
      <point x="-99" y="808"/>
      <point x="-105" y="812" type="curve" smooth="yes"/>
      <point x="-110" y="816"/>
      <point x="-114" y="821"/>
      <point x="-117" y="830" type="curve"/>
      <point x="-125" y="822" type="line"/>
      <point x="-125" y="822"/>
      <point x="-129" y="800"/>
      <point x="-116" y="780" type="curve" smooth="yes"/>
      <point x="-111" y="772"/>
      <point x="-98" y="751"/>
      <point x="-91" y="727" type="curve"/>
      <point x="-83" y="732" type="line"/>
      <point x="-81" y="746"/>
      <point x="-82" y="759"/>
      <point x="-85" y="770" type="curve"/>
      <point x="-71" y="768"/>
      <point x="-61" y="767"/>
      <point x="-46" y="767" type="curve" smooth="yes"/>
      <point x="-16" y="767"/>
      <point x="6" y="776"/>
      <point x="20" y="788" type="curve" smooth="yes"/>
      <point x="33" y="799"/>
      <point x="39" y="810"/>
      <point x="44" y="830" type="curve"/>
      <point x="36" y="853"/>
      <point x="23" y="866"/>
      <point x="-2" y="866" type="curve" smooth="yes"/>
    </contour>
    <contour>
      <point x="-67" y="804" type="line" smooth="yes"/>
      <point x="-67" y="804"/>
      <point x="-62" y="812"/>
      <point x="-52" y="820" type="curve" smooth="yes"/>
      <point x="-42" y="829"/>
      <point x="-28" y="837"/>
      <point x="-11" y="837" type="curve" smooth="yes"/>
      <point x="-2" y="837"/>
      <point x="4" y="835"/>
      <point x="9" y="831" type="curve" smooth="yes"/>
      <point x="16" y="826"/>
      <point x="19" y="820"/>
      <point x="19" y="820" type="curve"/>
      <point x="17" y="818"/>
      <point x="8" y="804"/>
      <point x="-37" y="804" type="curve" smooth="yes"/>
    </contour>
    <contour>
      <point x="8" y="911"/>
      <point x="-1" y="919"/>
      <point x="-9" y="923" type="curve"/>
      <point x="-14" y="918"/>
      <point x="-22" y="908"/>
      <point x="-27" y="902" type="curve"/>
      <point x="-20" y="898"/>
      <point x="-14" y="893"/>
      <point x="-6" y="884" type="curve"/>
      <point x="4" y="893"/>
      <point x="8" y="899"/>
      <point x="12" y="905" type="curve"/>
    </contour>
    <contour>
      <point x="-1" y="923" type="move" name="top"/>
    </contour>
    <contour>
      <point x="-1" y="700" type="move" name="_top"/>
    </contour>
  </outline>
</glyph>
<glyph name="uni0616" format="1">
  <advance width="0"/>
  <unicode hex="0616"/>
  <outline>
    <contour>
      <point x="82" y="895"/>
      <point x="81" y="912"/>
      <point x="80" y="924" type="curve"/>
      <point x="86" y="923" type="line"/>
      <point x="78" y="949" type="line"/>
      <point x="73" y="942"/>
      <point x="67" y="934"/>
      <point x="65" y="932" type="curve" smooth="yes"/>
      <point x="63" y="928"/>
      <point x="60" y="924"/>
      <point x="61" y="910" type="curve" smooth="yes"/>
      <point x="62" y="902"/>
      <point x="64" y="887"/>
      <point x="66" y="869" type="curve" smooth="yes"/>
      <point x="68" y="854"/>
      <point x="69" y="837"/>
      <point x="70" y="820" type="curve" smooth="yes"/>
      <point x="71" y="809"/>
      <point x="72" y="788"/>
      <point x="72" y="778" type="curve"/>
      <point x="74" y="778" type="line"/>
      <point x="74" y="778"/>
      <point x="79" y="783"/>
      <point x="81" y="788" type="curve"/>
      <point x="84" y="794"/>
      <point x="85" y="800"/>
      <point x="85" y="802" type="curve" smooth="yes"/>
      <point x="86" y="813"/>
      <point x="86" y="827"/>
      <point x="85" y="837" type="curve" smooth="yes"/>
      <point x="85" y="847"/>
      <point x="84" y="862"/>
      <point x="83" y="877" type="curve" smooth="yes"/>
    </contour>
    <contour>
      <point x="35" y="881"/>
      <point x="31" y="909"/>
      <point x="31" y="911" type="curve" smooth="yes"/>
      <point x="30" y="919"/>
      <point x="31" y="922"/>
      <point x="36" y="927" type="curve"/>
      <point x="28" y="933"/>
      <point x="25" y="938"/>
      <point x="21" y="949" type="curve"/>
      <point x="14" y="948"/>
      <point x="10" y="943"/>
      <point x="8" y="937" type="curve" smooth="yes"/>
      <point x="6" y="931"/>
      <point x="7" y="924"/>
      <point x="7" y="924" type="curve"/>
      <point x="10" y="920" type="line"/>
      <point x="15" y="901"/>
      <point x="17" y="883"/>
      <point x="19" y="863" type="curve" smooth="yes"/>
      <point x="21" y="845"/>
      <point x="24" y="821"/>
      <point x="24" y="810" type="curve"/>
      <point x="24" y="810"/>
      <point x="18" y="804"/>
      <point x="9" y="804" type="curve" smooth="yes"/>
      <point x="-76" y="805" type="line" smooth="yes"/>
      <point x="-88" y="805"/>
      <point x="-95" y="800"/>
      <point x="-101" y="794" type="curve" smooth="yes"/>
      <point x="-107" y="785"/>
      <point x="-110" y="775"/>
      <point x="-110" y="772" type="curve" smooth="yes"/>
      <point x="-112" y="749" type="line"/>
      <point x="-112" y="744"/>
      <point x="-109" y="739"/>
      <point x="-105" y="736" type="curve"/>
      <point x="-101" y="734"/>
      <point x="-96" y="732"/>
      <point x="-91" y="732" type="curve" smooth="yes"/>
      <point x="-42" y="732" type="line"/>
      <point x="-30" y="731"/>
      <point x="-23" y="726"/>
      <point x="-19" y="717" type="curve" smooth="yes"/>
      <point x="-15" y="707"/>
      <point x="-13" y="701"/>
      <point x="-2" y="701" type="curve" smooth="yes"/>
      <point x="20" y="701" type="line"/>
      <point x="36" y="729" type="line"/>
      <point x="28" y="728"/>
      <point x="21" y="727"/>
      <point x="12" y="727" type="curve" smooth="yes"/>
      <point x="2" y="727" type="line" smooth="yes"/>
      <point x="-6" y="727"/>
      <point x="-14" y="728"/>
      <point x="-19" y="733" type="curve" smooth="yes"/>
      <point x="-23" y="738"/>
      <point x="-23" y="745"/>
      <point x="-26" y="751" type="curve" smooth="yes"/>
      <point x="-30" y="757"/>
      <point x="-36" y="759"/>
      <point x="-43" y="759" type="curve" smooth="yes"/>
      <point x="-83" y="759" type="line" smooth="yes"/>
      <point x="-92" y="759"/>
      <point x="-102" y="760"/>
      <point x="-103" y="767" type="curve"/>
      <point x="-101" y="772"/>
      <point x="-97" y="774"/>
      <point x="-91" y="776" type="curve" smooth="yes"/>
      <point x="-82" y="779"/>
      <point x="-70" y="779"/>
      <point x="-61" y="779" type="curve" smooth="yes"/>
      <point x="-41" y="778"/>
      <point x="-38" y="778"/>
      <point x="-24" y="778" type="curve" smooth="yes"/>
      <point x="13" y="778" type="line" smooth="yes"/>
      <point x="26" y="778"/>
      <point x="34" y="785"/>
      <point x="37" y="795" type="curve" smooth="yes"/>
      <point x="38" y="799"/>
      <point x="39" y="805"/>
      <point x="38" y="821" type="curve" smooth="yes"/>
      <point x="38" y="838"/>
      <point x="36" y="857"/>
      <point x="36" y="860" type="curve" smooth="yes"/>
    </contour>
    <contour>
      <point x="-13" y="949" type="move" name="top"/>
    </contour>
    <contour>
      <point x="-13" y="681" type="move" name="_top"/>
    </contour>
  </outline>
</glyph>
<glyph name="uni0617" format="1">
  <advance width="0"/>
  <unicode hex="0617"/>
  <outline>
    <contour>
      <point x="44" y="830"/>
      <point x="32" y="853"/>
      <point x="9" y="866" type="curve"/>
      <point x="-2" y="838" type="line" smooth="yes"/>
      <point x="-4" y="834"/>
      <point x="-2" y="829"/>
      <point x="2" y="826" type="curve" smooth="yes"/>
      <point x="11" y="819"/>
      <point x="20" y="813"/>
      <point x="28" y="805" type="curve"/>
      <point x="25" y="783"/>
      <point x="16" y="772"/>
      <point x="4" y="766" type="curve" smooth="yes"/>
      <point x="-11" y="756"/>
      <point x="-36" y="756"/>
      <point x="-48" y="756" type="curve"/>
      <point x="-48" y="720" type="line"/>
      <point x="-12" y="720"/>
      <point x="4" y="724"/>
      <point x="18" y="733" type="curve" smooth="yes"/>
      <point x="26" y="739"/>
      <point x="33" y="747"/>
      <point x="39" y="760" type="curve" smooth="yes"/>
      <point x="45" y="774"/>
      <point x="48" y="789"/>
      <point x="47" y="804" type="curve" smooth="yes"/>
    </contour>
    <contour>
      <point x="22" y="911"/>
      <point x="12" y="920"/>
      <point x="4" y="924" type="curve"/>
      <point x="0" y="918"/>
      <point x="-8" y="908"/>
      <point x="-14" y="902" type="curve"/>
      <point x="-7" y="898"/>
      <point x="-1" y="893"/>
      <point x="8" y="884" type="curve"/>
      <point x="17" y="893"/>
      <point x="21" y="899"/>
      <point x="26" y="905" type="curve"/>
    </contour>
    <contour>
      <point x="0" y="924" type="move" name="top"/>
    </contour>
    <contour>
      <point x="0" y="700" type="move" name="_top"/>
    </contour>
  </outline>
</glyph>
<glyph name="uni061B" format="1">
  <advance width="155"/>
  <unicode hex="061B"/>
  <outline>
    <contour>
      <point x="133" y="81"/>
      <point x="99" y="115"/>
      <point x="78" y="115" type="curve" smooth="yes"/>
      <point x="58" y="115"/>
      <point x="23" y="81"/>
      <point x="23" y="58" type="curve" smooth="yes"/>
      <point x="23" y="35"/>
      <point x="58" y="0"/>
      <point x="78" y="0" type="curve" smooth="yes"/>
      <point x="100" y="-1"/>
      <point x="133" y="34"/>
      <point x="133" y="57" type="curve" smooth="yes"/>
    </contour>
    <contour>
      <point x="138" y="193" type="line"/>
      <point x="135" y="212" type="line"/>
      <point x="123" y="220" type="line"/>
      <point x="111" y="230"/>
      <point x="106" y="242"/>
      <point x="106" y="254" type="curve" smooth="yes"/>
      <point x="106" y="266"/>
      <point x="110" y="278"/>
      <point x="115" y="288" type="curve"/>
      <point x="144" y="353" type="line"/>
      <point x="117" y="371" type="line"/>
      <point x="86" y="337" type="line" smooth="yes"/>
      <point x="52" y="297"/>
      <point x="27" y="266"/>
      <point x="27" y="230" type="curve" smooth="yes"/>
      <point x="27" y="192"/>
      <point x="50" y="178"/>
      <point x="80" y="178" type="curve" smooth="yes"/>
      <point x="96" y="178"/>
      <point x="113" y="180"/>
      <point x="130" y="189" type="curve" smooth="yes"/>
    </contour>
  </outline>
</glyph>
<glyph name="uni062D" format="1">
  <advance width="575"/>
  <unicode hex="062D"/>
  <outline>
    <contour>
      <point x="351" y="-269"/>
      <point x="279" y="-262"/>
      <point x="217" y="-223" type="curve" smooth="yes"/>
      <point x="160" y="-187"/>
      <point x="124" y="-132"/>
      <point x="124" y="-67" type="curve" smooth="yes"/>
      <point x="124" y="-8"/>
      <point x="153" y="47"/>
      <point x="184" y="78" type="curve"/>
      <point x="192" y="70"/>
      <point x="198" y="52"/>
      <point x="198" y="52" type="curve" smooth="yes"/>
      <point x="198" y="52"/>
      <point x="207" y="68"/>
      <point x="202" y="96" type="curve"/>
      <point x="249" y="132"/>
      <point x="296" y="152"/>
      <point x="335" y="164" type="curve" smooth="yes"/>
      <point x="405" y="186"/>
      <point x="465" y="184"/>
      <point x="465" y="184" type="curve"/>
      <point x="503" y="284" type="line"/>
      <point x="466" y="285" type="line" smooth="yes"/>
      <point x="413" y="286"/>
      <point x="379" y="294"/>
      <point x="299" y="314" type="curve" smooth="yes"/>
      <point x="255" y="325"/>
      <point x="213" y="335"/>
      <point x="184" y="335" type="curve" smooth="yes"/>
      <point x="141" y="335"/>
      <point x="116" y="312"/>
      <point x="102" y="294" type="curve" smooth="yes"/>
      <point x="84" y="271"/>
      <point x="78" y="247"/>
      <point x="78" y="223" type="curve" smooth="yes"/>
      <point x="78" y="176" type="line"/>
      <point x="78" y="176"/>
      <point x="129" y="138"/>
      <point x="152" y="114" type="curve"/>
      <point x="108" y="69"/>
      <point x="70" y="-4"/>
      <point x="70" y="-99" type="curve" smooth="yes"/>
      <point x="70" y="-182"/>
      <point x="99" y="-257"/>
      <point x="149" y="-305" type="curve" smooth="yes"/>
      <point x="199" y="-353"/>
      <point x="264" y="-368"/>
      <point x="349" y="-369" type="curve" smooth="yes"/>
      <point x="407" y="-370" type="line"/>
      <point x="495" y="-269" type="line"/>
      <point x="399" y="-269" type="line" smooth="yes"/>
    </contour>
    <contour>
      <point x="122" y="229"/>
      <point x="143" y="245"/>
      <point x="180" y="245" type="curve" smooth="yes"/>
      <point x="214" y="245"/>
      <point x="256" y="231"/>
      <point x="315" y="223" type="curve"/>
      <point x="299" y="217"/>
      <point x="238" y="194"/>
      <point x="184" y="143" type="curve"/>
      <point x="166" y="175"/>
      <point x="134" y="203"/>
      <point x="117" y="216" type="curve"/>
    </contour>
    <contour>
      <point x="331" y="-25" type="move" name="center"/>
    </contour>
    <contour>
      <point x="301" y="-399" type="move" name="bottom"/>
    </contour>
    <contour>
      <point x="265" y="360" type="move" name="top"/>
    </contour>
  </outline>
</glyph>
<glyph name="uni0640" format="1">
  <advance width="140"/>
  <unicode hex="0640"/>
  <outline>
    <contour>
      <point x="-17" y="106" type="line" smooth="yes"/>
      <point x="-46" y="106"/>
      <point x="-70" y="82"/>
      <point x="-70" y="53" type="curve" smooth="yes"/>
      <point x="-70" y="24"/>
      <point x="-46" y="0"/>
      <point x="-17" y="0" type="curve" smooth="yes"/>
      <point x="140" y="0" type="line"/>
      <point x="140" y="106" type="line"/>
    </contour>
  </outline>
</glyph>
<glyph name="uni0647" format="1">
  <advance width="331"/>
  <unicode hex="0647"/>
  <outline>
    <contour>
      <point x="270" y="234"/>
      <point x="249" y="263"/>
      <point x="220" y="288" type="curve" smooth="yes"/>
      <point x="185" y="318"/>
      <point x="137" y="340"/>
      <point x="98" y="360" type="curve"/>
      <point x="98" y="270" type="line"/>
      <point x="119" y="257" type="line"/>
      <point x="104" y="251"/>
      <point x="92" y="240"/>
      <point x="84" y="227" type="curve" smooth="yes"/>
      <point x="75" y="212"/>
      <point x="70" y="192"/>
      <point x="70" y="173" type="curve"/>
      <point x="70" y="78" type="line"/>
      <point x="70" y="52"/>
      <point x="79" y="29"/>
      <point x="105" y="13" type="curve" smooth="yes"/>
      <point x="123" y="2"/>
      <point x="145" y="-4"/>
      <point x="166" y="-4" type="curve" smooth="yes"/>
      <point x="187" y="-4"/>
      <point x="208" y="1"/>
      <point x="225" y="12" type="curve" smooth="yes"/>
      <point x="255" y="31"/>
      <point x="271" y="61"/>
      <point x="271" y="96" type="curve"/>
      <point x="270" y="195" type="line"/>
    </contour>
    <contour>
      <point x="109" y="166"/>
      <point x="131" y="176"/>
      <point x="152" y="179" type="curve"/>
      <point x="152" y="240" type="line"/>
      <point x="161" y="233"/>
      <point x="182" y="219"/>
      <point x="202" y="201" type="curve" smooth="yes"/>
      <point x="221" y="184"/>
      <point x="240" y="165"/>
      <point x="248" y="147" type="curve"/>
      <point x="230" y="120"/>
      <point x="199" y="106"/>
      <point x="169" y="106" type="curve" smooth="yes"/>
      <point x="143" y="105"/>
      <point x="117" y="114"/>
      <point x="101" y="134" type="curve"/>
    </contour>
    <contour>
      <point x="128" y="390" type="move" name="top"/>
    </contour>
    <contour>
      <point x="156" y="-38" type="move" name="bottom"/>
    </contour>
  </outline>
</glyph>
<glyph name="uni0649" format="1">
  <advance width="597"/>
  <unicode hex="0649"/>
  <outline>
    <contour>
      <point x="391" y="122"/>
      <point x="357" y="125"/>
      <point x="357" y="154" type="curve"/>
      <point x="394" y="197"/>
      <point x="423" y="226"/>
      <point x="465" y="226" type="curve" smooth="yes"/>
      <point x="496" y="226"/>
      <point x="509" y="210"/>
      <point x="508" y="162" type="curve"/>
      <point x="532" y="170" type="line"/>
      <point x="543" y="189"/>
      <point x="547" y="212"/>
      <point x="547" y="231" type="curve" smooth="yes"/>
      <point x="547" y="278"/>
      <point x="521" y="321"/>
      <point x="470" y="321" type="curve" smooth="yes"/>
      <point x="424" y="321"/>
      <point x="381" y="287"/>
      <point x="349" y="240" type="curve" smooth="yes"/>
      <point x="319" y="196"/>
      <point x="302" y="144"/>
      <point x="302" y="104" type="curve" smooth="yes"/>
      <point x="302" y="82"/>
      <point x="307" y="60"/>
      <point x="322" y="45" type="curve" smooth="yes"/>
      <point x="335" y="33"/>
      <point x="355" y="22"/>
      <point x="395" y="16" type="curve" smooth="yes"/>
      <point x="433" y="11"/>
      <point x="479" y="9"/>
      <point x="481" y="-4" type="curve"/>
      <point x="461" y="-36"/>
      <point x="429" y="-51"/>
      <point x="396" y="-62" type="curve" smooth="yes"/>
      <point x="362" y="-73"/>
      <point x="324" y="-78"/>
      <point x="281" y="-78" type="curve" smooth="yes"/>
      <point x="229" y="-78"/>
      <point x="190" y="-63"/>
      <point x="164" y="-45" type="curve" smooth="yes"/>
      <point x="124" y="-17"/>
      <point x="109" y="20"/>
      <point x="110" y="61" type="curve" smooth="yes"/>
      <point x="111" y="109"/>
      <point x="134" y="151"/>
      <point x="143" y="171" type="curve"/>
      <point x="127" y="177" type="line"/>
      <point x="105" y="153"/>
      <point x="94" y="125"/>
      <point x="87" y="103" type="curve" smooth="yes"/>
      <point x="70" y="51"/>
      <point x="70" y="9"/>
      <point x="70" y="7" type="curve" smooth="yes"/>
      <point x="70" y="-31"/>
      <point x="79" y="-90"/>
      <point x="121" y="-136" type="curve" smooth="yes"/>
      <point x="150" y="-168"/>
      <point x="204" y="-191"/>
      <point x="278" y="-191" type="curve" smooth="yes"/>
      <point x="325" y="-191"/>
      <point x="381" y="-174"/>
      <point x="427" y="-148" type="curve" smooth="yes"/>
      <point x="472" y="-124"/>
      <point x="509" y="-93"/>
      <point x="517" y="-62" type="curve" smooth="yes"/>
      <point x="523" y="-40"/>
      <point x="529" y="-15"/>
      <point x="535" y="24" type="curve" smooth="yes"/>
      <point x="538" y="44"/>
      <point x="539" y="68"/>
      <point x="512" y="89" type="curve" smooth="yes"/>
      <point x="496" y="101"/>
      <point x="478" y="109"/>
      <point x="432" y="116" type="curve" smooth="yes"/>
    </contour>
    <contour>
      <point x="226" y="205" type="move" name="top"/>
    </contour>
    <contour>
      <point x="284" y="-218" type="move" name="bottom"/>
    </contour>
  </outline>
</glyph>
<glyph name="uni064F" format="1">
  <advance width="0"/>
  <unicode hex="064F"/>
  <outline>
    <contour>
      <point x="80" y="862"/>
      <point x="77" y="895"/>
      <point x="55" y="907" type="curve" smooth="yes"/>
      <point x="37" y="917"/>
      <point x="17" y="907"/>
      <point x="9" y="896" type="curve"/>
      <point x="-12" y="864" type="line"/>
      <point x="-18" y="854"/>
      <point x="-28" y="828"/>
      <point x="7" y="810" type="curve" smooth="yes"/>
      <point x="25" y="800" type="line"/>
      <point x="25" y="800"/>
      <point x="-14" y="770"/>
      <point x="-58" y="767" type="curve"/>
      <point x="-87" y="724" type="line"/>
      <point x="-79" y="719" type="line"/>
      <point x="-30" y="727"/>
      <point x="24" y="749"/>
      <point x="49" y="788" type="curve"/>
      <point x="74" y="776" type="line"/>
      <point x="86" y="821" type="line"/>
      <point x="69" y="829" type="line"/>
    </contour>
    <contour>
      <point x="7" y="858"/>
      <point x="12" y="868"/>
      <point x="12" y="868" type="curve" smooth="yes"/>
      <point x="12" y="868"/>
      <point x="24" y="877"/>
      <point x="36" y="871" type="curve" smooth="yes"/>
      <point x="50" y="865"/>
      <point x="46" y="846"/>
      <point x="45" y="838" type="curve"/>
      <point x="20" y="852" type="line" smooth="yes"/>
    </contour>
    <contour>
      <point x="-1" y="911" type="move" name="top"/>
    </contour>
    <contour>
      <point x="-1" y="699" type="move" name="_top"/>
    </contour>
  </outline>
</glyph>
<glyph name="uni0653" format="1">
  <advance width="0"/>
  <unicode hex="0653"/>
  <outline>
    <contour>
      <point x="127" y="831"/>
      <point x="106" y="817"/>
      <point x="78" y="807" type="curve" smooth="yes"/>
      <point x="58" y="799"/>
      <point x="37" y="795"/>
      <point x="15" y="795" type="curve" smooth="yes"/>
      <point x="-13" y="795"/>
      <point x="-45" y="801"/>
      <point x="-72" y="810" type="curve" smooth="yes"/>
      <point x="-93" y="818"/>
      <point x="-119" y="830"/>
      <point x="-133" y="844" type="curve"/>
      <point x="-159" y="783" type="line"/>
      <point x="-107" y="754"/>
      <point x="-104" y="713"/>
      <point x="-104" y="698" type="curve"/>
      <point x="-101" y="697" type="line"/>
      <point x="-83" y="738" type="line"/>
      <point x="-59" y="728"/>
      <point x="-35" y="722"/>
      <point x="-7" y="722" type="curve" smooth="yes"/>
      <point x="35" y="722"/>
      <point x="68" y="737"/>
      <point x="94" y="756" type="curve" smooth="yes"/>
      <point x="126" y="781"/>
      <point x="148" y="817"/>
      <point x="159" y="840" type="curve"/>
      <point x="149" y="849" type="line"/>
    </contour>
    <contour>
      <point x="0" y="849" type="move" name="top"/>
    </contour>
    <contour>
      <point x="0" y="677" type="move" name="_top"/>
    </contour>
  </outline>
</glyph>
<glyph name="uni0654" format="1">
  <advance width="0"/>
  <unicode hex="0654"/>
  <outline>
    <contour>
      <point x="-4" y="784"/>
      <point x="-20" y="807"/>
      <point x="-25" y="815" type="curve"/>
      <point x="-23" y="816"/>
      <point x="-4" y="830"/>
      <point x="11" y="830" type="curve" smooth="yes"/>
      <point x="15" y="830"/>
      <point x="28" y="826"/>
      <point x="35" y="811" type="curve"/>
      <point x="58" y="832" type="line"/>
      <point x="58" y="832"/>
      <point x="51" y="870"/>
      <point x="21" y="870" type="curve" smooth="yes"/>
      <point x="-15" y="870"/>
      <point x="-52" y="819"/>
      <point x="-55" y="815" type="curve"/>
      <point x="-57" y="811"/>
      <point x="-58" y="808"/>
      <point x="-58" y="804" type="curve" smooth="yes"/>
      <point x="-58" y="772"/>
      <point x="-29" y="760"/>
      <point x="-29" y="760" type="curve"/>
      <point x="-35" y="757"/>
      <point x="-54" y="752"/>
      <point x="-62" y="748" type="curve"/>
      <point x="-90" y="706" type="line"/>
      <point x="-83" y="701" type="line"/>
      <point x="-48" y="719"/>
      <point x="6" y="738"/>
      <point x="71" y="749" type="curve"/>
      <point x="71" y="749"/>
      <point x="86" y="788"/>
      <point x="86" y="788" type="curve"/>
      <point x="67" y="785"/>
      <point x="51" y="782"/>
      <point x="29" y="777" type="curve"/>
    </contour>
    <contour>
      <point x="-2" y="870" type="move" name="top"/>
    </contour>
    <contour>
      <point x="-2" y="700" type="move" name="_top"/>
    </contour>
  </outline>
</glyph>
<glyph name="uni0655" format="1">
  <advance width="0"/>
  <unicode hex="0655"/>
  <outline>
    <contour>
      <point x="-4" y="-171"/>
      <point x="-20" y="-148"/>
      <point x="-25" y="-140" type="curve"/>
      <point x="-23" y="-139"/>
      <point x="-4" y="-125"/>
      <point x="11" y="-125" type="curve" smooth="yes"/>
      <point x="15" y="-125"/>
      <point x="28" y="-129"/>
      <point x="35" y="-144" type="curve"/>
      <point x="58" y="-123" type="line"/>
      <point x="58" y="-123"/>
      <point x="51" y="-85"/>
      <point x="21" y="-85" type="curve" smooth="yes"/>
      <point x="-15" y="-85"/>
      <point x="-52" y="-136"/>
      <point x="-55" y="-140" type="curve"/>
      <point x="-57" y="-144"/>
      <point x="-58" y="-147"/>
      <point x="-58" y="-151" type="curve" smooth="yes"/>
      <point x="-58" y="-183"/>
      <point x="-29" y="-195"/>
      <point x="-29" y="-195" type="curve"/>
      <point x="-35" y="-198"/>
      <point x="-54" y="-203"/>
      <point x="-62" y="-207" type="curve"/>
      <point x="-90" y="-249" type="line"/>
      <point x="-83" y="-254" type="line"/>
      <point x="-48" y="-236"/>
      <point x="6" y="-217"/>
      <point x="71" y="-206" type="curve"/>
      <point x="71" y="-206"/>
      <point x="86" y="-167"/>
      <point x="86" y="-167" type="curve"/>
      <point x="67" y="-170"/>
      <point x="51" y="-173"/>
      <point x="29" y="-178" type="curve"/>
    </contour>
    <contour>
      <point x="-2" y="-65" type="move" name="_bottom"/>
    </contour>
    <contour>
      <point x="-2" y="-254" type="move" name="bottom"/>
    </contour>
  </outline>
</glyph>
<glyph name="uni0658" format="1">
  <advance width="0"/>
  <unicode hex="0658"/>
  <outline>
    <contour>
      <point x="56" y="877" type="line"/>
      <point x="41" y="838" type="line"/>
      <point x="53" y="817"/>
      <point x="71" y="792"/>
      <point x="71" y="792" type="curve"/>
      <point x="66" y="779"/>
      <point x="48" y="758"/>
      <point x="3" y="758" type="curve" smooth="yes"/>
      <point x="-20" y="758"/>
      <point x="-36" y="764"/>
      <point x="-47" y="772" type="curve" smooth="yes"/>
      <point x="-66" y="785"/>
      <point x="-68" y="805"/>
      <point x="-68" y="812" type="curve" smooth="yes"/>
      <point x="-68" y="829"/>
      <point x="-60" y="844"/>
      <point x="-55" y="851" type="curve"/>
      <point x="-61" y="857" type="line"/>
      <point x="-69" y="848"/>
      <point x="-74" y="837"/>
      <point x="-77" y="828" type="curve" smooth="yes"/>
      <point x="-83" y="811"/>
      <point x="-84" y="791"/>
      <point x="-84" y="787" type="curve" smooth="yes"/>
      <point x="-84" y="772"/>
      <point x="-80" y="749"/>
      <point x="-61" y="732" type="curve" smooth="yes"/>
      <point x="-49" y="720"/>
      <point x="-30" y="712"/>
      <point x="-2" y="712" type="curve" smooth="yes"/>
      <point x="23" y="712"/>
      <point x="45" y="719"/>
      <point x="61" y="732" type="curve" smooth="yes"/>
      <point x="76" y="746"/>
      <point x="88" y="767"/>
      <point x="88" y="792" type="curve" smooth="yes"/>
      <point x="88" y="815"/>
      <point x="78" y="837"/>
      <point x="78" y="837" type="curve"/>
      <point x="90" y="837" type="line"/>
    </contour>
    <contour>
      <point x="3" y="877" type="move" name="top"/>
    </contour>
    <contour>
      <point x="3" y="692" type="move" name="_top"/>
    </contour>
  </outline>
</glyph>
<glyph name="uni065D" format="1">
  <advance width="0"/>
  <unicode hex="065D"/>
  <outline>
    <contour>
      <point x="-81" y="768"/>
      <point x="-78" y="735"/>
      <point x="-56" y="723" type="curve" smooth="yes"/>
      <point x="-38" y="713"/>
      <point x="-18" y="723"/>
      <point x="-10" y="734" type="curve"/>
      <point x="11" y="766" type="line"/>
      <point x="17" y="776"/>
      <point x="27" y="802"/>
      <point x="-8" y="820" type="curve" smooth="yes"/>
      <point x="-26" y="830" type="line"/>
      <point x="-26" y="830"/>
      <point x="13" y="860"/>
      <point x="57" y="863" type="curve"/>
      <point x="86" y="906" type="line"/>
      <point x="78" y="911" type="line"/>
      <point x="29" y="903"/>
      <point x="-25" y="881"/>
      <point x="-50" y="842" type="curve"/>
      <point x="-75" y="854" type="line"/>
      <point x="-87" y="809" type="line"/>
      <point x="-70" y="801" type="line"/>
    </contour>
    <contour>
      <point x="-8" y="772"/>
      <point x="-13" y="762"/>
      <point x="-13" y="762" type="curve" smooth="yes"/>
      <point x="-13" y="762"/>
      <point x="-25" y="753"/>
      <point x="-37" y="759" type="curve" smooth="yes"/>
      <point x="-51" y="765"/>
      <point x="-47" y="784"/>
      <point x="-46" y="792" type="curve"/>
      <point x="-21" y="778" type="line" smooth="yes"/>
    </contour>
    <contour>
      <point x="-1" y="911" type="move" name="top"/>
    </contour>
    <contour>
      <point x="-1" y="699" type="move" name="_top"/>
    </contour>
  </outline>
</glyph>
<glyph name="uni065E" format="1">
  <advance width="0"/>
  <unicode hex="065E"/>
  <outline>
    <contour>
      <point x="-87" y="735" type="line"/>
      <point x="-79" y="732" type="line"/>
      <point x="73" y="820" type="line"/>
      <point x="84" y="868" type="line"/>
      <point x="-72" y="777" type="line"/>
    </contour>
    <contour>
      <point x="17" y="724"/>
      <point x="28" y="715"/>
      <point x="41" y="700" type="curve"/>
      <point x="58" y="716"/>
      <point x="65" y="725"/>
      <point x="72" y="735" type="curve"/>
      <point x="65" y="746"/>
      <point x="48" y="760"/>
      <point x="35" y="767" type="curve"/>
      <point x="28" y="758"/>
      <point x="14" y="741"/>
      <point x="5" y="731" type="curve"/>
    </contour>
    <contour>
      <point x="-72" y="846"/>
      <point x="-61" y="837"/>
      <point x="-48" y="822" type="curve"/>
      <point x="-31" y="838"/>
      <point x="-24" y="847"/>
      <point x="-17" y="857" type="curve"/>
      <point x="-24" y="868"/>
      <point x="-41" y="882"/>
      <point x="-54" y="889" type="curve"/>
      <point x="-61" y="880"/>
      <point x="-75" y="863"/>
      <point x="-84" y="853" type="curve"/>
    </contour>
    <contour>
      <point x="-2" y="909" type="move" name="_bottom"/>
    </contour>
    <contour>
      <point x="-2" y="700" type="move" name="bottom"/>
    </contour>
  </outline>
</glyph>
<glyph name="uni0661" format="1">
  <advance width="271"/>
  <unicode hex="0661"/>
  <outline>
    <contour>
      <point x="171" y="483" type="line"/>
      <point x="110" y="583" type="line"/>
      <point x="110" y="583"/>
      <point x="82" y="527"/>
      <point x="73" y="508" type="curve" smooth="yes"/>
      <point x="64" y="490"/>
      <point x="52" y="471"/>
      <point x="68" y="422" type="curve" smooth="yes"/>
      <point x="83" y="377"/>
      <point x="104" y="332"/>
      <point x="122" y="260" type="curve" smooth="yes"/>
      <point x="138" y="198"/>
      <point x="152" y="117"/>
      <point x="162" y="0" type="curve"/>
      <point x="172" y="0" type="line"/>
      <point x="172" y="0"/>
      <point x="201" y="56"/>
      <point x="201" y="111" type="curve" smooth="yes"/>
      <point x="200" y="192"/>
      <point x="195" y="263"/>
      <point x="186" y="324" type="curve" smooth="yes"/>
      <point x="176" y="389"/>
      <point x="163" y="444"/>
      <point x="148" y="489" type="curve"/>
    </contour>
  </outline>
</glyph>
<glyph name="uni0663" format="1">
  <advance width="503"/>
  <unicode hex="0663"/>
  <outline>
    <contour>
      <point x="409" y="583" type="line"/>
      <point x="409" y="563"/>
      <point x="404" y="501"/>
      <point x="362" y="501" type="curve" smooth="yes"/>
      <point x="337" y="501"/>
      <point x="324" y="513"/>
      <point x="318" y="528" type="curve" smooth="yes"/>
      <point x="310" y="544"/>
      <point x="310" y="563"/>
      <point x="310" y="574" type="curve"/>
      <point x="288" y="583" type="line"/>
      <point x="286" y="559"/>
      <point x="284" y="485"/>
      <point x="221" y="485" type="curve" smooth="yes"/>
      <point x="189" y="485"/>
      <point x="163" y="504"/>
      <point x="145" y="526" type="curve" smooth="yes"/>
      <point x="122" y="553"/>
      <point x="110" y="583"/>
      <point x="110" y="583" type="curve" smooth="yes"/>
      <point x="110" y="583"/>
      <point x="82" y="527"/>
      <point x="73" y="508" type="curve" smooth="yes"/>
      <point x="64" y="490"/>
      <point x="52" y="471"/>
      <point x="68" y="422" type="curve" smooth="yes"/>
      <point x="83" y="376"/>
      <point x="104" y="329"/>
      <point x="123" y="254" type="curve" smooth="yes"/>
      <point x="139" y="193"/>
      <point x="153" y="113"/>
      <point x="162" y="0" type="curve"/>
      <point x="172" y="0" type="line"/>
      <point x="172" y="0"/>
      <point x="200" y="56"/>
      <point x="200" y="111" type="curve" smooth="yes"/>
      <point x="200" y="161"/>
      <point x="198" y="206"/>
      <point x="194" y="248" type="curve" smooth="yes"/>
      <point x="190" y="293"/>
      <point x="185" y="333"/>
      <point x="178" y="370" type="curve"/>
      <point x="204" y="369"/>
      <point x="224" y="374"/>
      <point x="239" y="382" type="curve" smooth="yes"/>
      <point x="266" y="396"/>
      <point x="277" y="417"/>
      <point x="277" y="417" type="curve"/>
      <point x="287" y="407"/>
      <point x="302" y="395"/>
      <point x="336" y="395" type="curve" smooth="yes"/>
      <point x="365" y="395"/>
      <point x="386" y="408"/>
      <point x="400" y="426" type="curve" smooth="yes"/>
      <point x="418" y="448"/>
      <point x="426" y="479"/>
      <point x="430" y="507" type="curve" smooth="yes"/>
      <point x="434" y="536"/>
      <point x="433" y="563"/>
      <point x="432" y="574" type="curve"/>
    </contour>
  </outline>
</glyph>
<glyph name="uni0668" format="1">
  <advance width="547"/>
  <unicode hex="0668"/>
  <outline>
    <contour>
      <point x="95" y="0" type="line"/>
      <point x="130" y="36"/>
      <point x="166" y="92"/>
      <point x="195" y="166" type="curve" smooth="yes"/>
      <point x="221" y="230"/>
      <point x="242" y="307"/>
      <point x="254" y="398" type="curve"/>
      <point x="273" y="311"/>
      <point x="299" y="229"/>
      <point x="330" y="160" type="curve" smooth="yes"/>
      <point x="362" y="91"/>
      <point x="398" y="35"/>
      <point x="437" y="0" type="curve"/>
      <point x="477" y="126" type="line"/>
      <point x="443" y="158"/>
      <point x="392" y="235"/>
      <point x="347" y="329" type="curve" smooth="yes"/>
      <point x="310" y="406"/>
      <point x="278" y="495"/>
      <point x="264" y="577" type="curve"/>
      <point x="233" y="577" type="line"/>
      <point x="224" y="482"/>
      <point x="203" y="400"/>
      <point x="178" y="333" type="curve" smooth="yes"/>
      <point x="138" y="223"/>
      <point x="87" y="153"/>
      <point x="60" y="126" type="curve"/>
    </contour>
  </outline>
</glyph>
<glyph name="uni066C" format="1">
  <advance width="130"/>
  <unicode hex="066C"/>
  <outline>
    <contour>
      <point x="77" y="107" type="line"/>
      <point x="0" y="-82" type="line"/>
      <point x="53" y="-82" type="line"/>
      <point x="130" y="107" type="line"/>
    </contour>
  </outline>
</glyph>
<glyph name="uni06A9" format="1">
  <advance width="934"/>
  <unicode hex="06A9"/>
  <outline>
    <contour>
      <point x="877" y="626"/>
      <point x="821" y="598"/>
      <point x="765" y="571" type="curve" smooth="yes"/>
      <point x="726" y="552"/>
      <point x="689" y="533"/>
      <point x="654" y="514" type="curve" smooth="yes"/>
      <point x="623" y="496"/>
      <point x="584" y="473"/>
      <point x="579" y="435" type="curve" smooth="yes"/>
      <point x="576" y="415"/>
      <point x="576" y="397"/>
      <point x="576" y="365" type="curve" smooth="yes"/>
      <point x="576" y="305"/>
      <point x="582" y="289"/>
      <point x="626" y="255" type="curve"/>
      <point x="626" y="289" type="line"/>
      <point x="663" y="263"/>
      <point x="715" y="196"/>
      <point x="740" y="134" type="curve"/>
      <point x="678" y="95"/>
      <point x="490" y="85"/>
      <point x="393" y="85" type="curve" smooth="yes"/>
      <point x="306" y="85"/>
      <point x="244" y="94"/>
      <point x="201" y="110" type="curve" smooth="yes"/>
      <point x="140" y="134"/>
      <point x="118" y="172"/>
      <point x="118" y="220" type="curve" smooth="yes"/>
      <point x="118" y="255"/>
      <point x="134" y="293"/>
      <point x="142" y="306" type="curve"/>
      <point x="126" y="321" type="line"/>
      <point x="97" y="295"/>
      <point x="70" y="218"/>
      <point x="70" y="161" type="curve" smooth="yes"/>
      <point x="70" y="119"/>
      <point x="84" y="75"/>
      <point x="126" y="39" type="curve" smooth="yes"/>
      <point x="169" y="2"/>
      <point x="238" y="-23"/>
      <point x="350" y="-23" type="curve" smooth="yes"/>
      <point x="541" y="-23"/>
      <point x="585" y="-12"/>
      <point x="636" y="2" type="curve" smooth="yes"/>
      <point x="716" y="25"/>
      <point x="754" y="52"/>
      <point x="784" y="112" type="curve"/>
      <point x="789" y="130"/>
      <point x="790" y="149"/>
      <point x="790" y="170" type="curve" smooth="yes"/>
      <point x="790" y="209"/>
      <point x="761" y="267"/>
      <point x="725" y="319" type="curve" smooth="yes"/>
      <point x="696" y="359"/>
      <point x="663" y="396"/>
      <point x="635" y="415" type="curve"/>
      <point x="648" y="424"/>
      <point x="697" y="446"/>
      <point x="752" y="470" type="curve" smooth="yes"/>
      <point x="808" y="496"/>
      <point x="870" y="525"/>
      <point x="899" y="544" type="curve"/>
      <point x="924" y="657" type="line"/>
    </contour>
    <contour>
      <point x="726" y="582" type="move" name="top"/>
    </contour>
    <contour>
      <point x="416" y="-64" type="move" name="bottom"/>
    </contour>
  </outline>
</glyph>
<glyph name="uni06AA" format="1">
  <advance width="1032"/>
  <unicode hex="06AA"/>
  <outline>
    <contour>
      <point x="741" y="302"/>
      <point x="655" y="301"/>
      <point x="495" y="301" type="curve" smooth="yes"/>
      <point x="367" y="301"/>
      <point x="262" y="310"/>
      <point x="216" y="360" type="curve"/>
      <point x="244" y="441"/>
      <point x="314" y="444"/>
      <point x="385" y="444" type="curve" smooth="yes"/>
      <point x="490" y="444" type="line"/>
      <point x="490" y="387" type="line"/>
      <point x="493" y="387" type="line"/>
      <point x="499" y="407"/>
      <point x="515" y="444"/>
      <point x="561" y="444" type="curve"/>
      <point x="591" y="542" type="line"/>
      <point x="410" y="542" type="line" smooth="yes"/>
      <point x="313" y="542"/>
      <point x="248" y="505"/>
      <point x="210" y="456" type="curve" smooth="yes"/>
      <point x="182" y="421"/>
      <point x="170" y="379"/>
      <point x="170" y="339" type="curve" smooth="yes"/>
      <point x="170" y="284"/>
      <point x="199" y="245"/>
      <point x="264" y="223" type="curve" smooth="yes"/>
      <point x="329" y="201"/>
      <point x="434" y="196"/>
      <point x="541" y="196" type="curve" smooth="yes"/>
      <point x="614" y="196"/>
      <point x="737" y="204"/>
      <point x="811" y="185" type="curve" smooth="yes"/>
      <point x="848" y="175"/>
      <point x="876" y="159"/>
      <point x="891" y="137" type="curve" smooth="yes"/>
      <point x="906" y="117"/>
      <point x="910" y="92"/>
      <point x="902" y="65" type="curve"/>
      <point x="854" y="90"/>
      <point x="795" y="107"/>
      <point x="542" y="107" type="curve" smooth="yes"/>
      <point x="446" y="107"/>
      <point x="325" y="105"/>
      <point x="294" y="105" type="curve" smooth="yes"/>
      <point x="180" y="105"/>
      <point x="70" y="122"/>
      <point x="70" y="122" type="curve"/>
      <point x="143" y="-3" type="line"/>
      <point x="143" y="-3"/>
      <point x="187" y="-2"/>
      <point x="201" y="-2" type="curve" smooth="yes"/>
      <point x="308" y="0"/>
      <point x="565" y="5"/>
      <point x="662" y="5" type="curve" smooth="yes"/>
      <point x="733" y="5"/>
      <point x="789" y="-3"/>
      <point x="832" y="-13" type="curve" smooth="yes"/>
      <point x="873" y="-24"/>
      <point x="911" y="-43"/>
      <point x="932" y="-55" type="curve"/>
      <point x="932" y="-55"/>
      <point x="947" y="0"/>
      <point x="963" y="60" type="curve" smooth="yes"/>
      <point x="980" y="127"/>
      <point x="971" y="181"/>
      <point x="941" y="221" type="curve" smooth="yes"/>
      <point x="913" y="259"/>
      <point x="866" y="283"/>
      <point x="809" y="292" type="curve" smooth="yes"/>
    </contour>
    <contour>
      <point x="486" y="571" type="move" name="top"/>
    </contour>
    <contour>
      <point x="490" y="-34" type="move" name="bottom"/>
    </contour>
  </outline>
</glyph>
<glyph name="uni06CD" format="1">
  <advance width="663"/>
  <unicode hex="06CD"/>
  <outline>
    <contour>
      <point x="70" y="146" type="line"/>
      <point x="70" y="94" type="line"/>
      <point x="91" y="117"/>
      <point x="120" y="142"/>
      <point x="147" y="154" type="curve"/>
      <point x="164" y="205" type="line"/>
    </contour>
    <component base="uni0649" xOffset="28" yOffset="15" xScale="1.07" yScale="1.07"/>
  </outline>
</glyph>
<glyph name="uni06D2" format="1">
  <advance width="968"/>
  <unicode hex="06D2"/>
  <outline>
    <contour>
      <point x="661" y="106"/>
      <point x="399" y="106"/>
      <point x="298" y="106" type="curve" smooth="yes"/>
      <point x="275" y="106"/>
      <point x="240" y="105"/>
      <point x="206" y="106" type="curve" smooth="yes"/>
      <point x="158" y="107"/>
      <point x="109" y="111"/>
      <point x="105" y="141" type="curve"/>
      <point x="114" y="178"/>
      <point x="132" y="191"/>
      <point x="157" y="198" type="curve" smooth="yes"/>
      <point x="186" y="206"/>
      <point x="236" y="208"/>
      <point x="274" y="234" type="curve" smooth="yes"/>
      <point x="297" y="249"/>
      <point x="325" y="288"/>
      <point x="336" y="301" type="curve" smooth="yes"/>
      <point x="351" y="319"/>
      <point x="365" y="333"/>
      <point x="389" y="333" type="curve" smooth="yes"/>
      <point x="408" y="333"/>
      <point x="437" y="324"/>
      <point x="418" y="240" type="curve"/>
      <point x="438" y="240" type="line"/>
      <point x="446" y="266"/>
      <point x="462" y="319"/>
      <point x="459" y="362" type="curve" smooth="yes"/>
      <point x="457" y="395"/>
      <point x="444" y="420"/>
      <point x="411" y="420" type="curve" smooth="yes"/>
      <point x="384" y="420"/>
      <point x="372" y="403"/>
      <point x="352" y="379" type="curve" smooth="yes"/>
      <point x="340" y="364"/>
      <point x="313" y="331"/>
      <point x="271" y="308" type="curve" smooth="yes"/>
      <point x="240" y="291"/>
      <point x="216" y="287"/>
      <point x="189" y="278" type="curve" smooth="yes"/>
      <point x="172" y="272"/>
      <point x="151" y="263"/>
      <point x="129" y="246" type="curve" smooth="yes"/>
      <point x="98" y="222"/>
      <point x="82" y="196"/>
      <point x="79" y="158" type="curve" smooth="yes"/>
      <point x="70" y="67" type="line"/>
      <point x="70" y="44"/>
      <point x="83" y="29"/>
      <point x="103" y="19" type="curve" smooth="yes"/>
      <point x="131" y="4"/>
      <point x="170" y="0"/>
      <point x="198" y="0" type="curve" smooth="yes"/>
      <point x="332" y="0"/>
      <point x="842" y="0"/>
      <point x="842" y="0" type="curve"/>
      <point x="908" y="111" type="line"/>
      <point x="908" y="111"/>
      <point x="803" y="106"/>
      <point x="689" y="106" type="curve" smooth="yes"/>
    </contour>
    <contour>
      <point x="411" y="450" type="move" name="top"/>
    </contour>
    <contour>
      <point x="438" y="-34" type="move" name="bottom"/>
    </contour>
  </outline>
</glyph>
<glyph name="uni06D6" format="1">
  <advance width="0"/>
  <unicode hex="06D6"/>
  <outline>
    <contour>
      <point x="158" y="859"/>
      <point x="149" y="862"/>
      <point x="138" y="862" type="curve" smooth="yes"/>
      <point x="124" y="862"/>
      <point x="109" y="853"/>
      <point x="96" y="840" type="curve" smooth="yes"/>
      <point x="88" y="832"/>
      <point x="80" y="821"/>
      <point x="74" y="813" type="curve"/>
      <point x="70" y="813"/>
      <point x="63" y="815"/>
      <point x="60" y="819" type="curve" smooth="yes"/>
      <point x="58" y="823"/>
      <point x="57" y="827"/>
      <point x="57" y="833" type="curve"/>
      <point x="52" y="835" type="line"/>
      <point x="52" y="833"/>
      <point x="51" y="826"/>
      <point x="47" y="821" type="curve" smooth="yes"/>
      <point x="43" y="816"/>
      <point x="37" y="813"/>
      <point x="27" y="813" type="curve" smooth="yes"/>
      <point x="14" y="813" type="line" smooth="yes"/>
      <point x="6" y="813"/>
      <point x="-1" y="815"/>
      <point x="-5" y="822" type="curve" smooth="yes"/>
      <point x="-9" y="827"/>
      <point x="-12" y="836"/>
      <point x="-14" y="851" type="curve" smooth="yes"/>
      <point x="-16" y="866"/>
      <point x="-23" y="924"/>
      <point x="-28" y="973" type="curve"/>
      <point x="-46" y="952" type="line"/>
      <point x="-41" y="912"/>
      <point x="-34" y="854"/>
      <point x="-32" y="833" type="curve" smooth="yes"/>
      <point x="-32" y="828"/>
      <point x="-32" y="823"/>
      <point x="-35" y="818" type="curve" smooth="yes"/>
      <point x="-37" y="815"/>
      <point x="-41" y="813"/>
      <point x="-49" y="813" type="curve" smooth="yes"/>
      <point x="-145" y="813" type="line" smooth="yes"/>
      <point x="-157" y="813"/>
      <point x="-166" y="807"/>
      <point x="-172" y="801" type="curve" smooth="yes"/>
      <point x="-179" y="792"/>
      <point x="-181" y="781"/>
      <point x="-183" y="776" type="curve" smooth="yes"/>
      <point x="-185" y="751" type="line"/>
      <point x="-185" y="746"/>
      <point x="-181" y="741"/>
      <point x="-176" y="738" type="curve"/>
      <point x="-173" y="735"/>
      <point x="-166" y="733"/>
      <point x="-161" y="733" type="curve" smooth="yes"/>
      <point x="-81" y="733" type="line"/>
      <point x="-68" y="732"/>
      <point x="-60" y="727"/>
      <point x="-56" y="716" type="curve" smooth="yes"/>
      <point x="-51" y="706"/>
      <point x="-49" y="699"/>
      <point x="-37" y="699" type="curve" smooth="yes"/>
      <point x="-13" y="699" type="line"/>
      <point x="5" y="729" type="line"/>
      <point x="-4" y="729"/>
      <point x="-12" y="728"/>
      <point x="-22" y="728" type="curve" smooth="yes"/>
      <point x="-33" y="728" type="line" smooth="yes"/>
      <point x="-41" y="728"/>
      <point x="-50" y="729"/>
      <point x="-56" y="735" type="curve" smooth="yes"/>
      <point x="-60" y="740"/>
      <point x="-60" y="748"/>
      <point x="-63" y="753" type="curve" smooth="yes"/>
      <point x="-68" y="761"/>
      <point x="-75" y="762"/>
      <point x="-82" y="762" type="curve" smooth="yes"/>
      <point x="-152" y="762" type="line" smooth="yes"/>
      <point x="-163" y="762"/>
      <point x="-174" y="764"/>
      <point x="-175" y="772" type="curve"/>
      <point x="-173" y="776"/>
      <point x="-168" y="780"/>
      <point x="-162" y="782" type="curve" smooth="yes"/>
      <point x="-152" y="785"/>
      <point x="-138" y="785"/>
      <point x="-129" y="784" type="curve" smooth="yes"/>
      <point x="-106" y="784"/>
      <point x="-103" y="784"/>
      <point x="-88" y="784" type="curve" smooth="yes"/>
      <point x="-51" y="784" type="line" smooth="yes"/>
      <point x="-28" y="784"/>
      <point x="-24" y="800"/>
      <point x="-23" y="803" type="curve"/>
      <point x="-20" y="793"/>
      <point x="-12" y="784"/>
      <point x="3" y="784" type="curve" smooth="yes"/>
      <point x="23" y="784" type="line" smooth="yes"/>
      <point x="46" y="784"/>
      <point x="50" y="796"/>
      <point x="51" y="799" type="curve"/>
      <point x="54" y="794"/>
      <point x="56" y="791"/>
      <point x="62" y="787" type="curve"/>
      <point x="62" y="786"/>
      <point x="60" y="782"/>
      <point x="59" y="779" type="curve"/>
      <point x="64" y="773" type="line"/>
      <point x="70" y="784" type="line"/>
      <point x="83" y="782"/>
      <point x="93" y="781"/>
      <point x="103" y="781" type="curve" smooth="yes"/>
      <point x="127" y="781"/>
      <point x="145" y="789"/>
      <point x="156" y="799" type="curve" smooth="yes"/>
      <point x="167" y="807"/>
      <point x="171" y="816"/>
      <point x="176" y="833" type="curve"/>
      <point x="172" y="840"/>
      <point x="169" y="848"/>
      <point x="165" y="853" type="curve" smooth="yes"/>
    </contour>
    <contour>
      <point x="133" y="814"/>
      <point x="123" y="812"/>
      <point x="110" y="812" type="curve" smooth="yes"/>
      <point x="86" y="812" type="line" smooth="yes"/>
      <point x="86" y="812"/>
      <point x="91" y="821"/>
      <point x="100" y="827" type="curve"/>
      <point x="107" y="833"/>
      <point x="118" y="839"/>
      <point x="132" y="839" type="curve" smooth="yes"/>
      <point x="138" y="839"/>
      <point x="144" y="836"/>
      <point x="148" y="834" type="curve" smooth="yes"/>
      <point x="154" y="829"/>
      <point x="155" y="825"/>
      <point x="155" y="825" type="curve"/>
      <point x="155" y="824"/>
      <point x="152" y="818"/>
      <point x="139" y="815" type="curve" smooth="yes"/>
    </contour>
    <contour>
      <point x="-5" y="973" type="move" name="top"/>
    </contour>
    <contour>
      <point x="-5" y="679" type="move" name="_top"/>
    </contour>
  </outline>
</glyph>
<glyph name="uni06D7" format="1">
  <advance width="0"/>
  <unicode hex="06D7"/>
  <outline>
    <contour>
      <point x="123" y="848"/>
      <point x="120" y="859"/>
      <point x="113" y="866" type="curve" smooth="yes"/>
      <point x="108" y="871"/>
      <point x="100" y="874"/>
      <point x="91" y="874" type="curve" smooth="yes"/>
      <point x="76" y="874"/>
      <point x="65" y="865"/>
      <point x="65" y="848" type="curve" smooth="yes"/>
      <point x="65" y="829" type="line"/>
      <point x="65" y="829"/>
      <point x="76" y="828"/>
      <point x="83" y="826" type="curve" smooth="yes"/>
      <point x="88" y="824"/>
      <point x="94" y="820"/>
      <point x="98" y="816" type="curve"/>
      <point x="98" y="816"/>
      <point x="88" y="815"/>
      <point x="81" y="815" type="curve"/>
      <point x="60" y="815" type="line" smooth="yes"/>
      <point x="51" y="815"/>
      <point x="46" y="816"/>
      <point x="42" y="823" type="curve" smooth="yes"/>
      <point x="37" y="828"/>
      <point x="35" y="838"/>
      <point x="33" y="852" type="curve" smooth="yes"/>
      <point x="31" y="867"/>
      <point x="24" y="926"/>
      <point x="18" y="974" type="curve"/>
      <point x="1" y="953" type="line"/>
      <point x="5" y="913"/>
      <point x="12" y="856"/>
      <point x="15" y="834" type="curve" smooth="yes"/>
      <point x="15" y="830"/>
      <point x="15" y="824"/>
      <point x="12" y="820" type="curve" smooth="yes"/>
      <point x="10" y="817"/>
      <point x="5" y="815"/>
      <point x="-3" y="815" type="curve" smooth="yes"/>
      <point x="-98" y="815" type="line" smooth="yes"/>
      <point x="-111" y="815"/>
      <point x="-119" y="809"/>
      <point x="-126" y="803" type="curve" smooth="yes"/>
      <point x="-133" y="793"/>
      <point x="-136" y="782"/>
      <point x="-136" y="779" type="curve" smooth="yes"/>
      <point x="-138" y="753" type="line"/>
      <point x="-138" y="748"/>
      <point x="-135" y="742"/>
      <point x="-130" y="739" type="curve"/>
      <point x="-126" y="737"/>
      <point x="-121" y="734"/>
      <point x="-114" y="734" type="curve" smooth="yes"/>
      <point x="-35" y="734" type="line"/>
      <point x="-22" y="733"/>
      <point x="-14" y="728"/>
      <point x="-9" y="718" type="curve" smooth="yes"/>
      <point x="-6" y="707"/>
      <point x="-3" y="700"/>
      <point x="10" y="700" type="curve" smooth="yes"/>
      <point x="34" y="700" type="line"/>
      <point x="51" y="731" type="line"/>
      <point x="42" y="730"/>
      <point x="35" y="729"/>
      <point x="25" y="729" type="curve" smooth="yes"/>
      <point x="13" y="729" type="line" smooth="yes"/>
      <point x="4" y="729"/>
      <point x="-4" y="730"/>
      <point x="-9" y="736" type="curve" smooth="yes"/>
      <point x="-14" y="741"/>
      <point x="-14" y="749"/>
      <point x="-17" y="755" type="curve" smooth="yes"/>
      <point x="-21" y="762"/>
      <point x="-28" y="764"/>
      <point x="-36" y="764" type="curve" smooth="yes"/>
      <point x="-106" y="764" type="line" smooth="yes"/>
      <point x="-116" y="764"/>
      <point x="-127" y="765"/>
      <point x="-128" y="773" type="curve"/>
      <point x="-126" y="779"/>
      <point x="-122" y="781"/>
      <point x="-115" y="783" type="curve" smooth="yes"/>
      <point x="-105" y="786"/>
      <point x="-92" y="786"/>
      <point x="-82" y="786" type="curve" smooth="yes"/>
      <point x="-60" y="785"/>
      <point x="-57" y="785"/>
      <point x="-41" y="785" type="curve" smooth="yes"/>
      <point x="-7" y="785" type="line"/>
      <point x="-6" y="785" type="line" smooth="yes"/>
      <point x="18" y="785"/>
      <point x="23" y="802"/>
      <point x="24" y="805" type="curve"/>
      <point x="26" y="795"/>
      <point x="35" y="785"/>
      <point x="49" y="785" type="curve" smooth="yes"/>
      <point x="77" y="785" type="line" smooth="yes"/>
      <point x="87" y="785"/>
      <point x="101" y="788"/>
      <point x="110" y="800" type="curve"/>
      <point x="112" y="796"/>
      <point x="114" y="791"/>
      <point x="114" y="785" type="curve"/>
      <point x="114" y="785"/>
      <point x="118" y="795"/>
      <point x="115" y="806" type="curve"/>
      <point x="121" y="816"/>
      <point x="123" y="826"/>
      <point x="123" y="836" type="curve" smooth="yes"/>
    </contour>
    <contour>
      <point x="103" y="837"/>
      <point x="88" y="847"/>
      <point x="76" y="849" type="curve"/>
      <point x="82" y="852"/>
      <point x="88" y="855"/>
      <point x="93" y="855" type="curve" smooth="yes"/>
      <point x="98" y="855"/>
      <point x="101" y="854"/>
      <point x="106" y="851" type="curve" smooth="yes"/>
      <point x="110" y="848"/>
      <point x="113" y="843"/>
      <point x="113" y="834" type="curve" smooth="yes"/>
      <point x="113" y="830"/>
      <point x="112" y="826"/>
      <point x="110" y="823" type="curve"/>
    </contour>
    <contour>
      <point x="93" y="900"/>
      <point x="98" y="895"/>
      <point x="103" y="890" type="curve"/>
      <point x="111" y="898"/>
      <point x="114" y="902"/>
      <point x="118" y="908" type="curve"/>
      <point x="114" y="912"/>
      <point x="107" y="919"/>
      <point x="100" y="922" type="curve"/>
      <point x="98" y="919"/>
      <point x="93" y="914"/>
      <point x="89" y="910" type="curve"/>
      <point x="86" y="914"/>
      <point x="79" y="920"/>
      <point x="75" y="922" type="curve"/>
      <point x="70" y="917"/>
      <point x="64" y="910"/>
      <point x="59" y="905" type="curve"/>
      <point x="66" y="902"/>
      <point x="70" y="898"/>
      <point x="77" y="890" type="curve"/>
      <point x="82" y="895"/>
      <point x="86" y="900"/>
      <point x="89" y="903" type="curve"/>
    </contour>
    <contour>
      <point x="-8" y="974" type="move" name="top"/>
    </contour>
    <contour>
      <point x="-8" y="680" type="move" name="_top"/>
    </contour>
  </outline>
</glyph>
<glyph name="uni06DA" format="1">
  <advance width="0"/>
  <unicode hex="06DA"/>
  <outline>
    <contour>
      <point x="25" y="747"/>
      <point x="-4" y="750"/>
      <point x="-28" y="765" type="curve" smooth="yes"/>
      <point x="-51" y="780"/>
      <point x="-65" y="801"/>
      <point x="-65" y="827" type="curve" smooth="yes"/>
      <point x="-65" y="850"/>
      <point x="-53" y="872"/>
      <point x="-41" y="885" type="curve"/>
      <point x="-38" y="881"/>
      <point x="-36" y="875"/>
      <point x="-36" y="875" type="curve" smooth="yes"/>
      <point x="-36" y="875"/>
      <point x="-32" y="880"/>
      <point x="-34" y="892" type="curve"/>
      <point x="-16" y="906"/>
      <point x="3" y="914"/>
      <point x="19" y="919" type="curve" smooth="yes"/>
      <point x="46" y="927"/>
      <point x="70" y="926"/>
      <point x="70" y="926" type="curve"/>
      <point x="85" y="966" type="line"/>
      <point x="70" y="966" type="line" smooth="yes"/>
      <point x="49" y="967"/>
      <point x="36" y="970"/>
      <point x="4" y="978" type="curve" smooth="yes"/>
      <point x="-13" y="982"/>
      <point x="-30" y="986"/>
      <point x="-41" y="986" type="curve" smooth="yes"/>
      <point x="-58" y="986"/>
      <point x="-68" y="977"/>
      <point x="-74" y="970" type="curve" smooth="yes"/>
      <point x="-81" y="961"/>
      <point x="-83" y="951"/>
      <point x="-83" y="942" type="curve" smooth="yes"/>
      <point x="-83" y="924" type="line"/>
      <point x="-83" y="924"/>
      <point x="-63" y="909"/>
      <point x="-54" y="899" type="curve"/>
      <point x="-71" y="881"/>
      <point x="-86" y="852"/>
      <point x="-86" y="815" type="curve" smooth="yes"/>
      <point x="-86" y="782"/>
      <point x="-75" y="752"/>
      <point x="-55" y="733" type="curve" smooth="yes"/>
      <point x="-36" y="715"/>
      <point x="-10" y="708"/>
      <point x="24" y="708" type="curve" smooth="yes"/>
      <point x="55" y="708" type="line"/>
      <point x="89" y="747" type="line"/>
      <point x="44" y="747" type="line" smooth="yes"/>
    </contour>
    <contour>
      <point x="-66" y="945"/>
      <point x="-57" y="950"/>
      <point x="-43" y="950" type="curve" smooth="yes"/>
      <point x="-29" y="950"/>
      <point x="-13" y="945"/>
      <point x="10" y="942" type="curve"/>
      <point x="4" y="940"/>
      <point x="-20" y="930"/>
      <point x="-41" y="910" type="curve"/>
      <point x="-48" y="923"/>
      <point x="-61" y="934"/>
      <point x="-67" y="940" type="curve"/>
    </contour>
    <contour>
      <point x="2" y="829"/>
      <point x="9" y="822"/>
      <point x="19" y="812" type="curve"/>
      <point x="30" y="823"/>
      <point x="34" y="830"/>
      <point x="39" y="836" type="curve"/>
      <point x="35" y="844"/>
      <point x="24" y="854"/>
      <point x="15" y="858" type="curve"/>
      <point x="9" y="851"/>
      <point x="0" y="840"/>
      <point x="-6" y="834" type="curve"/>
    </contour>
    <contour>
      <point x="2" y="986" type="move" name="top"/>
    </contour>
    <contour>
      <point x="2" y="688" type="move" name="_top"/>
    </contour>
  </outline>
</glyph>
<glyph name="uni06DE" format="1">
  <advance width="434"/>
  <unicode hex="06DE"/>
  <outline>
    <contour>
      <point x="252" y="141"/>
      <point x="254" y="144"/>
      <point x="255" y="145" type="curve"/>
      <point x="237" y="159"/>
      <point x="223" y="174"/>
      <point x="217" y="188" type="curve"/>
      <point x="211" y="174"/>
      <point x="197" y="159"/>
      <point x="180" y="145" type="curve"/>
      <point x="180" y="144"/>
      <point x="182" y="141"/>
      <point x="181" y="140" type="curve"/>
      <point x="180" y="137"/>
      <point x="170" y="139"/>
      <point x="165" y="134" type="curve"/>
      <point x="149" y="106" type="line"/>
      <point x="165" y="77" type="line"/>
      <point x="170" y="73"/>
      <point x="180" y="74"/>
      <point x="181" y="72" type="curve"/>
      <point x="182" y="68"/>
      <point x="180" y="68"/>
      <point x="180" y="66" type="curve"/>
      <point x="198" y="50"/>
      <point x="212" y="36"/>
      <point x="217" y="24" type="curve"/>
      <point x="222" y="36"/>
      <point x="236" y="50"/>
      <point x="255" y="66" type="curve"/>
      <point x="254" y="68"/>
      <point x="252" y="68"/>
      <point x="253" y="72" type="curve"/>
      <point x="255" y="74"/>
      <point x="263" y="73"/>
      <point x="269" y="77" type="curve"/>
      <point x="285" y="106" type="line"/>
      <point x="269" y="134" type="line"/>
      <point x="263" y="139"/>
      <point x="255" y="137"/>
      <point x="253" y="140" type="curve"/>
    </contour>
    <contour>
      <point x="244" y="86"/>
      <point x="239" y="87"/>
      <point x="237" y="86" type="curve"/>
      <point x="237" y="84"/>
      <point x="238" y="84"/>
      <point x="239" y="82" type="curve"/>
      <point x="228" y="74"/>
      <point x="220" y="66"/>
      <point x="217" y="59" type="curve"/>
      <point x="214" y="66"/>
      <point x="206" y="74"/>
      <point x="196" y="82" type="curve"/>
      <point x="196" y="84"/>
      <point x="196" y="84"/>
      <point x="196" y="86" type="curve"/>
      <point x="196" y="87"/>
      <point x="190" y="86"/>
      <point x="187" y="89" type="curve"/>
      <point x="177" y="106" type="line"/>
      <point x="187" y="122" type="line"/>
      <point x="190" y="125"/>
      <point x="196" y="123"/>
      <point x="196" y="126" type="curve"/>
      <point x="196" y="126"/>
      <point x="196" y="128"/>
      <point x="196" y="128" type="curve"/>
      <point x="205" y="137"/>
      <point x="214" y="146"/>
      <point x="217" y="153" type="curve"/>
      <point x="220" y="146"/>
      <point x="228" y="137"/>
      <point x="239" y="128" type="curve"/>
      <point x="238" y="128"/>
      <point x="237" y="126"/>
      <point x="237" y="126" type="curve"/>
      <point x="239" y="123"/>
      <point x="244" y="125"/>
      <point x="247" y="122" type="curve"/>
      <point x="256" y="106" type="line"/>
      <point x="247" y="89" type="line"/>
    </contour>
    <contour>
      <point x="342" y="231" type="line"/>
      <point x="269" y="231" type="line"/>
      <point x="217" y="283" type="line"/>
      <point x="165" y="231" type="line"/>
      <point x="91" y="231" type="line"/>
      <point x="91" y="158" type="line"/>
      <point x="40" y="106" type="line"/>
      <point x="91" y="54" type="line"/>
      <point x="91" y="-19" type="line"/>
      <point x="165" y="-19" type="line"/>
      <point x="217" y="-71" type="line"/>
      <point x="269" y="-19" type="line"/>
      <point x="342" y="-19" type="line"/>
      <point x="342" y="54" type="line"/>
      <point x="394" y="106" type="line"/>
      <point x="342" y="158" type="line"/>
    </contour>
    <contour>
      <point x="159" y="1"/>
      <point x="112" y="48"/>
      <point x="112" y="106" type="curve" smooth="yes"/>
      <point x="112" y="164"/>
      <point x="159" y="211"/>
      <point x="217" y="211" type="curve" smooth="yes"/>
      <point x="275" y="211"/>
      <point x="322" y="164"/>
      <point x="322" y="106" type="curve" smooth="yes"/>
      <point x="322" y="48"/>
      <point x="275" y="1"/>
      <point x="217" y="1" type="curve" smooth="yes"/>
    </contour>
    <contour>
      <point x="208" y="89"/>
      <point x="200" y="97"/>
      <point x="200" y="106" type="curve" smooth="yes"/>
      <point x="200" y="115"/>
      <point x="208" y="123"/>
      <point x="217" y="123" type="curve" smooth="yes"/>
      <point x="226" y="123"/>
      <point x="234" y="115"/>
      <point x="234" y="106" type="curve" smooth="yes"/>
      <point x="234" y="97"/>
      <point x="226" y="89"/>
      <point x="217" y="89" type="curve" smooth="yes"/>
    </contour>
  </outline>
</glyph>
<glyph name="uni06DF" format="1">
  <advance width="0"/>
  <unicode hex="06DF"/>
  <outline>
    <contour>
      <point x="50" y="819"/>
      <point x="26" y="835"/>
      <point x="0" y="835" type="curve" smooth="yes"/>
      <point x="-24" y="835"/>
      <point x="-49" y="819"/>
      <point x="-49" y="783" type="curve" smooth="yes"/>
      <point x="-49" y="771"/>
      <point x="-50" y="758"/>
      <point x="-50" y="750" type="curve" smooth="yes"/>
      <point x="-50" y="716"/>
      <point x="-21" y="700"/>
      <point x="0" y="700" type="curve" smooth="yes"/>
      <point x="22" y="700"/>
      <point x="51" y="716"/>
      <point x="51" y="750" type="curve" smooth="yes"/>
      <point x="51" y="758"/>
      <point x="50" y="771"/>
      <point x="50" y="783" type="curve" smooth="yes"/>
    </contour>
    <contour>
      <point x="-14" y="746"/>
      <point x="-27" y="752"/>
      <point x="-35" y="764" type="curve"/>
      <point x="-35" y="791"/>
      <point x="-18" y="801"/>
      <point x="0" y="801" type="curve" smooth="yes"/>
      <point x="20" y="801"/>
      <point x="36" y="791"/>
      <point x="36" y="764" type="curve"/>
      <point x="28" y="752"/>
      <point x="15" y="746"/>
      <point x="0" y="746" type="curve" smooth="yes"/>
    </contour>
    <contour>
      <point x="1" y="835" type="move" name="top"/>
    </contour>
    <contour>
      <point x="1" y="680" type="move" name="_top"/>
    </contour>
  </outline>
</glyph>
<glyph name="uni06E0" format="1">
  <advance width="0"/>
  <unicode hex="06E0"/>
  <outline>
    <contour>
      <point x="50" y="841"/>
      <point x="26" y="857"/>
      <point x="0" y="857" type="curve" smooth="yes"/>
      <point x="-24" y="857"/>
      <point x="-49" y="841"/>
      <point x="-49" y="805" type="curve" smooth="yes"/>
      <point x="-49" y="793"/>
      <point x="-50" y="740"/>
      <point x="-50" y="732" type="curve" smooth="yes"/>
      <point x="-50" y="698"/>
      <point x="-21" y="682"/>
      <point x="0" y="682" type="curve" smooth="yes"/>
      <point x="22" y="682"/>
      <point x="51" y="698"/>
      <point x="51" y="732" type="curve" smooth="yes"/>
      <point x="51" y="740"/>
      <point x="50" y="793"/>
      <point x="50" y="805" type="curve" smooth="yes"/>
    </contour>
    <contour>
      <point x="-14" y="728"/>
      <point x="-27" y="734"/>
      <point x="-35" y="746" type="curve"/>
      <point x="-35" y="791" type="line"/>
      <point x="-35" y="814"/>
      <point x="-17" y="823"/>
      <point x="0" y="823" type="curve" smooth="yes"/>
      <point x="18" y="823"/>
      <point x="36" y="815"/>
      <point x="36" y="792" type="curve"/>
      <point x="36" y="746" type="line"/>
      <point x="28" y="734"/>
      <point x="15" y="728"/>
      <point x="0" y="728" type="curve" smooth="yes"/>
    </contour>
    <contour>
      <point x="1" y="857" type="move" name="top"/>
    </contour>
    <contour>
      <point x="1" y="662" type="move" name="_top"/>
    </contour>
  </outline>
</glyph>
<glyph name="uni06E4" format="1">
  <advance width="0"/>
  <unicode hex="06E4"/>
  <outline>
    <contour>
      <point x="71" y="761"/>
      <point x="58" y="753"/>
      <point x="45" y="748" type="curve" smooth="yes"/>
      <point x="32" y="743"/>
      <point x="18" y="740"/>
      <point x="5" y="740" type="curve" smooth="yes"/>
      <point x="-10" y="740"/>
      <point x="-27" y="744"/>
      <point x="-43" y="750" type="curve" smooth="yes"/>
      <point x="-54" y="754"/>
      <point x="-64" y="760"/>
      <point x="-71" y="766" type="curve"/>
      <point x="-85" y="734" type="line"/>
      <point x="-57" y="717"/>
      <point x="-58" y="700"/>
      <point x="-60" y="690" type="curve"/>
      <point x="-53" y="687" type="line"/>
      <point x="-44" y="710" type="line"/>
      <point x="-31" y="704"/>
      <point x="-15" y="700"/>
      <point x="0" y="700" type="curve" smooth="yes"/>
      <point x="19" y="700"/>
      <point x="37" y="707"/>
      <point x="51" y="718" type="curve" smooth="yes"/>
      <point x="67" y="729"/>
      <point x="79" y="746"/>
      <point x="86" y="764" type="curve"/>
      <point x="81" y="769" type="line"/>
    </contour>
    <contour>
      <point x="1" y="769" type="move" name="top"/>
    </contour>
    <contour>
      <point x="1" y="667" type="move" name="_top"/>
    </contour>
  </outline>
</glyph>
<glyph name="uni06E8" format="1">
  <advance width="0"/>
  <unicode hex="06E8"/>
  <outline>
    <contour>
      <point x="55" y="866" type="line"/>
      <point x="40" y="827" type="line"/>
      <point x="53" y="806"/>
      <point x="71" y="782"/>
      <point x="71" y="782" type="curve"/>
      <point x="66" y="768"/>
      <point x="48" y="747"/>
      <point x="3" y="747" type="curve" smooth="yes"/>
      <point x="-20" y="747"/>
      <point x="-36" y="753"/>
      <point x="-47" y="760" type="curve" smooth="yes"/>
      <point x="-66" y="774"/>
      <point x="-68" y="794"/>
      <point x="-68" y="802" type="curve" smooth="yes"/>
      <point x="-68" y="818"/>
      <point x="-60" y="833"/>
      <point x="-55" y="840" type="curve"/>
      <point x="-61" y="846" type="line"/>
      <point x="-69" y="837"/>
      <point x="-74" y="827"/>
      <point x="-77" y="817" type="curve" smooth="yes"/>
      <point x="-83" y="799"/>
      <point x="-83" y="780"/>
      <point x="-83" y="776" type="curve" smooth="yes"/>
      <point x="-83" y="761"/>
      <point x="-79" y="738"/>
      <point x="-61" y="721" type="curve" smooth="yes"/>
      <point x="-49" y="709"/>
      <point x="-30" y="701"/>
      <point x="-2" y="701" type="curve" smooth="yes"/>
      <point x="23" y="701"/>
      <point x="45" y="708"/>
      <point x="61" y="721" type="curve" smooth="yes"/>
      <point x="77" y="734"/>
      <point x="88" y="756"/>
      <point x="88" y="781" type="curve" smooth="yes"/>
      <point x="88" y="804"/>
      <point x="78" y="826"/>
      <point x="78" y="826" type="curve"/>
      <point x="90" y="826" type="line"/>
    </contour>
    <contour>
      <point x="15" y="835"/>
      <point x="4" y="844"/>
      <point x="-5" y="849" type="curve"/>
      <point x="-10" y="843"/>
      <point x="-20" y="831"/>
      <point x="-26" y="825" type="curve"/>
      <point x="-18" y="820"/>
      <point x="-11" y="813"/>
      <point x="-1" y="803" type="curve"/>
      <point x="10" y="814"/>
      <point x="15" y="820"/>
      <point x="20" y="827" type="curve"/>
    </contour>
    <contour>
      <point x="4" y="866" type="move" name="top"/>
    </contour>
    <contour>
      <point x="4" y="681" type="move" name="_top"/>
    </contour>
  </outline>
</glyph>
<glyph name="uni06EA" format="1">
  <advance width="0"/>
  <unicode hex="06EA"/>
  <outline>
    <contour>
      <point x="63" y="-266" type="line"/>
      <point x="0" y="-203" type="line"/>
      <point x="-62" y="-266" type="line"/>
      <point x="0" y="-329" type="line"/>
    </contour>
    <contour>
      <point x="0" y="-234" type="line"/>
      <point x="33" y="-266" type="line"/>
      <point x="0" y="-299" type="line"/>
      <point x="-32" y="-266" type="line"/>
    </contour>
    <contour>
      <point x="0" y="-183" type="move" name="_bottom"/>
    </contour>
    <contour>
      <point x="0" y="-329" type="move" name="bottom"/>
    </contour>
  </outline>
</glyph>
<glyph name="uni06EB" format="1">
  <advance width="0"/>
  <unicode hex="06EB"/>
  <outline>
    <contour>
      <point x="63" y="762" type="line"/>
      <point x="0" y="825" type="line"/>
      <point x="-62" y="762" type="line"/>
      <point x="0" y="699" type="line"/>
    </contour>
    <contour>
      <point x="0" y="794" type="line"/>
      <point x="33" y="762" type="line"/>
      <point x="0" y="729" type="line"/>
      <point x="-32" y="762" type="line"/>
    </contour>
    <contour>
      <point x="1" y="825" type="move" name="top"/>
    </contour>
    <contour>
      <point x="1" y="679" type="move" name="_top"/>
    </contour>
  </outline>
</glyph>
<glyph name="uni06EC" format="1">
  <advance width="0"/>
  <unicode hex="06EC"/>
  <outline>
    <contour>
      <point x="26" y="700"/>
      <point x="47" y="721"/>
      <point x="47" y="746" type="curve" smooth="yes"/>
      <point x="47" y="771"/>
      <point x="26" y="792"/>
      <point x="0" y="792" type="curve" smooth="yes"/>
      <point x="-25" y="792"/>
      <point x="-46" y="771"/>
      <point x="-46" y="746" type="curve" smooth="yes"/>
      <point x="-46" y="721"/>
      <point x="-25" y="700"/>
      <point x="0" y="700" type="curve" smooth="yes"/>
    </contour>
    <contour>
      <point x="1" y="792" type="move" name="top"/>
    </contour>
    <contour>
      <point x="1" y="680" type="move" name="_top"/>
    </contour>
  </outline>
</glyph>
<glyph name="uni06ED" format="1">
  <advance width="0"/>
  <unicode hex="06ED"/>
  <outline>
    <contour>
      <point x="-78" y="-380"/>
      <point x="-73" y="-397"/>
      <point x="-68" y="-422" type="curve" smooth="yes"/>
      <point x="-62" y="-454"/>
      <point x="-53" y="-484"/>
      <point x="-55" y="-521" type="curve"/>
      <point x="-48" y="-518" type="line"/>
      <point x="-38" y="-496"/>
      <point x="-38" y="-483"/>
      <point x="-36" y="-472" type="curve" smooth="yes"/>
      <point x="-33" y="-450"/>
      <point x="-38" y="-421"/>
      <point x="-44" y="-393" type="curve" smooth="yes"/>
      <point x="-48" y="-369"/>
      <point x="-53" y="-352"/>
      <point x="-50" y="-333" type="curve"/>
      <point x="-42" y="-317"/>
      <point x="-14" y="-313"/>
      <point x="6" y="-312" type="curve"/>
      <point x="20" y="-312"/>
      <point x="49" y="-314"/>
      <point x="51" y="-312" type="curve"/>
      <point x="66" y="-311"/>
      <point x="73" y="-302"/>
      <point x="73" y="-287" type="curve" smooth="yes"/>
      <point x="74" y="-255" type="line" smooth="yes"/>
      <point x="74" y="-246"/>
      <point x="67" y="-238"/>
      <point x="58" y="-232" type="curve" smooth="yes"/>
      <point x="47" y="-225"/>
      <point x="34" y="-221"/>
      <point x="25" y="-218" type="curve"/>
      <point x="20" y="-217"/>
      <point x="15" y="-216"/>
      <point x="9" y="-216" type="curve" smooth="yes"/>
      <point x="1" y="-216"/>
      <point x="-4" y="-217"/>
      <point x="-8" y="-218" type="curve"/>
      <point x="-19" y="-222"/>
      <point x="-18" y="-229"/>
      <point x="-18" y="-236" type="curve" smooth="yes"/>
      <point x="-18" y="-276" type="line"/>
      <point x="-43" y="-282"/>
      <point x="-57" y="-305"/>
      <point x="-64" y="-323" type="curve" smooth="yes"/>
      <point x="-71" y="-338"/>
      <point x="-73" y="-350"/>
      <point x="-73" y="-350" type="curve"/>
    </contour>
    <contour>
      <point x="11" y="-248"/>
      <point x="38" y="-253"/>
      <point x="56" y="-272" type="curve"/>
      <point x="43" y="-269"/>
      <point x="22" y="-269"/>
      <point x="7" y="-271" type="curve"/>
      <point x="2" y="-266"/>
      <point x="-2" y="-258"/>
      <point x="-5" y="-253" type="curve"/>
    </contour>
    <contour>
      <point x="-1" y="-196" type="move" name="_bottom"/>
    </contour>
    <contour>
      <point x="-1" y="-521" type="move" name="bottom"/>
    </contour>
  </outline>
</glyph>
<glyph name="uni06F4" format="1">
  <advance width="461"/>
  <unicode hex="06F4"/>
  <outline>
    <contour>
      <point x="368" y="444"/>
      <point x="330" y="408"/>
      <point x="261" y="408" type="curve" smooth="yes"/>
      <point x="186" y="408"/>
      <point x="162" y="443"/>
      <point x="162" y="443" type="curve" smooth="yes"/>
      <point x="162" y="443"/>
      <point x="195" y="507"/>
      <point x="255" y="507" type="curve" smooth="yes"/>
      <point x="300" y="507"/>
      <point x="336" y="475"/>
      <point x="336" y="475" type="curve"/>
      <point x="360" y="506" type="line"/>
      <point x="360" y="506"/>
      <point x="346" y="539"/>
      <point x="315" y="562" type="curve" smooth="yes"/>
      <point x="298" y="574"/>
      <point x="275" y="583"/>
      <point x="247" y="583" type="curve" smooth="yes"/>
      <point x="201" y="583"/>
      <point x="159" y="546"/>
      <point x="142" y="506" type="curve"/>
      <point x="131" y="537"/>
      <point x="120" y="562"/>
      <point x="110" y="583" type="curve"/>
      <point x="110" y="583"/>
      <point x="82" y="527"/>
      <point x="73" y="508" type="curve" smooth="yes"/>
      <point x="64" y="490"/>
      <point x="52" y="471"/>
      <point x="68" y="422" type="curve" smooth="yes"/>
      <point x="84" y="375"/>
      <point x="105" y="328"/>
      <point x="124" y="252" type="curve" smooth="yes"/>
      <point x="139" y="192"/>
      <point x="153" y="112"/>
      <point x="162" y="0" type="curve"/>
      <point x="172" y="0" type="line"/>
      <point x="172" y="0"/>
      <point x="200" y="56"/>
      <point x="200" y="111" type="curve" smooth="yes"/>
      <point x="200" y="191"/>
      <point x="195" y="267"/>
      <point x="186" y="328" type="curve"/>
      <point x="200" y="323"/>
      <point x="226" y="316"/>
      <point x="257" y="316" type="curve" smooth="yes"/>
      <point x="288" y="316"/>
      <point x="319" y="321"/>
      <point x="353" y="346" type="curve"/>
      <point x="353" y="345"/>
      <point x="391" y="435"/>
      <point x="391" y="435" type="curve"/>
      <point x="368" y="444" type="line"/>
    </contour>
  </outline>
</glyph>
<glyph name="uni06F6" format="1">
  <advance width="464"/>
  <unicode hex="06F6"/>
  <outline>
    <contour>
      <point x="251" y="359"/>
      <point x="207" y="375"/>
      <point x="177" y="396" type="curve" smooth="yes"/>
      <point x="144" y="419"/>
      <point x="128" y="447"/>
      <point x="128" y="447" type="curve"/>
      <point x="135" y="456"/>
      <point x="166" y="493"/>
      <point x="221" y="493" type="curve" smooth="yes"/>
      <point x="275" y="493"/>
      <point x="320" y="455"/>
      <point x="320" y="455" type="curve"/>
      <point x="348" y="492" type="line"/>
      <point x="348" y="492"/>
      <point x="280" y="583"/>
      <point x="217" y="583" type="curve" smooth="yes"/>
      <point x="166" y="583"/>
      <point x="128" y="541"/>
      <point x="102" y="497" type="curve" smooth="yes"/>
      <point x="74" y="452"/>
      <point x="60" y="405"/>
      <point x="60" y="405" type="curve" smooth="yes"/>
      <point x="60" y="396"/>
      <point x="68" y="367"/>
      <point x="92" y="340" type="curve" smooth="yes"/>
      <point x="109" y="320"/>
      <point x="134" y="301"/>
      <point x="170" y="291" type="curve"/>
      <point x="140" y="253"/>
      <point x="113" y="204"/>
      <point x="98" y="167" type="curve" smooth="yes"/>
      <point x="67" y="92"/>
      <point x="63" y="32"/>
      <point x="63" y="32" type="curve"/>
      <point x="84" y="0" type="line"/>
      <point x="95" y="0" type="line"/>
      <point x="95" y="0"/>
      <point x="125" y="110"/>
      <point x="201" y="198" type="curve" smooth="yes"/>
      <point x="241" y="244"/>
      <point x="293" y="284"/>
      <point x="360" y="299" type="curve"/>
      <point x="394" y="394" type="line"/>
      <point x="359" y="385"/>
      <point x="331" y="378"/>
      <point x="307" y="372" type="curve" smooth="yes"/>
    </contour>
  </outline>
</glyph>
<glyph name="uni08AA" format="1">
  <advance width="455"/>
  <unicode hex="08AA"/>
  <outline>
    <contour>
      <point x="389" y="120"/>
      <point x="351" y="190"/>
      <point x="283" y="227" type="curve"/>
      <point x="251" y="146" type="line" smooth="yes"/>
      <point x="245" y="132"/>
      <point x="251" y="118"/>
      <point x="263" y="109" type="curve" smooth="yes"/>
      <point x="290" y="89"/>
      <point x="316" y="72"/>
      <point x="339" y="46" type="curve"/>
      <point x="333" y="-9"/>
      <point x="311" y="-40"/>
      <point x="282" y="-60" type="curve"/>
      <point x="260" y="-1"/>
      <point x="214" y="34"/>
      <point x="160" y="34" type="curve" smooth="yes"/>
      <point x="128" y="34"/>
      <point x="70" y="9"/>
      <point x="70" y="-66" type="curve" smooth="yes"/>
      <point x="70" y="-102"/>
      <point x="84" y="-140"/>
      <point x="108" y="-162" type="curve" smooth="yes"/>
      <point x="131" y="-183"/>
      <point x="164" y="-197"/>
      <point x="200" y="-197" type="curve" smooth="yes"/>
      <point x="224" y="-197"/>
      <point x="256" y="-190"/>
      <point x="280" y="-180" type="curve"/>
      <point x="283" y="-194"/>
      <point x="289" y="-223"/>
      <point x="289" y="-223" type="curve"/>
      <point x="320" y="-196" type="line"/>
      <point x="318" y="-187"/>
      <point x="315" y="-173"/>
      <point x="313" y="-161" type="curve"/>
      <point x="336" y="-145"/>
      <point x="354" y="-122"/>
      <point x="370" y="-87" type="curve" smooth="yes"/>
      <point x="390" y="-45"/>
      <point x="398" y="1"/>
      <point x="394" y="45" type="curve" smooth="yes"/>
    </contour>
    <contour>
      <point x="137" y="-95"/>
      <point x="106" y="-84"/>
      <point x="106" y="-49" type="curve" smooth="yes"/>
      <point x="106" y="-22"/>
      <point x="134" y="-8"/>
      <point x="159" y="-8" type="curve" smooth="yes"/>
      <point x="192" y="-8"/>
      <point x="227" y="-28"/>
      <point x="248" y="-79" type="curve"/>
      <point x="224" y="-91"/>
      <point x="198" y="-95"/>
      <point x="173" y="-95" type="curve" smooth="yes"/>
    </contour>
    <contour>
      <point x="243" y="257" type="move" name="top"/>
    </contour>
    <contour>
      <point x="220" y="-237" type="move" name="bottom"/>
    </contour>
  </outline>
</glyph>
<glyph name="uni08E9" format="1">
  <advance width="0"/>
  <unicode hex="08E9"/>
  <outline>
    <contour>
      <point x="-65" y="-493"/>
      <point x="-53" y="-505"/>
      <point x="-26" y="-519" type="curve"/>
      <point x="-20" y="-503" type="line"/>
      <point x="-35" y="-494"/>
      <point x="-41" y="-487"/>
      <point x="-41" y="-480" type="curve" smooth="yes"/>
      <point x="-41" y="-464"/>
      <point x="-11" y="-450"/>
      <point x="17" y="-429" type="curve" smooth="yes"/>
      <point x="41" y="-414"/>
      <point x="63" y="-391"/>
      <point x="63" y="-359" type="curve" smooth="yes"/>
      <point x="63" y="-339"/>
      <point x="53" y="-323"/>
      <point x="37" y="-312" type="curve"/>
      <point x="52" y="-297"/>
      <point x="63" y="-279"/>
      <point x="63" y="-257" type="curve" smooth="yes"/>
      <point x="63" y="-231"/>
      <point x="47" y="-212"/>
      <point x="25" y="-203" type="curve"/>
      <point x="18" y="-219" type="line"/>
      <point x="31" y="-229"/>
      <point x="37" y="-237"/>
      <point x="37" y="-245" type="curve" smooth="yes"/>
      <point x="37" y="-261"/>
      <point x="10" y="-273"/>
      <point x="-17" y="-291" type="curve" smooth="yes"/>
      <point x="-41" y="-307"/>
      <point x="-65" y="-327"/>
      <point x="-65" y="-362" type="curve" smooth="yes"/>
      <point x="-65" y="-386"/>
      <point x="-56" y="-398"/>
      <point x="-38" y="-410" type="curve"/>
      <point x="-54" y="-423"/>
      <point x="-65" y="-440"/>
      <point x="-65" y="-464" type="curve" smooth="yes"/>
    </contour>
    <contour>
      <point x="-49" y="-362"/>
      <point x="-13" y="-345"/>
      <point x="21" y="-320" type="curve" smooth="yes"/>
      <point x="27" y="-317" type="line"/>
      <point x="40" y="-327"/>
      <point x="45" y="-335"/>
      <point x="45" y="-344" type="curve" smooth="yes"/>
      <point x="45" y="-363"/>
      <point x="12" y="-378"/>
      <point x="-20" y="-399" type="curve" smooth="yes"/>
      <point x="-28" y="-405" type="line"/>
      <point x="-42" y="-397"/>
      <point x="-49" y="-389"/>
      <point x="-49" y="-381" type="curve" smooth="yes"/>
    </contour>
    <contour>
      <point x="-3" y="-183" type="move" name="_bottom"/>
    </contour>
    <contour>
      <point x="-3" y="-520" type="move" name="bottom"/>
    </contour>
  </outline>
</glyph>
<glyph name="uni08F1" format="1">
  <advance width="0"/>
  <unicode hex="08F1"/>
  <outline>
    <contour>
      <point x="81" y="773"/>
      <point x="80" y="789"/>
      <point x="68" y="795" type="curve" smooth="yes"/>
      <point x="58" y="800"/>
      <point x="48" y="795"/>
      <point x="44" y="791" type="curve"/>
      <point x="34" y="774" type="line"/>
      <point x="31" y="769"/>
      <point x="26" y="756"/>
      <point x="44" y="746" type="curve" smooth="yes"/>
      <point x="52" y="740" type="line"/>
      <point x="52" y="740"/>
      <point x="33" y="725"/>
      <point x="9" y="724" type="curve"/>
      <point x="-5" y="701" type="line"/>
      <point x="-1" y="699" type="line"/>
      <point x="25" y="703"/>
      <point x="52" y="714"/>
      <point x="65" y="735" type="curve"/>
      <point x="78" y="728" type="line"/>
      <point x="84" y="752" type="line"/>
      <point x="76" y="756" type="line"/>
    </contour>
    <contour>
      <point x="42" y="771"/>
      <point x="44" y="777"/>
      <point x="44" y="777" type="curve" smooth="yes"/>
      <point x="44" y="777"/>
      <point x="52" y="784"/>
      <point x="60" y="780" type="curve" smooth="yes"/>
      <point x="68" y="776"/>
      <point x="66" y="763"/>
      <point x="66" y="758" type="curve"/>
      <point x="49" y="768" type="line" smooth="yes"/>
    </contour>
    <contour>
      <point x="-1" y="773"/>
      <point x="-2" y="789"/>
      <point x="-14" y="795" type="curve" smooth="yes"/>
      <point x="-24" y="800"/>
      <point x="-34" y="795"/>
      <point x="-38" y="791" type="curve"/>
      <point x="-48" y="774" type="line"/>
      <point x="-51" y="769"/>
      <point x="-56" y="756"/>
      <point x="-38" y="746" type="curve" smooth="yes"/>
      <point x="-29" y="740" type="line"/>
      <point x="-29" y="740"/>
      <point x="-50" y="725"/>
      <point x="-72" y="724" type="curve"/>
      <point x="-87" y="701" type="line"/>
      <point x="-83" y="699" type="line"/>
      <point x="-58" y="703"/>
      <point x="-30" y="714"/>
      <point x="-16" y="735" type="curve"/>
      <point x="-3" y="728" type="line"/>
      <point x="2" y="752" type="line"/>
      <point x="-7" y="756" type="line"/>
    </contour>
    <contour>
      <point x="-40" y="771"/>
      <point x="-38" y="777"/>
      <point x="-38" y="777" type="curve" smooth="yes"/>
      <point x="-38" y="777"/>
      <point x="-30" y="784"/>
      <point x="-22" y="780" type="curve" smooth="yes"/>
      <point x="-14" y="776"/>
      <point x="-16" y="763"/>
      <point x="-16" y="758" type="curve"/>
      <point x="-33" y="768" type="line" smooth="yes"/>
    </contour>
    <contour>
      <point x="0" y="796" type="move" name="top"/>
    </contour>
    <contour>
      <point x="0" y="680" type="move" name="_top"/>
    </contour>
  </outline>
</glyph>
<glyph name="uni08F3" format="1">
  <advance width="0"/>
  <unicode hex="08F3"/>
  <outline>
    <contour>
      <point x="-14" y="698"/>
      <point x="3" y="701"/>
      <point x="20" y="713" type="curve" smooth="yes"/>
      <point x="29" y="719"/>
      <point x="37" y="728"/>
      <point x="44" y="742" type="curve"/>
      <point x="49" y="754"/>
      <point x="52" y="770"/>
      <point x="52" y="791" type="curve" smooth="yes"/>
      <point x="52" y="815"/>
      <point x="47" y="838"/>
      <point x="37" y="855" type="curve" smooth="yes"/>
      <point x="29" y="869"/>
      <point x="18" y="878"/>
      <point x="4" y="878" type="curve" smooth="yes"/>
      <point x="-16" y="878"/>
      <point x="-28" y="861"/>
      <point x="-29" y="849" type="curve" smooth="yes"/>
      <point x="-33" y="814" type="line"/>
      <point x="-33" y="808"/>
      <point x="-32" y="796"/>
      <point x="-23" y="788" type="curve"/>
      <point x="-17" y="782"/>
      <point x="-8" y="778"/>
      <point x="7" y="778" type="curve" smooth="yes"/>
      <point x="14" y="778" type="line"/>
      <point x="26" y="798" type="line"/>
      <point x="28" y="794"/>
      <point x="29" y="788"/>
      <point x="30" y="785" type="curve"/>
      <point x="25" y="768"/>
      <point x="15" y="757"/>
      <point x="4" y="750" type="curve"/>
      <point x="-14" y="740"/>
      <point x="-35" y="740"/>
      <point x="-48" y="739" type="curve"/>
      <point x="-48" y="698" type="line"/>
    </contour>
    <contour>
      <point x="-21" y="830"/>
      <point x="-14" y="844"/>
      <point x="2" y="845" type="curve" smooth="yes"/>
      <point x="17" y="846"/>
      <point x="24" y="826"/>
      <point x="28" y="818" type="curve"/>
      <point x="-4" y="818" type="line" smooth="yes"/>
      <point x="-20" y="818"/>
      <point x="-21" y="830"/>
      <point x="-21" y="830" type="curve" smooth="yes"/>
    </contour>
    <contour>
      <point x="0" y="879" type="move" name="top"/>
    </contour>
    <contour>
      <point x="0" y="680" type="move" name="_top"/>
    </contour>
  </outline>
</glyph>
<glyph name="uni08F6" format="1">
  <advance width="0"/>
  <unicode hex="08F6"/>
  <outline>
    <contour>
      <point x="-87" y="-305" type="line"/>
      <point x="-80" y="-310" type="line"/>
      <point x="60" y="-255" type="line"/>
      <point x="86" y="-205" type="line"/>
      <point x="-59" y="-262" type="line"/>
    </contour>
    <contour>
      <point x="-27" y="-364"/>
      <point x="-14" y="-375"/>
      <point x="1" y="-393" type="curve"/>
      <point x="22" y="-373"/>
      <point x="30" y="-363"/>
      <point x="39" y="-351" type="curve"/>
      <point x="30" y="-338"/>
      <point x="10" y="-321"/>
      <point x="-6" y="-312" type="curve"/>
      <point x="-14" y="-323"/>
      <point x="-31" y="-344"/>
      <point x="-42" y="-355" type="curve"/>
    </contour>
    <contour>
      <point x="-1" y="-185" type="move" name="_bottom"/>
    </contour>
    <contour>
      <point x="-1" y="-393" type="move" name="bottom"/>
    </contour>
  </outline>
</glyph>
<glyph name="uni25A1" format="1">
  <advance width="313"/>
  <unicode hex="25A1"/>
  <outline>
    <contour>
      <point x="283" y="303" type="line"/>
      <point x="30" y="303" type="line"/>
      <point x="30" y="50" type="line"/>
      <point x="283" y="50" type="line"/>
    </contour>
    <contour>
      <point x="86" y="248" type="line"/>
      <point x="228" y="248" type="line"/>
      <point x="228" y="106" type="line"/>
      <point x="86" y="106" type="line"/>
    </contour>
  </outline>
</glyph>
<glyph name="uni25EF" format="1">
  <advance width="312"/>
  <unicode hex="25EF"/>
  <outline>
    <contour>
      <point x="282" y="196"/>
      <point x="226" y="253"/>
      <point x="156" y="253" type="curve" smooth="yes"/>
      <point x="86" y="253"/>
      <point x="30" y="196"/>
      <point x="30" y="126" type="curve" smooth="yes"/>
      <point x="30" y="56"/>
      <point x="86" y="0"/>
      <point x="156" y="0" type="curve" smooth="yes"/>
      <point x="226" y="0"/>
      <point x="282" y="56"/>
      <point x="282" y="126" type="curve" smooth="yes"/>
    </contour>
  </outline>
</glyph>
<glyph name="uniFB8F" format="1">
  <advance width="975"/>
  <unicode hex="FB8F"/>
  <outline>
    <contour>
      <point x="890" y="106"/>
      <point x="871" y="107"/>
      <point x="853" y="114" type="curve" smooth="yes"/>
      <point x="812" y="128"/>
      <point x="788" y="166"/>
      <point x="766" y="200" type="curve" smooth="yes"/>
      <point x="742" y="238"/>
      <point x="720" y="274"/>
      <point x="687" y="318" type="curve" smooth="yes"/>
      <point x="655" y="361"/>
      <point x="634" y="382"/>
      <point x="607" y="404" type="curve"/>
      <point x="642" y="428"/>
      <point x="695" y="454"/>
      <point x="746" y="479" type="curve" smooth="yes"/>
      <point x="800" y="505"/>
      <point x="850" y="529"/>
      <point x="872" y="544" type="curve"/>
      <point x="897" y="657" type="line"/>
      <point x="853" y="628"/>
      <point x="801" y="602"/>
      <point x="748" y="576" type="curve" smooth="yes"/>
      <point x="707" y="556"/>
      <point x="666" y="536"/>
      <point x="628" y="514" type="curve" smooth="yes"/>
      <point x="596" y="496"/>
      <point x="557" y="473"/>
      <point x="552" y="435" type="curve" smooth="yes"/>
      <point x="549" y="415"/>
      <point x="549" y="397"/>
      <point x="549" y="365" type="curve" smooth="yes"/>
      <point x="549" y="305"/>
      <point x="555" y="289"/>
      <point x="599" y="255" type="curve"/>
      <point x="599" y="273" type="line"/>
      <point x="639" y="242"/>
      <point x="667" y="198"/>
      <point x="716" y="123" type="curve"/>
      <point x="635" y="93"/>
      <point x="482" y="85"/>
      <point x="393" y="85" type="curve" smooth="yes"/>
      <point x="306" y="85"/>
      <point x="244" y="94"/>
      <point x="201" y="110" type="curve" smooth="yes"/>
      <point x="140" y="134"/>
      <point x="118" y="172"/>
      <point x="118" y="220" type="curve" smooth="yes"/>
      <point x="118" y="255"/>
      <point x="134" y="293"/>
      <point x="142" y="306" type="curve"/>
      <point x="126" y="321" type="line"/>
      <point x="97" y="295"/>
      <point x="70" y="218"/>
      <point x="70" y="161" type="curve" smooth="yes"/>
      <point x="70" y="122"/>
      <point x="83" y="76"/>
      <point x="124" y="40" type="curve" smooth="yes"/>
      <point x="165" y="4"/>
      <point x="235" y="-23"/>
      <point x="350" y="-23" type="curve" smooth="yes"/>
      <point x="448" y="-23"/>
      <point x="521" y="-19"/>
      <point x="579" y="-10" type="curve" smooth="yes"/>
      <point x="666" y="5"/>
      <point x="717" y="31"/>
      <point x="761" y="73" type="curve"/>
      <point x="783" y="42"/>
      <point x="825" y="0"/>
      <point x="903" y="0" type="curve" smooth="yes"/>
      <point x="975" y="0" type="line"/>
      <point x="975" y="106" type="line"/>
      <point x="910" y="106" type="line" smooth="yes"/>
    </contour>
    <contour>
      <point x="651" y="590" type="move" name="top"/>
    </contour>
    <contour>
      <point x="426" y="-64" type="move" name="bottom"/>
    </contour>
  </outline>
</glyph>
<glyph name="uniFB9F" format="1">
  <advance width="615"/>
  <unicode hex="FB9F"/>
  <outline>
    <contour>
      <point x="507" y="106" type="line"/>
      <point x="480" y="107"/>
      <point x="460" y="114"/>
      <point x="447" y="122" type="curve" smooth="yes"/>
      <point x="429" y="132"/>
      <point x="415" y="155"/>
      <point x="406" y="177" type="curve"/>
      <point x="390" y="162" type="line"/>
      <point x="390" y="162"/>
      <point x="386" y="149"/>
      <point x="386" y="129" type="curve" smooth="yes"/>
      <point x="386" y="104"/>
      <point x="393" y="69"/>
      <point x="421" y="33" type="curve" smooth="yes"/>
      <point x="435" y="16"/>
      <point x="462" y="-17"/>
      <point x="469" y="-25" type="curve"/>
      <point x="463" y="-41"/>
      <point x="442" y="-86"/>
      <point x="374" y="-108" type="curve" smooth="yes"/>
      <point x="351" y="-116"/>
      <point x="323" y="-120"/>
      <point x="287" y="-120" type="curve" smooth="yes"/>
      <point x="229" y="-120"/>
      <point x="190" y="-106"/>
      <point x="164" y="-87" type="curve" smooth="yes"/>
      <point x="117" y="-52"/>
      <point x="110" y="-9"/>
      <point x="110" y="8" type="curve" smooth="yes"/>
      <point x="110" y="65"/>
      <point x="129" y="95"/>
      <point x="143" y="115" type="curve"/>
      <point x="127" y="131" type="line"/>
      <point x="107" y="107"/>
      <point x="95" y="83"/>
      <point x="87" y="57" type="curve" smooth="yes"/>
      <point x="70" y="7"/>
      <point x="70" y="-39"/>
      <point x="70" y="-52" type="curve" smooth="yes"/>
      <point x="70" y="-83"/>
      <point x="80" y="-144"/>
      <point x="127" y="-188" type="curve" smooth="yes"/>
      <point x="158" y="-217"/>
      <point x="205" y="-238"/>
      <point x="277" y="-238" type="curve" smooth="yes"/>
      <point x="335" y="-238"/>
      <point x="395" y="-223"/>
      <point x="439" y="-185" type="curve" smooth="yes"/>
      <point x="477" y="-152"/>
      <point x="502" y="-103"/>
      <point x="503" y="-33" type="curve" smooth="yes"/>
      <point x="503" y="-22"/>
      <point x="503" y="-11"/>
      <point x="502" y="0" type="curve"/>
      <point x="615" y="0" type="line"/>
      <point x="615" y="106" type="line"/>
    </contour>
    <contour>
      <point x="261" y="-21" type="move" name="top"/>
    </contour>
    <contour>
      <point x="277" y="-258" type="move" name="bottom"/>
    </contour>
  </outline>
</glyph>
<glyph name="uniFBA9" format="1">
  <advance width="443"/>
  <unicode hex="FBA9"/>
  <outline>
    <contour>
      <point x="325" y="106"/>
      <point x="277" y="89"/>
      <point x="245" y="56" type="curve" smooth="yes"/>
      <point x="221" y="30"/>
      <point x="207" y="-5"/>
      <point x="207" y="-49" type="curve"/>
      <point x="183" y="-19"/>
      <point x="177" y="16"/>
      <point x="183" y="47" type="curve" smooth="yes"/>
      <point x="189" y="80"/>
      <point x="207" y="109"/>
      <point x="230" y="125" type="curve"/>
      <point x="230" y="215" type="line"/>
      <point x="201" y="169"/>
      <point x="166" y="142"/>
      <point x="128" y="126" type="curve" smooth="yes"/>
      <point x="89" y="110"/>
      <point x="46" y="107"/>
      <point x="4" y="106" type="curve" smooth="yes"/>
      <point x="-17" y="106" type="line" smooth="yes"/>
      <point x="-46" y="106"/>
      <point x="-70" y="82"/>
      <point x="-70" y="53" type="curve" smooth="yes"/>
      <point x="-70" y="24"/>
      <point x="-46" y="0"/>
      <point x="-17" y="0" type="curve" smooth="yes"/>
      <point x="21" y="0" type="line" smooth="yes"/>
      <point x="66" y="0"/>
      <point x="104" y="4"/>
      <point x="139" y="23" type="curve"/>
      <point x="132" y="-32"/>
      <point x="142" y="-78"/>
      <point x="165" y="-116" type="curve" smooth="yes"/>
      <point x="188" y="-152"/>
      <point x="222" y="-180"/>
      <point x="268" y="-199" type="curve"/>
      <point x="268" y="-94" type="line"/>
      <point x="257" y="-87"/>
      <point x="246" y="-80"/>
      <point x="236" y="-73" type="curve"/>
      <point x="239" y="-45"/>
      <point x="249" y="-27"/>
      <point x="267" y="-17" type="curve" smooth="yes"/>
      <point x="290" y="-2"/>
      <point x="326" y="0"/>
      <point x="374" y="0" type="curve" smooth="yes"/>
      <point x="443" y="0" type="line"/>
      <point x="443" y="106" type="line"/>
      <point x="383" y="106" type="line" smooth="yes"/>
    </contour>
    <contour>
      <point x="230" y="245" type="move" name="top"/>
    </contour>
    <contour>
      <point x="218" y="-294" type="move" name="bottom"/>
    </contour>
  </outline>
</glyph>
<glyph name="uniFBB8" format="1">
  <advance width="0"/>
  <unicode hex="FBB8"/>
  <outline>
    <contour>
      <point x="-96" y="849"/>
      <point x="-78" y="832"/>
      <point x="-53" y="807" type="curve"/>
      <point x="-33" y="827"/>
      <point x="-22" y="840"/>
      <point x="-12" y="853" type="curve"/>
      <point x="4" y="841"/>
      <point x="20" y="827"/>
      <point x="39" y="807" type="curve"/>
      <point x="67" y="834"/>
      <point x="79" y="850"/>
      <point x="92" y="868" type="curve"/>
      <point x="80" y="887"/>
      <point x="52" y="911"/>
      <point x="28" y="923" type="curve"/>
      <point x="20" y="911"/>
      <point x="5" y="894"/>
      <point x="-9" y="879" type="curve"/>
      <point x="-23" y="895"/>
      <point x="-45" y="913"/>
      <point x="-64" y="923" type="curve"/>
      <point x="-77" y="906"/>
      <point x="-102" y="878"/>
      <point x="-117" y="861" type="curve"/>
    </contour>
    <contour>
      <point x="-43" y="742"/>
      <point x="-24" y="725"/>
      <point x="0" y="700" type="curve"/>
      <point x="28" y="728"/>
      <point x="40" y="743"/>
      <point x="53" y="761" type="curve"/>
      <point x="41" y="780"/>
      <point x="12" y="804"/>
      <point x="-11" y="817" type="curve"/>
      <point x="-23" y="800"/>
      <point x="-49" y="771"/>
      <point x="-64" y="754" type="curve"/>
    </contour>
    <contour>
      <point x="-13" y="943" type="move" name="top"/>
    </contour>
    <contour>
      <point x="-13" y="680" type="move" name="_top"/>
    </contour>
  </outline>
</glyph>
<glyph name="uniFBB9" format="1">
  <advance width="0"/>
  <unicode hex="FBB9"/>
  <outline>
    <contour>
      <point x="-85" y="-159"/>
      <point x="-67" y="-176"/>
      <point x="-42" y="-201" type="curve"/>
      <point x="-22" y="-181"/>
      <point x="-11" y="-168"/>
      <point x="-1" y="-155" type="curve"/>
      <point x="15" y="-167"/>
      <point x="31" y="-181"/>
      <point x="50" y="-201" type="curve"/>
      <point x="78" y="-174"/>
      <point x="90" y="-158"/>
      <point x="103" y="-140" type="curve"/>
      <point x="91" y="-121"/>
      <point x="63" y="-97"/>
      <point x="39" y="-85" type="curve"/>
      <point x="31" y="-97"/>
      <point x="16" y="-114"/>
      <point x="2" y="-129" type="curve"/>
      <point x="-12" y="-113"/>
      <point x="-34" y="-95"/>
      <point x="-53" y="-85" type="curve"/>
      <point x="-66" y="-102"/>
      <point x="-91" y="-130"/>
      <point x="-106" y="-147" type="curve"/>
    </contour>
    <contour>
      <point x="-32" y="-266"/>
      <point x="-13" y="-283"/>
      <point x="11" y="-308" type="curve"/>
      <point x="39" y="-280"/>
      <point x="51" y="-265"/>
      <point x="64" y="-247" type="curve"/>
      <point x="52" y="-228"/>
      <point x="23" y="-204"/>
      <point x="0" y="-191" type="curve"/>
      <point x="-12" y="-208"/>
      <point x="-38" y="-237"/>
      <point x="-53" y="-254" type="curve"/>
    </contour>
    <contour>
      <point x="-2" y="-65" type="move" name="_bottom"/>
    </contour>
    <contour>
      <point x="-2" y="-328" type="move" name="bottom"/>
    </contour>
  </outline>
</glyph>
<glyph name="uniFBBA" format="1">
  <advance width="0"/>
  <unicode hex="FBBA"/>
  <outline>
    <contour>
      <point x="-85" y="742"/>
      <point x="-66" y="725"/>
      <point x="-42" y="700" type="curve"/>
      <point x="-22" y="720"/>
      <point x="-10" y="733"/>
      <point x="0" y="746" type="curve"/>
      <point x="16" y="735"/>
      <point x="32" y="720"/>
      <point x="51" y="700" type="curve"/>
      <point x="79" y="727"/>
      <point x="91" y="743"/>
      <point x="104" y="761" type="curve"/>
      <point x="94" y="776"/>
      <point x="74" y="795"/>
      <point x="54" y="807" type="curve"/>
      <point x="80" y="832"/>
      <point x="92" y="848"/>
      <point x="104" y="865" type="curve"/>
      <point x="92" y="884"/>
      <point x="63" y="908"/>
      <point x="40" y="920" type="curve"/>
      <point x="3" y="876" type="line"/>
      <point x="-11" y="892"/>
      <point x="-34" y="910"/>
      <point x="-53" y="920" type="curve"/>
      <point x="-66" y="904"/>
      <point x="-91" y="875"/>
      <point x="-106" y="858" type="curve"/>
      <point x="-88" y="848"/>
      <point x="-72" y="834"/>
      <point x="-53" y="816" type="curve"/>
      <point x="-66" y="799"/>
      <point x="-91" y="771"/>
      <point x="-106" y="754" type="curve"/>
    </contour>
    <contour>
      <point x="-21" y="826"/>
      <point x="-9" y="838"/>
      <point x="0" y="850" type="curve"/>
      <point x="13" y="841"/>
      <point x="25" y="830"/>
      <point x="40" y="816" type="curve"/>
      <point x="3" y="772" type="line"/>
      <point x="-8" y="784"/>
      <point x="-23" y="797"/>
      <point x="-39" y="807" type="curve"/>
    </contour>
    <contour>
      <point x="-1" y="940" type="move" name="top"/>
    </contour>
    <contour>
      <point x="-1" y="680" type="move" name="_top"/>
    </contour>
  </outline>
</glyph>
<glyph name="uniFBBE" format="1">
  <advance width="0"/>
  <unicode hex="FBBE"/>
  <outline>
    <contour>
      <point x="39" y="-174"/>
      <point x="51" y="-159"/>
      <point x="63" y="-141" type="curve"/>
      <point x="51" y="-123"/>
      <point x="22" y="-99"/>
      <point x="-1" y="-86" type="curve"/>
      <point x="-13" y="-103"/>
      <point x="-38" y="-132"/>
      <point x="-54" y="-148" type="curve"/>
      <point x="-36" y="-159"/>
      <point x="-20" y="-172"/>
      <point x="-1" y="-191" type="curve"/>
      <point x="-14" y="-208"/>
      <point x="-39" y="-236"/>
      <point x="-54" y="-252" type="curve"/>
      <point x="-33" y="-264"/>
      <point x="-14" y="-281"/>
      <point x="10" y="-306" type="curve"/>
      <point x="38" y="-279"/>
      <point x="50" y="-263"/>
      <point x="63" y="-245" type="curve"/>
      <point x="53" y="-230"/>
      <point x="33" y="-212"/>
      <point x="14" y="-199" type="curve"/>
    </contour>
    <contour>
      <point x="5" y="-66" type="move" name="_bottom"/>
    </contour>
    <contour>
      <point x="5" y="-326" type="move" name="bottom"/>
    </contour>
  </outline>
</glyph>
<glyph name="uniFBBF" format="1">
  <advance width="0"/>
  <unicode hex="FBBF"/>
  <outline>
    <contour>
      <point x="48" y="-216"/>
      <point x="24" y="-201"/>
      <point x="0" y="-201" type="curve" smooth="yes"/>
      <point x="-23" y="-201"/>
      <point x="-48" y="-216"/>
      <point x="-48" y="-251" type="curve" smooth="yes"/>
      <point x="-48" y="-262"/>
      <point x="-48" y="-274"/>
      <point x="-48" y="-283" type="curve" smooth="yes"/>
      <point x="-48" y="-315"/>
      <point x="-21" y="-330"/>
      <point x="0" y="-330" type="curve" smooth="yes"/>
      <point x="21" y="-330"/>
      <point x="48" y="-315"/>
      <point x="48" y="-283" type="curve" smooth="yes"/>
      <point x="48" y="-274"/>
      <point x="48" y="-262"/>
      <point x="48" y="-251" type="curve" smooth="yes"/>
    </contour>
    <contour>
      <point x="-14" y="-286"/>
      <point x="-27" y="-280"/>
      <point x="-34" y="-269" type="curve"/>
      <point x="-34" y="-243"/>
      <point x="-18" y="-233"/>
      <point x="0" y="-233" type="curve" smooth="yes"/>
      <point x="18" y="-233"/>
      <point x="34" y="-243"/>
      <point x="34" y="-269" type="curve"/>
      <point x="27" y="-280"/>
      <point x="14" y="-286"/>
      <point x="0" y="-286" type="curve" smooth="yes"/>
    </contour>
    <contour>
      <point x="0" y="-181" type="move" name="_bottom"/>
    </contour>
    <contour>
      <point x="0" y="-330" type="move" name="bottom"/>
    </contour>
  </outline>
</glyph>
<glyph name="uniFBC1" format="1">
  <advance width="0"/>
  <unicode hex="FBC1"/>
  <outline>
    <contour>
      <point x="-67" y="-419" type="line"/>
      <point x="4" y="-418" type="line"/>
      <point x="30" y="-418"/>
      <point x="47" y="-413"/>
      <point x="58" y="-405" type="curve"/>
      <point x="68" y="-399"/>
      <point x="75" y="-392"/>
      <point x="80" y="-384" type="curve"/>
      <point x="87" y="-374"/>
      <point x="88" y="-364"/>
      <point x="90" y="-360" type="curve"/>
      <point x="86" y="-350"/>
      <point x="82" y="-343"/>
      <point x="77" y="-337" type="curve" smooth="yes"/>
      <point x="69" y="-329"/>
      <point x="58" y="-324"/>
      <point x="46" y="-324" type="curve" smooth="yes"/>
      <point x="28" y="-324"/>
      <point x="13" y="-334"/>
      <point x="-2" y="-347" type="curve"/>
      <point x="3" y="-332"/>
      <point x="4" y="-315"/>
      <point x="2" y="-298" type="curve" smooth="yes"/>
      <point x="0" y="-282"/>
      <point x="-4" y="-266"/>
      <point x="-7" y="-253" type="curve"/>
      <point x="-10" y="-242"/>
      <point x="-8" y="-237"/>
      <point x="-1" y="-232" type="curve"/>
      <point x="-10" y="-225"/>
      <point x="-17" y="-216"/>
      <point x="-22" y="-204" type="curve"/>
      <point x="-32" y="-204"/>
      <point x="-37" y="-214"/>
      <point x="-38" y="-219" type="curve"/>
      <point x="-41" y="-227"/>
      <point x="-40" y="-237"/>
      <point x="-40" y="-237" type="curve"/>
      <point x="-35" y="-242" type="line"/>
      <point x="-27" y="-259"/>
      <point x="-23" y="-277"/>
      <point x="-20" y="-296" type="curve" smooth="yes"/>
      <point x="-17" y="-316"/>
      <point x="-16" y="-338"/>
      <point x="-16" y="-363" type="curve"/>
      <point x="-22" y="-369"/>
      <point x="-27" y="-377"/>
      <point x="-31" y="-383" type="curve"/>
      <point x="-31" y="-383"/>
      <point x="-46" y="-384"/>
      <point x="-53" y="-384" type="curve" smooth="yes"/>
      <point x="-66" y="-384"/>
      <point x="-89" y="-382"/>
      <point x="-89" y="-382" type="curve"/>
    </contour>
    <contour>
      <point x="-22" y="-387"/>
      <point x="-14" y="-376"/>
      <point x="-2" y="-366" type="curve" smooth="yes"/>
      <point x="9" y="-357"/>
      <point x="26" y="-349"/>
      <point x="43" y="-349" type="curve" smooth="yes"/>
      <point x="53" y="-349"/>
      <point x="61" y="-351"/>
      <point x="67" y="-357" type="curve"/>
      <point x="71" y="-359"/>
      <point x="73" y="-364"/>
      <point x="77" y="-369" type="curve"/>
      <point x="62" y="-382"/>
      <point x="43" y="-387"/>
      <point x="13" y="-387" type="curve" smooth="yes"/>
      <point x="-22" y="-387" type="line" smooth="yes"/>
    </contour>
    <contour>
      <point x="1" y="-184" type="move" name="_bottom"/>
    </contour>
    <contour>
      <point x="1" y="-419" type="move" name="bottom"/>
    </contour>
  </outline>
</glyph>
<glyph name="uniFC18" format="1">
  <advance width="709"/>
  <unicode hex="FC18"/>
  <outline>
    <contour>
      <point x="517" y="216"/>
      <point x="482" y="229"/>
      <point x="445" y="248" type="curve" smooth="yes"/>
      <point x="409" y="267"/>
      <point x="353" y="304"/>
      <point x="315" y="304" type="curve" smooth="yes"/>
      <point x="291" y="304"/>
      <point x="250" y="297"/>
      <point x="239" y="284" type="curve" smooth="yes"/>
      <point x="215" y="254"/>
      <point x="205" y="232"/>
      <point x="205" y="232" type="curve" smooth="yes"/>
      <point x="205" y="232"/>
      <point x="244" y="221"/>
      <point x="257" y="178" type="curve"/>
      <point x="272" y="183" type="line"/>
      <point x="272" y="206" type="line"/>
      <point x="278" y="212"/>
      <point x="288" y="217"/>
      <point x="303" y="211" type="curve" smooth="yes"/>
      <point x="363" y="187"/>
      <point x="406" y="172"/>
      <point x="422" y="166" type="curve"/>
      <point x="378" y="166"/>
      <point x="334" y="158"/>
      <point x="293" y="142" type="curve" smooth="yes"/>
      <point x="265" y="131"/>
      <point x="238" y="116"/>
      <point x="212" y="97" type="curve"/>
      <point x="204" y="74"/>
      <point x="203" y="52"/>
      <point x="204" y="28" type="curve"/>
      <point x="165" y="17"/>
      <point x="137" y="-11"/>
      <point x="117" y="-42" type="curve" smooth="yes"/>
      <point x="82" y="-96"/>
      <point x="73" y="-152"/>
      <point x="72" y="-158" type="curve"/>
      <point x="65" y="-205"/>
      <point x="76" y="-257"/>
      <point x="87" y="-313" type="curve" smooth="yes"/>
      <point x="102" y="-390"/>
      <point x="120" y="-463"/>
      <point x="115" y="-541" type="curve"/>
      <point x="132" y="-533" type="line"/>
      <point x="159" y="-479"/>
      <point x="162" y="-445"/>
      <point x="165" y="-417" type="curve" smooth="yes"/>
      <point x="169" y="-374"/>
      <point x="163" y="-319"/>
      <point x="155" y="-277" type="curve" smooth="yes"/>
      <point x="142" y="-213"/>
      <point x="124" y="-155"/>
      <point x="129" y="-114" type="curve"/>
      <point x="146" y="-83"/>
      <point x="189" y="-63"/>
      <point x="236" y="-63" type="curve" smooth="yes"/>
      <point x="277" y="-63"/>
      <point x="319" y="-79"/>
      <point x="348" y="-101" type="curve"/>
      <point x="366" y="7" type="line"/>
      <point x="354" y="31"/>
      <point x="331" y="49"/>
      <point x="301" y="67" type="curve"/>
      <point x="341" y="88"/>
      <point x="391" y="99"/>
      <point x="444" y="104" type="curve" smooth="yes"/>
      <point x="491" y="109"/>
      <point x="539" y="108"/>
      <point x="584" y="105" type="curve"/>
      <point x="649" y="182" type="line"/>
      <point x="616" y="188"/>
      <point x="586" y="195"/>
      <point x="560" y="203" type="curve" smooth="yes"/>
    </contour>
    <contour>
      <point x="355" y="0" type="move" name="caret_1"/>
    </contour>
    <contour>
      <point x="501" y="46" type="move" name="bottom_1"/>
    </contour>
    <contour>
      <point x="315" y="334" type="move" name="top_1"/>
    </contour>
    <contour>
      <point x="87" y="38" type="move" name="top_2"/>
    </contour>
    <contour>
      <point x="124" y="-567" type="move" name="bottom_2"/>
    </contour>
  </outline>
</glyph>
<glyph name="uniFC1F" format="1">
  <advance width="838"/>
  <unicode hex="FC1F"/>
  <outline>
    <contour>
      <point x="777" y="276"/>
      <point x="767" y="319"/>
      <point x="748" y="337" type="curve"/>
      <point x="695" y="268" type="line"/>
      <point x="704" y="241"/>
      <point x="713" y="209"/>
      <point x="712" y="185" type="curve"/>
      <point x="712" y="185"/>
      <point x="668" y="180"/>
      <point x="640" y="195" type="curve" smooth="yes"/>
      <point x="604" y="215"/>
      <point x="599" y="255"/>
      <point x="598" y="277" type="curve"/>
      <point x="583" y="284" type="line"/>
      <point x="581" y="260"/>
      <point x="575" y="237"/>
      <point x="564" y="219" type="curve" smooth="yes"/>
      <point x="550" y="196"/>
      <point x="527" y="181"/>
      <point x="497" y="181" type="curve" smooth="yes"/>
      <point x="472" y="181"/>
      <point x="456" y="185"/>
      <point x="442" y="195" type="curve"/>
      <point x="428" y="206"/>
      <point x="417" y="223"/>
      <point x="401" y="249" type="curve"/>
      <point x="388" y="272"/>
      <point x="372" y="291"/>
      <point x="340" y="291" type="curve" smooth="yes"/>
      <point x="307" y="291"/>
      <point x="274" y="265"/>
      <point x="249" y="231" type="curve" smooth="yes"/>
      <point x="233" y="210"/>
      <point x="220" y="186"/>
      <point x="213" y="164" type="curve" smooth="yes"/>
      <point x="207" y="143"/>
      <point x="204" y="122"/>
      <point x="205" y="98" type="curve"/>
      <point x="166" y="87"/>
      <point x="138" y="59"/>
      <point x="118" y="28" type="curve" smooth="yes"/>
      <point x="83" y="-26"/>
      <point x="74" y="-81"/>
      <point x="73" y="-88" type="curve"/>
      <point x="66" y="-135"/>
      <point x="76" y="-187"/>
      <point x="88" y="-243" type="curve" smooth="yes"/>
      <point x="103" y="-310"/>
      <point x="121" y="-383"/>
      <point x="116" y="-461" type="curve"/>
      <point x="133" y="-453" type="line"/>
      <point x="160" y="-399"/>
      <point x="163" y="-365"/>
      <point x="166" y="-337" type="curve" smooth="yes"/>
      <point x="170" y="-294"/>
      <point x="164" y="-249"/>
      <point x="156" y="-207" type="curve" smooth="yes"/>
      <point x="143" y="-143"/>
      <point x="125" y="-85"/>
      <point x="130" y="-44" type="curve"/>
      <point x="147" y="-13"/>
      <point x="190" y="7"/>
      <point x="237" y="7" type="curve" smooth="yes"/>
      <point x="278" y="7"/>
      <point x="320" y="-9"/>
      <point x="349" y="-31" type="curve"/>
      <point x="366" y="78" type="line"/>
      <point x="350" y="110"/>
      <point x="316" y="135"/>
      <point x="271" y="155" type="curve"/>
      <point x="281" y="173"/>
      <point x="301" y="196"/>
      <point x="330" y="196" type="curve" smooth="yes"/>
      <point x="378" y="196"/>
      <point x="394" y="163"/>
      <point x="412" y="131" type="curve" smooth="yes"/>
      <point x="429" y="102"/>
      <point x="455" y="75"/>
      <point x="505" y="75" type="curve" smooth="yes"/>
      <point x="528" y="75"/>
      <point x="549" y="83"/>
      <point x="564" y="97" type="curve" smooth="yes"/>
      <point x="577" y="110"/>
      <point x="587" y="126"/>
      <point x="590" y="145" type="curve"/>
      <point x="597" y="130"/>
      <point x="607" y="111"/>
      <point x="626" y="96" type="curve"/>
      <point x="641" y="85"/>
      <point x="663" y="76"/>
      <point x="694" y="76" type="curve" smooth="yes"/>
      <point x="708" y="76"/>
      <point x="725" y="95"/>
      <point x="740" y="117" type="curve" smooth="yes"/>
      <point x="756" y="139"/>
      <point x="769" y="164"/>
      <point x="771" y="171" type="curve" smooth="yes"/>
      <point x="776" y="189"/>
      <point x="779" y="211"/>
      <point x="778" y="234" type="curve" smooth="yes"/>
    </contour>
    <contour>
      <point x="419" y="70" type="move" name="caret_1"/>
    </contour>
    <contour>
      <point x="581" y="35" type="move" name="bottom_1"/>
    </contour>
    <contour>
      <point x="583" y="324" type="move" name="top_1"/>
    </contour>
    <contour>
      <point x="281" y="334" type="move" name="top_2"/>
    </contour>
    <contour>
      <point x="125" y="-488" type="move" name="bottom_2"/>
    </contour>
  </outline>
</glyph>
<glyph name="uniFC21" format="1">
  <advance width="897"/>
  <unicode hex="FC21"/>
  <outline>
    <contour>
      <point x="772" y="341"/>
      <point x="742" y="353"/>
      <point x="702" y="353" type="curve" smooth="yes"/>
      <point x="649" y="353"/>
      <point x="594" y="317"/>
      <point x="550" y="274" type="curve" smooth="yes"/>
      <point x="518" y="243"/>
      <point x="491" y="207"/>
      <point x="473" y="178" type="curve"/>
      <point x="433" y="186"/>
      <point x="419" y="223"/>
      <point x="401" y="252" type="curve"/>
      <point x="388" y="275"/>
      <point x="372" y="294"/>
      <point x="340" y="294" type="curve" smooth="yes"/>
      <point x="313" y="294"/>
      <point x="287" y="279"/>
      <point x="265" y="256" type="curve" smooth="yes"/>
      <point x="241" y="232"/>
      <point x="222" y="195"/>
      <point x="212" y="159" type="curve" smooth="yes"/>
      <point x="207" y="139"/>
      <point x="204" y="118"/>
      <point x="205" y="98" type="curve"/>
      <point x="166" y="87"/>
      <point x="138" y="59"/>
      <point x="118" y="28" type="curve" smooth="yes"/>
      <point x="83" y="-26"/>
      <point x="74" y="-81"/>
      <point x="73" y="-88" type="curve" smooth="yes"/>
      <point x="66" y="-135"/>
      <point x="76" y="-187"/>
      <point x="88" y="-243" type="curve" smooth="yes"/>
      <point x="103" y="-310"/>
      <point x="121" y="-393"/>
      <point x="116" y="-471" type="curve"/>
      <point x="133" y="-463" type="line"/>
      <point x="160" y="-409"/>
      <point x="163" y="-365"/>
      <point x="166" y="-337" type="curve" smooth="yes"/>
      <point x="170" y="-294"/>
      <point x="164" y="-249"/>
      <point x="156" y="-207" type="curve" smooth="yes"/>
      <point x="143" y="-143"/>
      <point x="125" y="-85"/>
      <point x="130" y="-44" type="curve"/>
      <point x="147" y="-13"/>
      <point x="190" y="7"/>
      <point x="237" y="7" type="curve" smooth="yes"/>
      <point x="278" y="7"/>
      <point x="319" y="-10"/>
      <point x="348" y="-32" type="curve"/>
      <point x="366" y="79" type="line"/>
      <point x="350" y="111"/>
      <point x="316" y="136"/>
      <point x="271" y="155" type="curve"/>
      <point x="288" y="178"/>
      <point x="310" y="196"/>
      <point x="330" y="196" type="curve"/>
      <point x="380" y="196"/>
      <point x="391" y="153"/>
      <point x="425" y="115" type="curve" smooth="yes"/>
      <point x="452" y="86"/>
      <point x="491" y="60"/>
      <point x="573" y="60" type="curve" smooth="yes"/>
      <point x="660" y="60"/>
      <point x="724" y="88"/>
      <point x="765" y="123" type="curve" smooth="yes"/>
      <point x="805" y="157"/>
      <point x="821" y="189"/>
      <point x="837" y="246" type="curve"/>
      <point x="826" y="276"/>
      <point x="813" y="301"/>
      <point x="795" y="319" type="curve" smooth="yes"/>
    </contour>
    <contour>
      <point x="684" y="178"/>
      <point x="649" y="172"/>
      <point x="600" y="172" type="curve" smooth="yes"/>
      <point x="516" y="172" type="line" smooth="yes"/>
      <point x="516" y="172"/>
      <point x="533" y="202"/>
      <point x="565" y="226" type="curve"/>
      <point x="592" y="248"/>
      <point x="631" y="269"/>
      <point x="678" y="269" type="curve" smooth="yes"/>
      <point x="705" y="269"/>
      <point x="724" y="260"/>
      <point x="738" y="249" type="curve" smooth="yes"/>
      <point x="757" y="235"/>
      <point x="764" y="217"/>
      <point x="764" y="217" type="curve"/>
      <point x="761" y="214"/>
      <point x="749" y="197"/>
      <point x="708" y="185" type="curve" smooth="yes"/>
    </contour>
    <contour>
      <point x="449" y="0" type="move" name="caret_1"/>
    </contour>
    <contour>
      <point x="577" y="26" type="move" name="bottom_1"/>
    </contour>
    <contour>
      <point x="682" y="383" type="move" name="top_1"/>
    </contour>
    <contour>
      <point x="303" y="320" type="move" name="top_2"/>
    </contour>
    <contour>
      <point x="124" y="-497" type="move" name="bottom_2"/>
    </contour>
  </outline>
</glyph>
<glyph name="uniFC2A" format="1">
  <advance width="655"/>
  <unicode hex="FC2A"/>
  <outline>
    <contour>
      <point x="66" y="-205"/>
      <point x="76" y="-257"/>
      <point x="88" y="-313" type="curve" smooth="yes"/>
      <point x="103" y="-380"/>
      <point x="121" y="-463"/>
      <point x="116" y="-541" type="curve"/>
      <point x="133" y="-533" type="line"/>
      <point x="160" y="-479"/>
      <point x="163" y="-435"/>
      <point x="166" y="-407" type="curve" smooth="yes"/>
      <point x="170" y="-364"/>
      <point x="164" y="-319"/>
      <point x="156" y="-277" type="curve" smooth="yes"/>
      <point x="143" y="-213"/>
      <point x="125" y="-155"/>
      <point x="130" y="-114" type="curve"/>
      <point x="147" y="-83"/>
      <point x="190" y="-63"/>
      <point x="237" y="-63" type="curve" smooth="yes"/>
      <point x="278" y="-63"/>
      <point x="321" y="-79"/>
      <point x="350" y="-101" type="curve"/>
      <point x="369" y="28" type="line"/>
      <point x="357" y="52"/>
      <point x="315" y="68"/>
      <point x="288" y="79" type="curve"/>
      <point x="332" y="119"/>
      <point x="478" y="180"/>
      <point x="561" y="192" type="curve"/>
      <point x="595" y="290" type="line"/>
      <point x="507" y="268"/>
      <point x="489" y="262"/>
      <point x="422" y="240" type="curve"/>
      <point x="403" y="246"/>
      <point x="383" y="259"/>
      <point x="373" y="265" type="curve" smooth="yes"/>
      <point x="355" y="275"/>
      <point x="331" y="295"/>
      <point x="312" y="315" type="curve"/>
      <point x="315" y="320"/>
      <point x="326" y="334"/>
      <point x="342" y="346" type="curve"/>
      <point x="359" y="360"/>
      <point x="384" y="373"/>
      <point x="413" y="373" type="curve" smooth="yes"/>
      <point x="449" y="373"/>
      <point x="475" y="365"/>
      <point x="508" y="349" type="curve"/>
      <point x="531" y="391" type="line"/>
      <point x="519" y="411"/>
      <point x="504" y="428"/>
      <point x="486" y="441" type="curve"/>
      <point x="464" y="455"/>
      <point x="438" y="464"/>
      <point x="407" y="464" type="curve" smooth="yes"/>
      <point x="378" y="464"/>
      <point x="353" y="454"/>
      <point x="333" y="440" type="curve" smooth="yes"/>
      <point x="308" y="423"/>
      <point x="290" y="399"/>
      <point x="281" y="378" type="curve" smooth="yes"/>
      <point x="270" y="352"/>
      <point x="265" y="329"/>
      <point x="263" y="293" type="curve"/>
      <point x="268" y="262"/>
      <point x="288" y="218"/>
      <point x="331" y="188" type="curve"/>
      <point x="281" y="172"/>
      <point x="222" y="125"/>
      <point x="212" y="89" type="curve" smooth="yes"/>
      <point x="207" y="69"/>
      <point x="204" y="48"/>
      <point x="205" y="28" type="curve"/>
      <point x="166" y="17"/>
      <point x="138" y="-11"/>
      <point x="118" y="-42" type="curve" smooth="yes"/>
      <point x="83" y="-96"/>
      <point x="74" y="-151"/>
      <point x="73" y="-158" type="curve" smooth="yes"/>
    </contour>
    <contour>
      <point x="328" y="0" type="move" name="caret_1"/>
    </contour>
    <contour>
      <point x="414" y="-130" type="move" name="bottom_1"/>
    </contour>
    <contour>
      <point x="407" y="494" type="move" name="top_1"/>
    </contour>
    <contour>
      <point x="125" y="125" type="move" name="top_2"/>
    </contour>
    <contour>
      <point x="126" y="-571" type="move" name="bottom_2"/>
    </contour>
  </outline>
</glyph>
<glyph name="uniFC40" format="1">
  <advance width="583"/>
  <unicode hex="FC40"/>
  <outline>
    <contour>
      <point x="70" y="269"/>
      <point x="110" y="264"/>
      <point x="128" y="222" type="curve"/>
      <point x="140" y="227" type="line"/>
      <point x="140" y="250" type="line"/>
      <point x="145" y="256"/>
      <point x="154" y="262"/>
      <point x="170" y="258" type="curve" smooth="yes"/>
      <point x="245" y="241"/>
      <point x="268" y="236"/>
      <point x="325" y="224" type="curve"/>
      <point x="252" y="198"/>
      <point x="191" y="157"/>
      <point x="148" y="104" type="curve" smooth="yes"/>
      <point x="103" y="50"/>
      <point x="78" y="-19"/>
      <point x="78" y="-99" type="curve" smooth="yes"/>
      <point x="78" y="-182"/>
      <point x="107" y="-257"/>
      <point x="157" y="-305" type="curve" smooth="yes"/>
      <point x="207" y="-353"/>
      <point x="272" y="-368"/>
      <point x="357" y="-369" type="curve" smooth="yes"/>
      <point x="415" y="-370" type="line"/>
      <point x="503" y="-269" type="line"/>
      <point x="407" y="-269" type="line" smooth="yes"/>
      <point x="359" y="-269"/>
      <point x="287" y="-262"/>
      <point x="225" y="-223" type="curve" smooth="yes"/>
      <point x="168" y="-187"/>
      <point x="132" y="-132"/>
      <point x="132" y="-67" type="curve" smooth="yes"/>
      <point x="132" y="-1"/>
      <point x="163" y="54"/>
      <point x="212" y="96" type="curve" smooth="yes"/>
      <point x="248" y="126"/>
      <point x="293" y="149"/>
      <point x="343" y="164" type="curve" smooth="yes"/>
      <point x="413" y="186"/>
      <point x="473" y="184"/>
      <point x="473" y="184" type="curve"/>
      <point x="511" y="284" type="line"/>
      <point x="474" y="285" type="line" smooth="yes"/>
      <point x="433" y="286"/>
      <point x="396" y="292"/>
      <point x="362" y="300" type="curve" smooth="yes"/>
      <point x="335" y="307"/>
      <point x="309" y="315"/>
      <point x="285" y="323" type="curve"/>
      <point x="292" y="338"/>
      <point x="299" y="353"/>
      <point x="299" y="369" type="curve" smooth="yes"/>
      <point x="299" y="413"/>
      <point x="298" y="473"/>
      <point x="291" y="531" type="curve" smooth="yes"/>
      <point x="287" y="562"/>
      <point x="293" y="572"/>
      <point x="313" y="592" type="curve"/>
      <point x="280" y="618"/>
      <point x="269" y="639"/>
      <point x="250" y="682" type="curve"/>
      <point x="222" y="678"/>
      <point x="208" y="657"/>
      <point x="201" y="635" type="curve" smooth="yes"/>
      <point x="193" y="610"/>
      <point x="194" y="581"/>
      <point x="194" y="581" type="curve"/>
      <point x="209" y="567" type="line"/>
      <point x="227" y="497"/>
      <point x="235" y="425"/>
      <point x="243" y="351" type="curve"/>
      <point x="224" y="344"/>
      <point x="193" y="344"/>
      <point x="164" y="343" type="curve" smooth="yes"/>
      <point x="135" y="342"/>
      <point x="109" y="340"/>
      <point x="102" y="328" type="curve"/>
      <point x="79" y="292"/>
      <point x="70" y="269"/>
      <point x="70" y="269" type="curve" smooth="yes"/>
    </contour>
    <contour>
      <point x="292" y="0" type="move" name="caret_1"/>
    </contour>
    <contour>
      <point x="453" y="-390" type="move" name="bottom_1"/>
    </contour>
    <contour>
      <point x="197" y="700" type="move" name="top_1"/>
    </contour>
    <contour>
      <point x="86" y="381" type="move" name="top_2"/>
    </contour>
    <contour>
      <point x="340" y="-49" type="move" name="center_2"/>
    </contour>
    <contour>
      <point x="207" y="-396" type="move" name="bottom_2"/>
    </contour>
  </outline>
</glyph>
<glyph name="uniFC42" format="1">
  <advance width="437"/>
  <unicode hex="FC42"/>
  <outline>
    <contour>
      <point x="105" y="27"/>
      <point x="86" y="-23" type="curve" smooth="yes"/>
      <point x="70" y="-66"/>
      <point x="68" y="-119"/>
      <point x="73" y="-173" type="curve" smooth="yes"/>
      <point x="76" y="-201"/>
      <point x="82" y="-230"/>
      <point x="88" y="-260" type="curve" smooth="yes"/>
      <point x="103" y="-327"/>
      <point x="121" y="-410"/>
      <point x="116" y="-488" type="curve"/>
      <point x="133" y="-480" type="line"/>
      <point x="160" y="-426"/>
      <point x="163" y="-382"/>
      <point x="166" y="-354" type="curve" smooth="yes"/>
      <point x="170" y="-311"/>
      <point x="164" y="-266"/>
      <point x="156" y="-224" type="curve" smooth="yes"/>
      <point x="143" y="-160"/>
      <point x="125" y="-102"/>
      <point x="130" y="-61" type="curve"/>
      <point x="147" y="-30"/>
      <point x="190" y="-10"/>
      <point x="237" y="-10" type="curve" smooth="yes"/>
      <point x="278" y="-10"/>
      <point x="321" y="-21"/>
      <point x="350" y="-43" type="curve"/>
      <point x="368" y="70" type="line"/>
      <point x="354" y="96"/>
      <point x="320" y="122"/>
      <point x="278" y="136" type="curve"/>
      <point x="297" y="179"/>
      <point x="285" y="260"/>
      <point x="281" y="327" type="curve" smooth="yes"/>
      <point x="275" y="409"/>
      <point x="261" y="523"/>
      <point x="260" y="531" type="curve" smooth="yes"/>
      <point x="256" y="562"/>
      <point x="262" y="572"/>
      <point x="282" y="592" type="curve"/>
      <point x="249" y="618"/>
      <point x="238" y="639"/>
      <point x="219" y="682" type="curve"/>
      <point x="191" y="678"/>
      <point x="177" y="657"/>
      <point x="170" y="635" type="curve" smooth="yes"/>
      <point x="162" y="610"/>
      <point x="163" y="581"/>
      <point x="163" y="581" type="curve"/>
      <point x="178" y="567" type="line"/>
      <point x="197" y="491"/>
      <point x="205" y="420"/>
      <point x="214" y="339" type="curve" smooth="yes"/>
      <point x="220" y="280"/>
      <point x="227" y="209"/>
      <point x="230" y="160" type="curve"/>
      <point x="212" y="130"/>
      <point x="199" y="106"/>
      <point x="199" y="81" type="curve"/>
      <point x="142" y="64"/>
    </contour>
    <contour>
      <point x="214" y="0" type="move" name="caret_1"/>
    </contour>
    <contour>
      <point x="283" y="-114" type="move" name="bottom_1"/>
    </contour>
    <contour>
      <point x="164" y="700" type="move" name="top_1"/>
    </contour>
    <contour>
      <point x="75" y="148" type="move" name="top_2"/>
    </contour>
    <contour>
      <point x="125" y="-520" type="move" name="bottom_2"/>
    </contour>
  </outline>
</glyph>
<glyph name="uniFC43" format="1">
  <advance width="640"/>
  <unicode hex="FC43"/>
  <outline>
    <contour>
      <point x="70" y="-51"/>
      <point x="78" y="-112"/>
      <point x="119" y="-159" type="curve" smooth="yes"/>
      <point x="148" y="-193"/>
      <point x="201" y="-219"/>
      <point x="271" y="-219" type="curve" smooth="yes"/>
      <point x="320" y="-219"/>
      <point x="377" y="-209"/>
      <point x="427" y="-190" type="curve" smooth="yes"/>
      <point x="483" y="-168"/>
      <point x="533" y="-135"/>
      <point x="545" y="-89" type="curve" smooth="yes"/>
      <point x="552" y="-62"/>
      <point x="555" y="-46"/>
      <point x="559" y="-25" type="curve" smooth="yes"/>
      <point x="567" y="13"/>
      <point x="525" y="49"/>
      <point x="475" y="63" type="curve"/>
      <point x="517" y="93"/>
      <point x="528" y="124"/>
      <point x="523" y="192" type="curve"/>
      <point x="517" y="262"/>
      <point x="497" y="420"/>
      <point x="479" y="535" type="curve"/>
      <point x="474" y="565"/>
      <point x="479" y="576"/>
      <point x="498" y="597" type="curve"/>
      <point x="464" y="621"/>
      <point x="452" y="641"/>
      <point x="430" y="683" type="curve"/>
      <point x="403" y="678"/>
      <point x="390" y="656"/>
      <point x="384" y="634" type="curve" smooth="yes"/>
      <point x="377" y="608"/>
      <point x="380" y="580"/>
      <point x="380" y="580" type="curve"/>
      <point x="395" y="566" type="line"/>
      <point x="418" y="491"/>
      <point x="430" y="421"/>
      <point x="443" y="341" type="curve" smooth="yes"/>
      <point x="454" y="274"/>
      <point x="467" y="187"/>
      <point x="470" y="142" type="curve"/>
      <point x="446" y="115"/>
      <point x="406" y="106"/>
      <point x="364" y="105" type="curve"/>
      <point x="338" y="21" type="line"/>
      <point x="349" y="0" type="line"/>
      <point x="412" y="-3"/>
      <point x="495" y="-10"/>
      <point x="492" y="-51" type="curve"/>
      <point x="468" y="-74"/>
      <point x="424" y="-90"/>
      <point x="374" y="-98" type="curve" smooth="yes"/>
      <point x="346" y="-103"/>
      <point x="316" y="-105"/>
      <point x="287" y="-105" type="curve" smooth="yes"/>
      <point x="229" y="-105"/>
      <point x="190" y="-91"/>
      <point x="163" y="-72" type="curve" smooth="yes"/>
      <point x="121" y="-42"/>
      <point x="109" y="-3"/>
      <point x="109" y="34" type="curve"/>
      <point x="111" y="82"/>
      <point x="134" y="124"/>
      <point x="143" y="134" type="curve"/>
      <point x="127" y="150" type="line"/>
      <point x="107" y="126"/>
      <point x="95" y="102"/>
      <point x="87" y="76" type="curve" smooth="yes"/>
      <point x="70" y="26"/>
      <point x="70" y="-20"/>
      <point x="70" y="-33" type="curve" smooth="yes"/>
    </contour>
    <contour>
      <point x="320" y="0" type="move" name="caret_1"/>
    </contour>
    <contour>
      <point x="514" y="-200" type="move" name="bottom_1"/>
    </contour>
    <contour>
      <point x="390" y="713" type="move" name="top_1"/>
    </contour>
    <contour>
      <point x="271" y="86" type="move" name="top_2"/>
    </contour>
    <contour>
      <point x="279" y="-249" type="move" name="bottom_2"/>
    </contour>
  </outline>
</glyph>
<glyph name="uniFC81" format="1">
  <advance width="937"/>
  <unicode hex="FC81"/>
  <outline>
    <contour>
      <point x="70" y="-83"/>
      <point x="80" y="-144"/>
      <point x="126" y="-187" type="curve" smooth="yes"/>
      <point x="158" y="-217"/>
      <point x="207" y="-238"/>
      <point x="276" y="-238" type="curve" smooth="yes"/>
      <point x="337" y="-238"/>
      <point x="395" y="-222"/>
      <point x="438" y="-185" type="curve" smooth="yes"/>
      <point x="477" y="-152"/>
      <point x="503" y="-102"/>
      <point x="503" y="-32" type="curve" smooth="yes"/>
      <point x="503" y="19" type="line"/>
      <point x="528" y="2"/>
      <point x="547" y="0"/>
      <point x="580" y="0" type="curve" smooth="yes"/>
      <point x="638" y="0"/>
      <point x="695" y="35"/>
      <point x="715" y="85" type="curve"/>
      <point x="735" y="55"/>
      <point x="776" y="0"/>
      <point x="865" y="0" type="curve" smooth="yes"/>
      <point x="937" y="0" type="line"/>
      <point x="937" y="106" type="line"/>
      <point x="872" y="106" type="line" smooth="yes"/>
      <point x="852" y="106"/>
      <point x="833" y="107"/>
      <point x="815" y="114" type="curve" smooth="yes"/>
      <point x="774" y="129"/>
      <point x="749" y="167"/>
      <point x="728" y="200" type="curve" smooth="yes"/>
      <point x="706" y="235"/>
      <point x="687" y="266"/>
      <point x="658" y="306" type="curve" smooth="yes"/>
      <point x="631" y="344"/>
      <point x="591" y="379"/>
      <point x="559" y="404" type="curve"/>
      <point x="595" y="427"/>
      <point x="607" y="434"/>
      <point x="685" y="472" type="curve" smooth="yes"/>
      <point x="769" y="513"/>
      <point x="816" y="538"/>
      <point x="824" y="544" type="curve"/>
      <point x="849" y="657" type="line"/>
      <point x="811" y="631"/>
      <point x="733" y="591"/>
      <point x="714" y="582" type="curve" smooth="yes"/>
      <point x="681" y="566"/>
      <point x="581" y="514"/>
      <point x="548" y="496" type="curve" smooth="yes"/>
      <point x="509" y="475"/>
      <point x="477" y="454"/>
      <point x="466" y="415" type="curve"/>
      <point x="442" y="614" type="line"/>
      <point x="378" y="540" type="line"/>
      <point x="402" y="341"/>
      <point x="427" y="142"/>
      <point x="451" y="-57" type="curve"/>
      <point x="439" y="-73"/>
      <point x="412" y="-96"/>
      <point x="374" y="-108" type="curve" smooth="yes"/>
      <point x="351" y="-115"/>
      <point x="322" y="-120"/>
      <point x="288" y="-120" type="curve" smooth="yes"/>
      <point x="232" y="-120"/>
      <point x="190" y="-106"/>
      <point x="163" y="-87" type="curve" smooth="yes"/>
      <point x="116" y="-54"/>
      <point x="110" y="-6"/>
      <point x="110" y="17" type="curve" smooth="yes"/>
      <point x="110" y="57"/>
      <point x="128" y="95"/>
      <point x="143" y="115" type="curve"/>
      <point x="127" y="131" type="line"/>
      <point x="107" y="108"/>
      <point x="96" y="85"/>
      <point x="87" y="57" type="curve" smooth="yes"/>
      <point x="72" y="10"/>
      <point x="70" y="-26"/>
      <point x="70" y="-44" type="curve" smooth="yes"/>
    </contour>
    <contour>
      <point x="512" y="327"/>
      <point x="554" y="294"/>
      <point x="583" y="259" type="curve" smooth="yes"/>
      <point x="618" y="218"/>
      <point x="647" y="173"/>
      <point x="670" y="137" type="curve"/>
      <point x="650" y="117"/>
      <point x="624" y="106"/>
      <point x="576" y="106" type="curve"/>
      <point x="550" y="106"/>
      <point x="532" y="114"/>
      <point x="519" y="130" type="curve" smooth="yes"/>
      <point x="503" y="151"/>
      <point x="494" y="186"/>
      <point x="487" y="244" type="curve" smooth="yes"/>
      <point x="474" y="352" type="line"/>
    </contour>
    <contour>
      <point x="454" y="0" type="move" name="caret_1"/>
    </contour>
    <contour>
      <point x="633" y="-34" type="move" name="bottom_1"/>
    </contour>
    <contour>
      <point x="624" y="591" type="move" name="top_1"/>
    </contour>
    <contour>
      <point x="327" y="590" type="move" name="top_2"/>
    </contour>
    <contour>
      <point x="276" y="-268" type="move" name="bottom_2"/>
    </contour>
  </outline>
</glyph>
<glyph name="uniFC83" format="1">
  <advance width="771"/>
  <unicode hex="FC83"/>
  <outline>
    <contour>
      <point x="70" y="-81"/>
      <point x="78" y="-142"/>
      <point x="119" y="-189" type="curve" smooth="yes"/>
      <point x="148" y="-223"/>
      <point x="201" y="-249"/>
      <point x="271" y="-249" type="curve" smooth="yes"/>
      <point x="320" y="-249"/>
      <point x="377" y="-239"/>
      <point x="427" y="-220" type="curve" smooth="yes"/>
      <point x="483" y="-198"/>
      <point x="534" y="-165"/>
      <point x="545" y="-119" type="curve" smooth="yes"/>
      <point x="551" y="-93"/>
      <point x="554" y="-79"/>
      <point x="558" y="-58" type="curve" smooth="yes"/>
      <point x="565" y="-23"/>
      <point x="522" y="10"/>
      <point x="476" y="26" type="curve"/>
      <point x="506" y="40"/>
      <point x="528" y="65"/>
      <point x="537" y="88" type="curve"/>
      <point x="557" y="59"/>
      <point x="578" y="39"/>
      <point x="599" y="26" type="curve" smooth="yes"/>
      <point x="630" y="6"/>
      <point x="662" y="0"/>
      <point x="699" y="0" type="curve" smooth="yes"/>
      <point x="771" y="0" type="line"/>
      <point x="771" y="106" type="line"/>
      <point x="706" y="106" type="line" smooth="yes"/>
      <point x="687" y="106"/>
      <point x="667" y="107"/>
      <point x="649" y="114" type="curve" smooth="yes"/>
      <point x="608" y="129"/>
      <point x="583" y="167"/>
      <point x="562" y="200" type="curve" smooth="yes"/>
      <point x="540" y="235"/>
      <point x="521" y="266"/>
      <point x="492" y="306" type="curve" smooth="yes"/>
      <point x="465" y="344"/>
      <point x="435" y="379"/>
      <point x="403" y="404" type="curve"/>
      <point x="439" y="427"/>
      <point x="451" y="434"/>
      <point x="529" y="472" type="curve" smooth="yes"/>
      <point x="613" y="513"/>
      <point x="660" y="538"/>
      <point x="668" y="544" type="curve"/>
      <point x="693" y="657" type="line"/>
      <point x="655" y="631"/>
      <point x="577" y="591"/>
      <point x="558" y="582" type="curve" smooth="yes"/>
      <point x="525" y="566"/>
      <point x="457" y="533"/>
      <point x="424" y="515" type="curve" smooth="yes"/>
      <point x="384" y="493"/>
      <point x="359" y="476"/>
      <point x="349" y="435" type="curve" smooth="yes"/>
      <point x="344" y="417"/>
      <point x="345" y="389"/>
      <point x="345" y="362" type="curve" smooth="yes"/>
      <point x="345" y="308"/>
      <point x="349" y="291"/>
      <point x="395" y="255" type="curve"/>
      <point x="395" y="273" type="line"/>
      <point x="431" y="245"/>
      <point x="473" y="187"/>
      <point x="503" y="138" type="curve"/>
      <point x="489" y="121"/>
      <point x="469" y="108"/>
      <point x="447" y="98" type="curve" smooth="yes"/>
      <point x="422" y="87"/>
      <point x="393" y="80"/>
      <point x="364" y="75" type="curve"/>
      <point x="338" y="-9" type="line"/>
      <point x="349" y="-30" type="line"/>
      <point x="412" y="-33"/>
      <point x="495" y="-40"/>
      <point x="492" y="-81" type="curve"/>
      <point x="468" y="-104"/>
      <point x="424" y="-120"/>
      <point x="374" y="-128" type="curve" smooth="yes"/>
      <point x="346" y="-133"/>
      <point x="316" y="-135"/>
      <point x="287" y="-135" type="curve" smooth="yes"/>
      <point x="229" y="-135"/>
      <point x="190" y="-121"/>
      <point x="163" y="-102" type="curve" smooth="yes"/>
      <point x="121" y="-72"/>
      <point x="109" y="-33"/>
      <point x="109" y="4" type="curve"/>
      <point x="111" y="52"/>
      <point x="134" y="94"/>
      <point x="143" y="104" type="curve"/>
      <point x="127" y="120" type="line"/>
      <point x="107" y="96"/>
      <point x="95" y="72"/>
      <point x="87" y="46" type="curve" smooth="yes"/>
      <point x="70" y="-4"/>
      <point x="70" y="-50"/>
      <point x="70" y="-63" type="curve" smooth="yes"/>
    </contour>
    <contour>
      <point x="376" y="0" type="move" name="caret_1"/>
    </contour>
    <contour>
      <point x="553" y="-200" type="move" name="bottom_1"/>
    </contour>
    <contour>
      <point x="438" y="593" type="move" name="top_1"/>
    </contour>
    <contour>
      <point x="271" y="82" type="move" name="top_2"/>
    </contour>
    <contour>
      <point x="281" y="-279" type="move" name="bottom_2"/>
    </contour>
  </outline>
</glyph>
<glyph name="uniFC86" format="1">
  <advance width="714"/>
  <unicode hex="FC86"/>
  <outline>
    <contour>
      <point x="70" y="-81"/>
      <point x="78" y="-142"/>
      <point x="119" y="-189" type="curve" smooth="yes"/>
      <point x="148" y="-223"/>
      <point x="201" y="-249"/>
      <point x="271" y="-249" type="curve" smooth="yes"/>
      <point x="320" y="-249"/>
      <point x="377" y="-239"/>
      <point x="427" y="-220" type="curve" smooth="yes"/>
      <point x="483" y="-198"/>
      <point x="534" y="-165"/>
      <point x="545" y="-119" type="curve" smooth="yes"/>
      <point x="551" y="-93"/>
      <point x="554" y="-79"/>
      <point x="558" y="-58" type="curve" smooth="yes"/>
      <point x="565" y="-23"/>
      <point x="522" y="10"/>
      <point x="476" y="26" type="curve"/>
      <point x="507" y="40"/>
      <point x="529" y="66"/>
      <point x="538" y="90" type="curve"/>
      <point x="546" y="65"/>
      <point x="559" y="45"/>
      <point x="574" y="31" type="curve" smooth="yes"/>
      <point x="598" y="9"/>
      <point x="627" y="0"/>
      <point x="652" y="0" type="curve" smooth="yes"/>
      <point x="714" y="0" type="line"/>
      <point x="714" y="106" type="line"/>
      <point x="687" y="106" type="line" smooth="yes"/>
      <point x="656" y="106"/>
      <point x="634" y="113"/>
      <point x="618" y="135" type="curve" smooth="yes"/>
      <point x="603" y="156"/>
      <point x="593" y="190"/>
      <point x="586" y="245" type="curve" smooth="yes"/>
      <point x="579" y="295"/>
      <point x="554" y="508"/>
      <point x="533" y="681" type="curve"/>
      <point x="470" y="607" type="line"/>
      <point x="491" y="441"/>
      <point x="511" y="298"/>
      <point x="522" y="169" type="curve"/>
      <point x="513" y="145"/>
      <point x="495" y="126"/>
      <point x="472" y="111" type="curve" smooth="yes"/>
      <point x="443" y="93"/>
      <point x="405" y="82"/>
      <point x="364" y="75" type="curve"/>
      <point x="338" y="-9" type="line"/>
      <point x="349" y="-30" type="line"/>
      <point x="412" y="-33"/>
      <point x="495" y="-40"/>
      <point x="492" y="-81" type="curve"/>
      <point x="468" y="-104"/>
      <point x="424" y="-120"/>
      <point x="374" y="-128" type="curve" smooth="yes"/>
      <point x="346" y="-133"/>
      <point x="316" y="-135"/>
      <point x="287" y="-135" type="curve" smooth="yes"/>
      <point x="229" y="-135"/>
      <point x="190" y="-121"/>
      <point x="163" y="-102" type="curve" smooth="yes"/>
      <point x="121" y="-72"/>
      <point x="109" y="-33"/>
      <point x="109" y="4" type="curve"/>
      <point x="111" y="52"/>
      <point x="134" y="94"/>
      <point x="143" y="104" type="curve"/>
      <point x="127" y="120" type="line"/>
      <point x="107" y="96"/>
      <point x="95" y="72"/>
      <point x="87" y="46" type="curve" smooth="yes"/>
      <point x="70" y="-4"/>
      <point x="70" y="-50"/>
      <point x="70" y="-63" type="curve" smooth="yes"/>
    </contour>
    <contour>
      <point x="357" y="0" type="move" name="caret_1"/>
    </contour>
    <contour>
      <point x="554" y="-200" type="move" name="bottom_1"/>
    </contour>
    <contour>
      <point x="480" y="705" type="move" name="top_1"/>
    </contour>
    <contour>
      <point x="277" y="85" type="move" name="top_2"/>
    </contour>
    <contour>
      <point x="295" y="-279" type="move" name="bottom_2"/>
    </contour>
  </outline>
</glyph>
<glyph name="uniFCAA" format="1">
  <advance width="697"/>
  <unicode hex="FCAA"/>
  <outline>
    <contour>
      <point x="542" y="386"/>
      <point x="479" y="402"/>
      <point x="417" y="428" type="curve" smooth="yes"/>
      <point x="347" y="457"/>
      <point x="318" y="475"/>
      <point x="273" y="475" type="curve" smooth="yes"/>
      <point x="250" y="475"/>
      <point x="198" y="462"/>
      <point x="190" y="447" type="curve" smooth="yes"/>
      <point x="170" y="409"/>
      <point x="161" y="378"/>
      <point x="161" y="378" type="curve" smooth="yes"/>
      <point x="161" y="378"/>
      <point x="198" y="377"/>
      <point x="222" y="337" type="curve"/>
      <point x="233" y="342" type="line"/>
      <point x="233" y="367" type="line"/>
      <point x="237" y="374"/>
      <point x="245" y="383"/>
      <point x="262" y="378" type="curve" smooth="yes"/>
      <point x="308" y="366"/>
      <point x="344" y="354"/>
      <point x="389" y="339" type="curve"/>
      <point x="334" y="336"/>
      <point x="273" y="320"/>
      <point x="221" y="291" type="curve" smooth="yes"/>
      <point x="175" y="266"/>
      <point x="135" y="231"/>
      <point x="113" y="186" type="curve"/>
      <point x="91" y="145"/>
      <point x="66" y="106"/>
      <point x="10" y="106" type="curve" smooth="yes"/>
      <point x="-17" y="106" type="line" smooth="yes"/>
      <point x="-46" y="106"/>
      <point x="-70" y="82"/>
      <point x="-70" y="53" type="curve" smooth="yes"/>
      <point x="-70" y="24"/>
      <point x="-46" y="0"/>
      <point x="-17" y="0" type="curve" smooth="yes"/>
      <point x="1" y="0" type="line" smooth="yes"/>
      <point x="39" y="0"/>
      <point x="66" y="14"/>
      <point x="84" y="32" type="curve" smooth="yes"/>
      <point x="108" y="55"/>
      <point x="117" y="84"/>
      <point x="120" y="97" type="curve"/>
      <point x="120" y="51"/>
      <point x="147" y="6"/>
      <point x="206" y="6" type="curve" smooth="yes"/>
      <point x="242" y="6"/>
      <point x="269" y="29"/>
      <point x="269" y="29" type="curve"/>
      <point x="278" y="59"/>
      <point x="285" y="86"/>
      <point x="294" y="131" type="curve" smooth="yes"/>
      <point x="302" y="169"/>
      <point x="294" y="202"/>
      <point x="261" y="226" type="curve"/>
      <point x="296" y="248"/>
      <point x="342" y="264"/>
      <point x="393" y="274" type="curve" smooth="yes"/>
      <point x="456" y="287"/>
      <point x="525" y="291"/>
      <point x="581" y="285" type="curve"/>
      <point x="637" y="386" type="line"/>
      <point x="613" y="386" type="line" smooth="yes"/>
    </contour>
    <contour>
      <point x="208" y="101"/>
      <point x="166" y="118"/>
      <point x="140" y="143" type="curve"/>
      <point x="152" y="167"/>
      <point x="177" y="182"/>
      <point x="201" y="182" type="curve" smooth="yes"/>
      <point x="231" y="182"/>
      <point x="260" y="140"/>
      <point x="260" y="140" type="curve"/>
      <point x="250" y="120"/>
      <point x="241" y="100"/>
      <point x="241" y="100" type="curve" smooth="yes"/>
    </contour>
    <contour>
      <point x="335" y="0" type="move" name="caret_1"/>
    </contour>
    <contour>
      <point x="440" y="218" type="move" name="bottom_1"/>
    </contour>
    <contour>
      <point x="273" y="505" type="move" name="top_1"/>
    </contour>
    <contour>
      <point x="40" y="234" type="move" name="top_2"/>
    </contour>
    <contour>
      <point x="165" y="-34" type="move" name="bottom_2"/>
    </contour>
  </outline>
</glyph>
<glyph name="uniFCBB" format="1">
  <advance width="568"/>
  <unicode hex="FCBB"/>
  <outline>
    <contour>
      <point x="420" y="384"/>
      <point x="402" y="378"/>
      <point x="335" y="356" type="curve"/>
      <point x="316" y="362"/>
      <point x="296" y="375"/>
      <point x="286" y="381" type="curve" smooth="yes"/>
      <point x="268" y="391"/>
      <point x="244" y="411"/>
      <point x="225" y="431" type="curve"/>
      <point x="228" y="436"/>
      <point x="239" y="450"/>
      <point x="255" y="462" type="curve"/>
      <point x="272" y="476"/>
      <point x="297" y="489"/>
      <point x="326" y="489" type="curve" smooth="yes"/>
      <point x="362" y="489"/>
      <point x="388" y="481"/>
      <point x="421" y="465" type="curve"/>
      <point x="444" y="507" type="line"/>
      <point x="432" y="527"/>
      <point x="417" y="544"/>
      <point x="399" y="557" type="curve"/>
      <point x="377" y="571"/>
      <point x="351" y="580"/>
      <point x="320" y="580" type="curve" smooth="yes"/>
      <point x="291" y="580"/>
      <point x="266" y="570"/>
      <point x="246" y="556" type="curve" smooth="yes"/>
      <point x="221" y="539"/>
      <point x="203" y="515"/>
      <point x="194" y="494" type="curve" smooth="yes"/>
      <point x="183" y="468"/>
      <point x="178" y="445"/>
      <point x="176" y="409" type="curve"/>
      <point x="181" y="378"/>
      <point x="201" y="334"/>
      <point x="244" y="304" type="curve"/>
      <point x="178" y="281"/>
      <point x="134" y="230"/>
      <point x="113" y="186" type="curve"/>
      <point x="91" y="145"/>
      <point x="66" y="106"/>
      <point x="10" y="106" type="curve" smooth="yes"/>
      <point x="-17" y="106" type="line" smooth="yes"/>
      <point x="-46" y="106"/>
      <point x="-70" y="82"/>
      <point x="-70" y="53" type="curve" smooth="yes"/>
      <point x="-70" y="24"/>
      <point x="-46" y="0"/>
      <point x="-17" y="0" type="curve" smooth="yes"/>
      <point x="1" y="0" type="line" smooth="yes"/>
      <point x="39" y="0"/>
      <point x="66" y="14"/>
      <point x="84" y="32" type="curve" smooth="yes"/>
      <point x="108" y="55"/>
      <point x="117" y="84"/>
      <point x="120" y="97" type="curve"/>
      <point x="120" y="51"/>
      <point x="147" y="6"/>
      <point x="206" y="6" type="curve" smooth="yes"/>
      <point x="242" y="6"/>
      <point x="269" y="29"/>
      <point x="269" y="29" type="curve"/>
      <point x="278" y="59"/>
      <point x="285" y="86"/>
      <point x="294" y="131" type="curve" smooth="yes"/>
      <point x="302" y="169"/>
      <point x="294" y="202"/>
      <point x="261" y="226" type="curve"/>
      <point x="324" y="268"/>
      <point x="415" y="299"/>
      <point x="474" y="308" type="curve"/>
      <point x="508" y="406" type="line"/>
    </contour>
    <contour>
      <point x="208" y="101"/>
      <point x="166" y="118"/>
      <point x="140" y="143" type="curve"/>
      <point x="152" y="167"/>
      <point x="177" y="182"/>
      <point x="201" y="182" type="curve" smooth="yes"/>
      <point x="231" y="182"/>
      <point x="260" y="140"/>
      <point x="260" y="140" type="curve"/>
      <point x="250" y="120"/>
      <point x="241" y="100"/>
      <point x="241" y="100" type="curve" smooth="yes"/>
    </contour>
    <contour>
      <point x="284" y="0" type="move" name="caret_1"/>
    </contour>
    <contour>
      <point x="345" y="0" type="move" name="bottom_1"/>
    </contour>
    <contour>
      <point x="320" y="605" type="move" name="top_1"/>
    </contour>
    <contour>
      <point x="38" y="253" type="move" name="top_2"/>
    </contour>
    <contour>
      <point x="43" y="-34" type="move" name="bottom_2"/>
    </contour>
  </outline>
</glyph>
<glyph name="uniFCCA" format="1">
  <advance width="548"/>
  <unicode hex="FCCA"/>
  <outline>
    <contour>
      <point x="-70" y="24"/>
      <point x="-46" y="0"/>
      <point x="-17" y="0" type="curve" smooth="yes"/>
      <point x="43" y="0" type="line" smooth="yes"/>
      <point x="108" y="0"/>
      <point x="155" y="12"/>
      <point x="201" y="39" type="curve" smooth="yes"/>
      <point x="259" y="73"/>
      <point x="341" y="115"/>
      <point x="436" y="109" type="curve"/>
      <point x="488" y="204" type="line"/>
      <point x="460" y="204" type="line" smooth="yes"/>
      <point x="388" y="204"/>
      <point x="312" y="232"/>
      <point x="233" y="263" type="curve"/>
      <point x="243" y="277"/>
      <point x="251" y="296"/>
      <point x="250" y="315" type="curve" smooth="yes"/>
      <point x="247" y="370"/>
      <point x="240" y="467"/>
      <point x="233" y="531" type="curve" smooth="yes"/>
      <point x="230" y="562"/>
      <point x="235" y="572"/>
      <point x="255" y="592" type="curve"/>
      <point x="222" y="618"/>
      <point x="211" y="639"/>
      <point x="192" y="682" type="curve"/>
      <point x="164" y="678"/>
      <point x="150" y="657"/>
      <point x="143" y="635" type="curve" smooth="yes"/>
      <point x="135" y="610"/>
      <point x="136" y="581"/>
      <point x="136" y="581" type="curve"/>
      <point x="151" y="567" type="line"/>
      <point x="168" y="503"/>
      <point x="181" y="375"/>
      <point x="189" y="297" type="curve"/>
      <point x="162" y="290"/>
      <point x="128" y="288"/>
      <point x="98" y="288" type="curve" smooth="yes"/>
      <point x="69" y="288"/>
      <point x="49" y="279"/>
      <point x="41" y="265" type="curve" smooth="yes"/>
      <point x="20" y="228"/>
      <point x="12" y="196"/>
      <point x="12" y="196" type="curve" smooth="yes"/>
      <point x="12" y="196"/>
      <point x="49" y="195"/>
      <point x="73" y="155" type="curve"/>
      <point x="84" y="160" type="line"/>
      <point x="84" y="185" type="line"/>
      <point x="88" y="192"/>
      <point x="96" y="201"/>
      <point x="113" y="196" type="curve" smooth="yes"/>
      <point x="166" y="182"/>
      <point x="205" y="169"/>
      <point x="261" y="150" type="curve"/>
      <point x="238" y="140"/>
      <point x="223" y="126"/>
      <point x="152" y="112" type="curve" smooth="yes"/>
      <point x="122" y="106"/>
      <point x="83" y="106"/>
      <point x="41" y="106" type="curve" smooth="yes"/>
      <point x="-17" y="106" type="line" smooth="yes"/>
      <point x="-46" y="106"/>
      <point x="-70" y="81"/>
      <point x="-70" y="52" type="curve" smooth="yes"/>
    </contour>
    <contour>
      <point x="274" y="0" type="move" name="caret_1"/>
    </contour>
    <contour>
      <point x="368" y="0" type="move" name="bottom_1"/>
    </contour>
    <contour>
      <point x="141" y="693" type="move" name="top_1"/>
    </contour>
    <contour>
      <point x="31" y="325" type="move" name="top_2"/>
    </contour>
    <contour>
      <point x="136" y="-34" type="move" name="bottom_2"/>
    </contour>
  </outline>
</glyph>
<glyph name="uniFCCC" format="1">
  <advance width="334"/>
  <unicode hex="FCCC"/>
  <outline>
    <contour>
      <point x="-70" y="23"/>
      <point x="-46" y="0"/>
      <point x="-17" y="0" type="curve" smooth="yes"/>
      <point x="77" y="0" type="line" smooth="yes"/>
      <point x="145" y="0"/>
      <point x="194" y="22"/>
      <point x="256" y="-29" type="curve"/>
      <point x="274" y="104" type="line"/>
      <point x="258" y="120"/>
      <point x="237" y="125"/>
      <point x="218" y="131" type="curve" smooth="yes"/>
      <point x="191" y="140"/>
      <point x="165" y="150"/>
      <point x="157" y="196" type="curve"/>
      <point x="139" y="293"/>
      <point x="121" y="459"/>
      <point x="111" y="535" type="curve" smooth="yes"/>
      <point x="107" y="565"/>
      <point x="111" y="576"/>
      <point x="130" y="597" type="curve"/>
      <point x="95" y="621"/>
      <point x="83" y="641"/>
      <point x="62" y="683" type="curve"/>
      <point x="34" y="678"/>
      <point x="21" y="656"/>
      <point x="16" y="634" type="curve"/>
      <point x="9" y="608"/>
      <point x="11" y="580"/>
      <point x="11" y="580" type="curve"/>
      <point x="27" y="566" type="line"/>
      <point x="50" y="491"/>
      <point x="65" y="421"/>
      <point x="73" y="341" type="curve" smooth="yes"/>
      <point x="83" y="238"/>
      <point x="83" y="171"/>
      <point x="102" y="127" type="curve"/>
      <point x="102" y="127"/>
      <point x="80" y="106"/>
      <point x="42" y="106" type="curve" smooth="yes"/>
      <point x="-17" y="106" type="line" smooth="yes"/>
      <point x="-46" y="106"/>
      <point x="-70" y="81"/>
      <point x="-70" y="52" type="curve" smooth="yes"/>
    </contour>
    <contour>
      <point x="167" y="0" type="move" name="caret_1"/>
    </contour>
    <contour>
      <point x="173" y="-184" type="move" name="bottom_1"/>
    </contour>
    <contour>
      <point x="192" y="704" type="move" name="top_1"/>
    </contour>
    <contour>
      <point x="-31" y="682" type="move" name="top_2"/>
    </contour>
    <contour>
      <point x="41" y="-55" type="move" name="bottom_2"/>
    </contour>
  </outline>
</glyph>
<glyph name="uniFCCD" format="1">
  <advance width="441"/>
  <unicode hex="FCCD"/>
  <outline>
    <contour>
      <point x="-60" y="24"/>
      <point x="-36" y="0"/>
      <point x="-7" y="0" type="curve"/>
      <point x="33" y="0" type="line" smooth="yes"/>
      <point x="104" y="0"/>
      <point x="149" y="7"/>
      <point x="188" y="41" type="curve"/>
      <point x="232" y="17"/>
      <point x="274" y="-2"/>
      <point x="293" y="-2" type="curve" smooth="yes"/>
      <point x="319" y="-2"/>
      <point x="360" y="33"/>
      <point x="370" y="76" type="curve"/>
      <point x="387" y="137"/>
      <point x="385" y="175"/>
      <point x="368" y="206" type="curve" smooth="yes"/>
      <point x="352" y="238"/>
      <point x="319" y="265"/>
      <point x="274" y="297" type="curve" smooth="yes"/>
      <point x="257" y="309"/>
      <point x="236" y="323"/>
      <point x="216" y="337" type="curve"/>
      <point x="208" y="403"/>
      <point x="197" y="473"/>
      <point x="188" y="535" type="curve" smooth="yes"/>
      <point x="183" y="565"/>
      <point x="188" y="576"/>
      <point x="207" y="597" type="curve"/>
      <point x="173" y="621"/>
      <point x="161" y="641"/>
      <point x="139" y="683" type="curve"/>
      <point x="112" y="678"/>
      <point x="99" y="656"/>
      <point x="93" y="634" type="curve" smooth="yes"/>
      <point x="86" y="608"/>
      <point x="89" y="580"/>
      <point x="89" y="580" type="curve"/>
      <point x="104" y="566" type="line"/>
      <point x="124" y="502"/>
      <point x="146" y="395"/>
      <point x="160" y="315" type="curve"/>
      <point x="125" y="303"/>
      <point x="100" y="279"/>
      <point x="83" y="253" type="curve" smooth="yes"/>
      <point x="66" y="227"/>
      <point x="58" y="199"/>
      <point x="58" y="178" type="curve" smooth="yes"/>
      <point x="58" y="154"/>
      <point x="66" y="131"/>
      <point x="83" y="112" type="curve"/>
      <point x="69" y="108"/>
      <point x="51" y="106"/>
      <point x="33" y="106" type="curve" smooth="yes"/>
      <point x="-7" y="106" type="line"/>
      <point x="-36" y="106"/>
      <point x="-60" y="81"/>
      <point x="-60" y="53" type="curve"/>
    </contour>
    <contour>
      <point x="108" y="232"/>
      <point x="129" y="248"/>
      <point x="152" y="248" type="curve" smooth="yes"/>
      <point x="175" y="248"/>
      <point x="205" y="230"/>
      <point x="211" y="196" type="curve"/>
      <point x="201" y="179"/>
      <point x="187" y="164"/>
      <point x="171" y="152" type="curve"/>
      <point x="121" y="175"/>
      <point x="101" y="188"/>
      <point x="94" y="209" type="curve"/>
    </contour>
    <contour>
      <point x="255" y="151"/>
      <point x="258" y="181"/>
      <point x="238" y="232" type="curve"/>
      <point x="245" y="226"/>
      <point x="270" y="211"/>
      <point x="294" y="187" type="curve" smooth="yes"/>
      <point x="310" y="171"/>
      <point x="326" y="151"/>
      <point x="334" y="128" type="curve"/>
      <point x="329" y="87"/>
      <point x="301" y="84"/>
      <point x="301" y="84" type="curve"/>
      <point x="275" y="96"/>
      <point x="268" y="100"/>
      <point x="234" y="119" type="curve"/>
    </contour>
    <contour>
      <point x="221" y="0" type="move" name="caret_1"/>
    </contour>
    <contour>
      <point x="290" y="-55" type="move" name="bottom_1"/>
    </contour>
    <contour>
      <point x="276" y="698" type="move" name="top_1"/>
    </contour>
    <contour>
      <point x="30" y="682" type="move" name="top_2"/>
    </contour>
    <contour>
      <point x="79" y="-34" type="move" name="bottom_2"/>
    </contour>
  </outline>
</glyph>
<glyph name="uniFD17" format="1">
  <advance width="1030"/>
  <unicode hex="FD17"/>
  <outline>
    <contour>
      <point x="957" y="106"/>
      <point x="934" y="124"/>
      <point x="920" y="148" type="curve"/>
      <point x="911" y="166"/>
      <point x="906" y="188"/>
      <point x="905" y="207" type="curve"/>
      <point x="891" y="215" type="line"/>
      <point x="891" y="190"/>
      <point x="888" y="163"/>
      <point x="877" y="144" type="curve"/>
      <point x="868" y="126"/>
      <point x="851" y="112"/>
      <point x="823" y="112" type="curve" smooth="yes"/>
      <point x="785" y="112"/>
      <point x="765" y="130"/>
      <point x="755" y="154" type="curve" smooth="yes"/>
      <point x="749" y="169"/>
      <point x="745" y="187"/>
      <point x="744" y="207" type="curve"/>
      <point x="729" y="214" type="line"/>
      <point x="727" y="187"/>
      <point x="721" y="163"/>
      <point x="708" y="144" type="curve" smooth="yes"/>
      <point x="694" y="125"/>
      <point x="673" y="112"/>
      <point x="643" y="112" type="curve" smooth="yes"/>
      <point x="610" y="112"/>
      <point x="591" y="119"/>
      <point x="576" y="136" type="curve" smooth="yes"/>
      <point x="566" y="146"/>
      <point x="558" y="160"/>
      <point x="547" y="179" type="curve"/>
      <point x="534" y="202"/>
      <point x="518" y="221"/>
      <point x="486" y="221" type="curve" smooth="yes"/>
      <point x="457" y="221"/>
      <point x="426" y="200"/>
      <point x="401" y="169" type="curve" smooth="yes"/>
      <point x="381" y="145"/>
      <point x="365" y="114"/>
      <point x="355" y="82" type="curve" smooth="yes"/>
      <point x="349" y="63"/>
      <point x="346" y="39"/>
      <point x="355" y="19" type="curve" smooth="yes"/>
      <point x="362" y="3"/>
      <point x="376" y="-11"/>
      <point x="403" y="-15" type="curve" smooth="yes"/>
      <point x="466" y="-25"/>
      <point x="479" y="-29"/>
      <point x="481" y="-41" type="curve"/>
      <point x="457" y="-62"/>
      <point x="429" y="-78"/>
      <point x="396" y="-89" type="curve" smooth="yes"/>
      <point x="362" y="-100"/>
      <point x="324" y="-105"/>
      <point x="281" y="-105" type="curve" smooth="yes"/>
      <point x="229" y="-105"/>
      <point x="190" y="-90"/>
      <point x="164" y="-72" type="curve" smooth="yes"/>
      <point x="124" y="-44"/>
      <point x="109" y="-7"/>
      <point x="110" y="34" type="curve" smooth="yes"/>
      <point x="111" y="82"/>
      <point x="134" y="124"/>
      <point x="143" y="134" type="curve"/>
      <point x="127" y="150" type="line"/>
      <point x="105" y="126"/>
      <point x="94" y="98"/>
      <point x="87" y="76" type="curve" smooth="yes"/>
      <point x="70" y="24"/>
      <point x="70" y="-18"/>
      <point x="70" y="-20" type="curve" smooth="yes"/>
      <point x="70" y="-58"/>
      <point x="79" y="-117"/>
      <point x="121" y="-163" type="curve" smooth="yes"/>
      <point x="150" y="-195"/>
      <point x="204" y="-218"/>
      <point x="278" y="-218" type="curve" smooth="yes"/>
      <point x="325" y="-218"/>
      <point x="381" y="-201"/>
      <point x="427" y="-175" type="curve" smooth="yes"/>
      <point x="472" y="-151"/>
      <point x="507" y="-120"/>
      <point x="517" y="-89" type="curve" smooth="yes"/>
      <point x="521" y="-76"/>
      <point x="525" y="-57"/>
      <point x="531" y="-25" type="curve" smooth="yes"/>
      <point x="543" y="34"/>
      <point x="509" y="46"/>
      <point x="473" y="54" type="curve" smooth="yes"/>
      <point x="449" y="59"/>
      <point x="425" y="62"/>
      <point x="413" y="76" type="curve"/>
      <point x="420" y="95"/>
      <point x="443" y="126"/>
      <point x="476" y="126" type="curve" smooth="yes"/>
      <point x="524" y="126"/>
      <point x="540" y="93"/>
      <point x="558" y="61" type="curve" smooth="yes"/>
      <point x="575" y="32"/>
      <point x="601" y="5"/>
      <point x="651" y="5" type="curve" smooth="yes"/>
      <point x="673" y="5"/>
      <point x="693" y="13"/>
      <point x="708" y="26" type="curve" smooth="yes"/>
      <point x="723" y="38"/>
      <point x="733" y="55"/>
      <point x="736" y="75" type="curve"/>
      <point x="740" y="55"/>
      <point x="748" y="40"/>
      <point x="760" y="28" type="curve" smooth="yes"/>
      <point x="775" y="13"/>
      <point x="796" y="6"/>
      <point x="820" y="6" type="curve" smooth="yes"/>
      <point x="864" y="6"/>
      <point x="897" y="27"/>
      <point x="902" y="67" type="curve"/>
      <point x="910" y="49"/>
      <point x="919" y="35"/>
      <point x="930" y="25" type="curve" smooth="yes"/>
      <point x="948" y="8"/>
      <point x="971" y="0"/>
      <point x="1000" y="0" type="curve" smooth="yes"/>
      <point x="1030" y="0" type="line"/>
      <point x="1030" y="106" type="line"/>
      <point x="996" y="106" type="line" smooth="yes"/>
    </contour>
    <contour>
      <point x="515" y="0" type="move" name="caret_1"/>
    </contour>
    <contour>
      <point x="730" y="0" type="move" name="bottom_1"/>
    </contour>
    <contour>
      <point x="729" y="254" type="move" name="top_1"/>
    </contour>
    <contour>
      <point x="274" y="130" type="move" name="top_2"/>
    </contour>
    <contour>
      <point x="288" y="-248" type="move" name="bottom_2"/>
    </contour>
  </outline>
</glyph>
